{
.appVersion = "3039";
DisplayStrings = (
"/ga.base/ge-ethiopic r/za-ethiopic",
"/ga-ethiopic/zwa-ethiopic",
"/ba.base.cap/da.base.cap/fa.base.cap/ga.base.cap/ha.base.cap/hha.base.cap/la.base.cap/ma.base.cap/na.base.cap/nna.base.cap/oPh.base.cap/pa.base.cap/ra.base.cap/sa.base.cap/ta.base.cap/tsa.base.cap/wa.base.cap/ya.base.cap/za.base.cap",
"/ba.base.cap",
"/da.base.cap",
"/fa.base.cap",
"/ga.base.cap",
"/ha.base.cap",
"/hha.base.cap",
"/la.base.cap",
"/ma.base.cap",
"/na.base.cap",
"/nna.base.cap",
"/oPh.base.cap",
"/pa.base.cap",
"/ra.base.cap",
"/sa.base.cap",
"/ta.base.cap",
"/tsa.base.cap",
"/wa.base.cap",
"/ya.base.cap",
"/za.base.cap",
"/la.base.cap/laa-ethiopic.etcp",
"/ha.base.cap/hu-ethiopic.etcp",
"/ha.base.cap/hu-ethiopic.etcp",
"/ha.base.cap/he-ethiopic.etcp",
"/ha.base.cap/hu-ethiopic.etcp",
"/la.base.cap/lu-ethiopic.etcp",
"/la.base.cap/lu-ethiopic.etcp",
"/la.base.cap/lee-ethiopic.etcp",
"/la.base.cap/lo-ethiopic.etcp",
"/hha.base.cap/hhu-ethiopic.etcp",
"/ma.base.cap/mu-ethiopic.etcp",
"/sa.base.cap/szu-ethiopic.etcp",
"/ra.base.cap/ru-ethiopic.etcp",
"/na.base.cap/re-ethiopic.etcp",
"/wa.base.cap/su-ethiopic.etcp",
"/wa.base.cap/qa-ethiopic.etcp",
"/ba.base.cap/sa-ethiopic.etcp",
"/ba.base.cap/swa-ethiopic.etcp/shwa-ethiopic.etcp",
"/wa.base.cap/qhwaa-ethiopic.etcp",
"/wa.base.cap/qwe-ethiopic.etcp",
"/ta.base.cap/ta-ethiopic.etcp",
"/wa.base.cap/qa-ethiopic.etcp",
"/ta.base.cap/ta-ethiopic.etcp",
"/nna.base.cap/xa-ethiopic.etcp",
"/nna.base.cap/xa-ethiopic.etcp",
"/nna.base.cap/xee-ethiopic.etcp",
"/nya-ethiopic.etcp/nyu-ethiopic.etcp/nyi-ethiopic.etcp/nyaa-ethiopic.etcp/nyee-ethiopic.etcp/nye-ethiopic.etcp/nyo-ethiopic.etcp/nywa-ethiopic.etcp",
"/nna.base.cap/nya-ethiopic.etcp",
"/na.base.cap/nyaa-ethiopic.etcp",
"/ba.base.cap/aGlottal-ethiopic.etcp",
"/_smart.aGl.cap",
"/aGlottal-ethiopic.etcp/uGlottal-ethiopic.etcp/iGlottal-ethiopic.etcp/aaGlottal-ethiopic.etcp/eeGlottal-ethiopic.etcp/eGlottal-ethiopic.etcp/oGlottal-ethiopic.etcp",

glyphs = (
{
glyphname = AE;
lastChange = "2020-12-20 22:35:59 +0000";
layers = (
{
components = (
{
name = E;
transform = "{1, 0, 0, 1, 919, -11}";
}
);
layerId = "1691882E-B915-4755-A5B2-757873D945FF";
paths = (
{
closed = 1;
nodes = (
"1112 334 LINE SMOOTH",
"1126 334 OFFCURVE",
"1188 352 OFFCURVE",
"1199 362 CURVE SMOOTH",
"1223 384 OFFCURVE",
"1187 377 OFFCURVE",
"1109 366 CURVE",
"1000 370 OFFCURVE",
"955.911 372 OFFCURVE",
"919 372 CURVE",
"971.5 512.5 LINE SMOOTH",
"1005 601 OFFCURVE",
"1030 663.333 OFFCURVE",
"1048 698 CURVE",
"1096 698 OFFCURVE",
"1166 729.5 OFFCURVE",
"1166 771.5 CURVE SMOOTH",
"1166 792.5 OFFCURVE",
"1153.667 803 OFFCURVE",
"1129 803 CURVE SMOOTH",
"1111.31 803 OFFCURVE",
"1090.925 797.575 OFFCURVE",
"1065.5 766.5 CURVE SMOOTH",
"1050.5 748.167 OFFCURVE",
"1039.333 732.667 OFFCURVE",
"1032 720 CURVE",
"980.097 714.631 OFFCURVE",
"906.631 713.224 OFFCURVE",
"840.5 707 CURVE SMOOTH",
"812.167 704.333 OFFCURVE",
"778.833 700.333 OFFCURVE",
"740.5 695 CURVE SMOOTH",
"663.833 684.333 OFFCURVE",
"613 663.167 OFFCURVE",
"557 630.5 CURVE SMOOTH",
"501 597.833 OFFCURVE",
"462.167 538.833 OFFCURVE",
"449.5 487.5 CURVE SMOOTH",
"436.692 435.593 OFFCURVE",
"435.193 398.915 OFFCURVE",
"456 356 CURVE SMOOTH",
"472.667 319.333 OFFCURVE",
"498.667 293.333 OFFCURVE",
"534 278 CURVE SMOOTH",
"552.667 270 OFFCURVE",
"571.333 266 OFFCURVE",
"590 266 CURVE SMOOTH",
"608.667 266 OFFCURVE",
"627.333 269.333 OFFCURVE",
"646 276 CURVE SMOOTH",
"684.667 290 OFFCURVE",
"715.333 317.667 OFFCURVE",
"738 359 CURVE SMOOTH",
"751.333 382.333 OFFCURVE",
"758 404 OFFCURVE",
"758 424 CURVE SMOOTH",
"758 444 OFFCURVE",
"754 462.667 OFFCURVE",
"746 480 CURVE SMOOTH",
"742.667 486 OFFCURVE",
"738.667 488.667 OFFCURVE",
"734 488 CURVE SMOOTH",
"719.86 485.172 OFFCURVE",
"737 471.839 OFFCURVE",
"737 448.5 CURVE SMOOTH",
"737 436.167 OFFCURVE",
"731.333 414.667 OFFCURVE",
"720 384 CURVE SMOOTH",
"696 318.667 OFFCURVE",
"655.667 286 OFFCURVE",
"599 286 CURVE SMOOTH",
"541.667 286 OFFCURVE",
"504 342 OFFCURVE",
"504 390 CURVE SMOOTH",
"504 414 OFFCURVE",
"507.333 436.667 OFFCURVE",
"514 458 CURVE SMOOTH",
"530 510 OFFCURVE",
"557 554 OFFCURVE",
"595 590 CURVE SMOOTH",
"627 619.333 OFFCURVE",
"680.333 642.833 OFFCURVE",
"719 655.5 CURVE SMOOTH",
"738.333 661.833 OFFCURVE",
"762.667 667.333 OFFCURVE",
"792 672 CURVE SMOOTH",
"850.667 681.333 OFFCURVE",
"880 683.667 OFFCURVE",
"944 689 CURVE SMOOTH",
"976 691.667 OFFCURVE",
"1000.667 694 OFFCURVE",
"1018 696 CURVE",
"963.333 586.667 OFFCURVE",
"914.667 478.667 OFFCURVE",
"872 372 CURVE",
"833 372 LINE SMOOTH",
"809 372 OFFCURVE",
"767 344.667 OFFCURVE",
"767 322 CURVE",
"770.365 301.81 OFFCURVE",
"810.43 339 OFFCURVE",
"858 339 CURVE",
"766 97 OFFCURVE",
"607 -49.333 OFFCURVE",
"381 -100 CURVE SMOOTH",
"357 -105.333 OFFCURVE",
"331.333 -108 OFFCURVE",
"304 -108 CURVE SMOOTH",
"241.333 -108 OFFCURVE",
"186.667 -96.333 OFFCURVE",
"140 -73 CURVE SMOOTH",
"62.667 -33.667 OFFCURVE",
"24 26 OFFCURVE",
"24 106 CURVE SMOOTH",
"24 157.333 OFFCURVE",
"38 202.333 OFFCURVE",
"66 241 CURVE SMOOTH",
"87.333 270.333 OFFCURVE",
"108 289.333 OFFCURVE",
"128 298 CURVE SMOOTH",
"144.388 304.414 OFFCURVE",
"139.18 317.752 OFFCURVE",
"126 312 CURVE",
"90 310.667 OFFCURVE",
"20 246.333 OFFCURVE",
"4 185 CURVE SMOOTH",
"-26.667 65 OFFCURVE",
"10.667 -38.5 OFFCURVE",
"88 -96.5 CURVE SMOOTH",
"165.333 -154.5 OFFCURVE",
"258.333 -171 OFFCURVE",
"329 -171 CURVE SMOOTH",
"413 -171 OFFCURVE",
"493 -150 OFFCURVE",
"569 -108 CURVE SMOOTH",
"625.667 -76 OFFCURVE",
"675.333 -36.333 OFFCURVE",
"718 11 CURVE SMOOTH",
"805.333 107 OFFCURVE",
"869.333 215.667 OFFCURVE",
"910 337 CURVE",
"1047 332 LINE"
);
},
{
closed = 1;
nodes = (
"1091.333 755.667 OFFCURVE",
"1108 772 OFFCURVE",
"1116 772 CURVE SMOOTH",
"1117.333 772 OFFCURVE",
"1118.333 771.667 OFFCURVE",
"1119 771 CURVE",
"1125.667 769.667 OFFCURVE",
"1129.333 765.333 OFFCURVE",
"1130 758 CURVE SMOOTH",
"1130.667 741.333 OFFCURVE",
"1109.333 729.667 OFFCURVE",
"1066 723 CURVE"
);
},
{
closed = 1;
nodes = (
"1114 349 LINE",
"1114 689 LINE",
"1071 689 LINE",
"1071 349 LINE"
);
}
);
width = 1734;
}
);
note = AE;
rightMetricsKey = E;
unicode = 00C6;
},
{
glyphname = B;
lastChange = "2020-12-20 20:29:43 +0000";
layers = (
{
layerId = "1691882E-B915-4755-A5B2-757873D945FF";
paths = (
{
closed = 1;
nodes = (
"251.333 -39 OFFCURVE",
"321 -14.667 OFFCURVE",
"387 34 CURVE",
"459.667 1.333 OFFCURVE",
"548.333 -21.667 OFFCURVE",
"653 -35 CURVE SMOOTH",
"669 -37 OFFCURVE",
"685.333 -38 OFFCURVE",
"702 -38 CURVE SMOOTH",
"747.333 -38 OFFCURVE",
"794 -30.333 OFFCURVE",
"842 -15 CURVE SMOOTH",
"906.667 5.667 OFFCURVE",
"958.333 39.333 OFFCURVE",
"997 86 CURVE SMOOTH",
"1024.333 118.667 OFFCURVE",
"1038 154 OFFCURVE",
"1038 192 CURVE SMOOTH",
"1038 248.667 OFFCURVE",
"1012 294 OFFCURVE",
"960 328 CURVE SMOOTH",
"923.333 352 OFFCURVE",
"883.667 370.667 OFFCURVE",
"841 384 CURVE",
"929 388 OFFCURVE",
"1027.333 421.333 OFFCURVE",
"1066 488 CURVE SMOOTH",
"1080.667 513.333 OFFCURVE",
"1088 538.5 OFFCURVE",
"1088 563.5 CURVE SMOOTH",
"1088 588.5 OFFCURVE",
"1077.333 613 OFFCURVE",
"1056 637 CURVE SMOOTH",
"1016 680.333 OFFCURVE",
"950.667 713.667 OFFCURVE",
"860 737 CURVE",
"872.257 767.642 OFFCURVE",
"923.034 784 OFFCURVE",
"902 784 CURVE",
"896.065 789.935 OFFCURVE",
"860.105 775.947 OFFCURVE",
"824 745 CURVE",
"755.333 759.667 OFFCURVE",
"687.833 767 OFFCURVE",
"621.5 767 CURVE SMOOTH",
"555.167 767 OFFCURVE",
"491.333 762.667 OFFCURVE",
"430 754 CURVE SMOOTH",
"303.333 736 OFFCURVE",
"207.333 690.333 OFFCURVE",
"142 617 CURVE SMOOTH",
"101.333 572.333 OFFCURVE",
"81 527 OFFCURVE",
"81 481 CURVE SMOOTH",
"81 413.667 OFFCURVE",
"116.333 367.667 OFFCURVE",
"187 343 CURVE",
"239 334 LINE",
"266.333 334 OFFCURVE",
"293.667 341.333 OFFCURVE",
"321 356 CURVE SMOOTH",
"365.667 381.333 OFFCURVE",
"391.667 418.333 OFFCURVE",
"399 467 CURVE SMOOTH",
"399 468 LINE SMOOTH",
"398.333 476.667 OFFCURVE",
"394.667 481.333 OFFCURVE",
"388 482 CURVE SMOOTH",
"374.159 482 OFFCURVE",
"380.186 465.372 OFFCURVE",
"367.5 440 CURVE SMOOTH",
"360.5 426 OFFCURVE",
"349.167 411.5 OFFCURVE",
"333.5 396.5 CURVE SMOOTH",
"292.14 356.9 OFFCURVE",
"242.111 354.369 OFFCURVE",
"197 367 CURVE SMOOTH",
"149.667 381.667 OFFCURVE",
"126 413.333 OFFCURVE",
"126 462 CURVE SMOOTH",
"126 498.667 OFFCURVE",
"143 537.333 OFFCURVE",
"177 578 CURVE SMOOTH",
"233 645.333 OFFCURVE",
"313 690 OFFCURVE",
"417 712 CURVE SMOOTH",
"493 728.667 OFFCURVE",
"562.667 737 OFFCURVE",
"626 737 CURVE SMOOTH",
"689.333 737 OFFCURVE",
"747.333 732.333 OFFCURVE",
"800 723 CURVE",
"743 658 LINE SMOOTH",
"667 574 OFFCURVE",
"587.833 439.5 OFFCURVE",
"540.5 341.5 CURVE SMOOTH",
"493.167 243.5 OFFCURVE",
"425.667 129.333 OFFCURVE",
"367 72 CURVE",
"322.855 94.073 OFFCURVE",
"264.387 130.452 OFFCURVE",
"209 150 CURVE SMOOTH",
"186.333 158 OFFCURVE",
"161 162 OFFCURVE",
"133 162 CURVE SMOOTH",
"90.333 162 OFFCURVE",
"57 148.667 OFFCURVE",
"33 122 CURVE SMOOTH",
"17.667 104.667 OFFCURVE",
"10 88.333 OFFCURVE",
"10 73 CURVE SMOOTH",
"10 57.667 OFFCURVE",
"12.333 44.333 OFFCURVE",
"17 33 CURVE SMOOTH",
"37.667 -15 OFFCURVE",
"91.333 -39 OFFCURVE",
"178 -39 CURVE SMOOTH"
);
},
{
closed = 1;
nodes = (
"122.333 -8 OFFCURVE",
"91.667 7 OFFCURVE",
"77 37 CURVE SMOOTH",
"58.07 74.859 OFFCURVE",
"79.703 131 OFFCURVE",
"135.5 131 CURVE SMOOTH",
"155.833 131 OFFCURVE",
"176.333 127.333 OFFCURVE",
"197 120 CURVE SMOOTH",
"217.667 112.667 OFFCURVE",
"267 90.333 OFFCURVE",
"345 53 CURVE",
"291 12.333 OFFCURVE",
"232.333 -8 OFFCURVE",
"169 -8 CURVE SMOOTH"
);
},
{
closed = 1;
nodes = (
"676.667 -10 OFFCURVE",
"664.667 -9.333 OFFCURVE",
"652 -8 CURVE SMOOTH",
"565.333 0.667 OFFCURVE",
"484.333 20.667 OFFCURVE",
"409 52 CURVE",
"447 88 LINE",
"496.333 141.333 OFFCURVE",
"566.667 246.5 OFFCURVE",
"658 403.5 CURVE SMOOTH",
"749.333 560.5 OFFCURVE",
"812.667 663.333 OFFCURVE",
"848 712 CURVE",
"965.333 684.667 OFFCURVE",
"1024 639.667 OFFCURVE",
"1024 577 CURVE SMOOTH",
"1024 547.667 OFFCURVE",
"1009 516.333 OFFCURVE",
"979 483 CURVE SMOOTH",
"941.667 441.667 OFFCURVE",
"881.333 413.167 OFFCURVE",
"844 412.5 CURVE SMOOTH",
"800.601 411.725 OFFCURVE",
"752.963 418 OFFCURVE",
"719 418 CURVE SMOOTH",
"699.667 417.333 OFFCURVE",
"690 410.667 OFFCURVE",
"690 398 CURVE",
"701.101 373.022 OFFCURVE",
"797.624 361.859 OFFCURVE",
"876 325 CURVE SMOOTH",
"934 297 OFFCURVE",
"963 255.667 OFFCURVE",
"963 201 CURVE SMOOTH",
"963 148.333 OFFCURVE",
"934.667 99.333 OFFCURVE",
"878 54 CURVE SMOOTH",
"826 11.333 OFFCURVE",
"762.667 -10 OFFCURVE",
"688 -10 CURVE SMOOTH"
);
}
);
width = 1041;
}
);
note = B;
unicode = 0042;
},
{
glyphname = C;
lastChange = "2020-12-23 21:55:21 +0000";
layers = (
{
layerId = "1691882E-B915-4755-A5B2-757873D945FF";
paths = (
{
closed = 1;
nodes = (
"233 488 CURVE SMOOTH",
"302 635 OFFCURVE",
"474 803 OFFCURVE",
"661 783 CURVE SMOOTH",
"735 775 OFFCURVE",
"809 712 OFFCURVE",
"813 651 CURVE SMOOTH",
"816 603 OFFCURVE",
"811 573 OFFCURVE",
"786 542 CURVE SMOOTH",
"737 484 OFFCURVE",
"638 447 OFFCURVE",
"552 427 CURVE SMOOTH",
"542 425 OFFCURVE",
"544 407 OFFCURVE",
"550 408 CURVE SMOOTH",
"642 424 OFFCURVE",
"739 454 OFFCURVE",
"798 509 CURVE SMOOTH",
"834 541 OFFCURVE",
"857 583 OFFCURVE",
"857 635 CURVE SMOOTH",
"857 733 OFFCURVE",
"778 797 OFFCURVE",
"665 814 CURVE SMOOTH",
"468 843 OFFCURVE",
"277 722 OFFCURVE",
"174 529 CURVE",
"101 375 OFFCURVE",
"94 256 OFFCURVE",
"125 139 CURVE SMOOTH",
"162 -4 OFFCURVE",
"269.072 -101 OFFCURVE",
"451 -101 CURVE SMOOTH",
"642 -101 OFFCURVE",
"767 12 OFFCURVE",
"852 183 CURVE SMOOTH",
"861 203 OFFCURVE",
"848 210 OFFCURVE",
"840 193 CURVE SMOOTH",
"749 7 OFFCURVE",
"636 -67 OFFCURVE",
"439 -67 CURVE SMOOTH",
"355 -67 OFFCURVE",
"224 0 OFFCURVE",
"183 141 CURVE SMOOTH",
"157 231 OFFCURVE",
"169 352 OFFCURVE"
);
}
);
width = 710;
}
);
note = C;
unicode = 0043;
},
{
glyphname = D;
lastChange = "2020-12-23 21:42:57 +0000";
layers = (
{
layerId = "1691882E-B915-4755-A5B2-757873D945FF";
paths = (
{
closed = 1;
nodes = (
"244.333 -39 OFFCURVE",
"313 -14 OFFCURVE",
"375 36 CURVE",
"455.667 -10.667 OFFCURVE",
"553.333 -34 OFFCURVE",
"668 -34 CURVE SMOOTH",
"725 -34 OFFCURVE",
"782 -24 OFFCURVE",
"840 -3 CURVE SMOOTH",
"967 42 OFFCURVE",
"1026 154 OFFCURVE",
"1026 293 CURVE SMOOTH",
"1026 363 OFFCURVE",
"1011 427.667 OFFCURVE",
"981 487 CURVE SMOOTH",
"943.667 561 OFFCURVE",
"889.333 621.667 OFFCURVE",
"818 669 CURVE",
"840.667 710.333 OFFCURVE",
"883.333 772 OFFCURVE",
"906 772 CURVE SMOOTH",
"918.98 772 OFFCURVE",
"915 786 OFFCURVE",
"900 786 CURVE SMOOTH",
"873.333 786 OFFCURVE",
"827 754 OFFCURVE",
"775 694 CURVE",
"691 738 OFFCURVE",
"602.667 760 OFFCURVE",
"510 760 CURVE SMOOTH",
"400 760 OFFCURVE",
"203 726 OFFCURVE",
"111 603 CURVE SMOOTH",
"30 496 OFFCURVE",
"82 367 OFFCURVE",
"180 343 CURVE SMOOTH",
"257 324 OFFCURVE",
"309 344 OFFCURVE",
"343 375 CURVE SMOOTH",
"372 403 OFFCURVE",
"387 439 OFFCURVE",
"391 467 CURVE SMOOTH",
"393 477 OFFCURVE",
"390 483 OFFCURVE",
"385 485 CURVE SMOOTH",
"381 486 OFFCURVE",
"375 484 OFFCURVE",
"371 476 CURVE SMOOTH",
"361 458 OFFCURVE",
"353.333 423.333 OFFCURVE",
"324 394 CURVE SMOOTH",
"284.373 356.096 OFFCURVE",
"235.502 354.749 OFFCURVE",
"190 367 CURVE SMOOTH",
"96 397 OFFCURVE",
"98 498 OFFCURVE",
"167 584 CURVE SMOOTH",
"254 693 OFFCURVE",
"398 730 OFFCURVE",
"509 730 CURVE SMOOTH",
"593 730 OFFCURVE",
"672.333 707.667 OFFCURVE",
"747 663 CURVE",
"677.667 585.667 OFFCURVE",
"611 453 OFFCURVE",
"556 355 CURVE SMOOTH",
"500 255 OFFCURVE",
"433.667 136 OFFCURVE",
"367 72 CURVE",
"196 183 OFFCURVE",
"5 199 OFFCURVE",
"3 72.5 CURVE SMOOTH",
"2 -2 OFFCURVE",
"67 -39 OFFCURVE",
"169 -39 CURVE SMOOTH"
);
},
{
closed = 1;
nodes = (
"118.667 -8 OFFCURVE",
"63 11 OFFCURVE",
"63 66 CURVE SMOOTH",
"63 145 OFFCURVE",
"172 141 OFFCURVE",
"341 52 CURVE",
"285.667 12 OFFCURVE",
"226 -8 OFFCURVE",
"162 -8 CURVE SMOOTH"
);
},
{
closed = 1;
nodes = (
"545.333 -6 OFFCURVE",
"466.333 14 OFFCURVE",
"399 54 CURVE",
"453 100 OFFCURVE",
"499 162 OFFCURVE",
"543 228 CURVE SMOOTH",
"636.76 367.818 OFFCURVE",
"729.707 531.235 OFFCURVE",
"794 631 CURVE",
"852.667 585 OFFCURVE",
"897 527.667 OFFCURVE",
"927 459 CURVE SMOOTH",
"951 405 OFFCURVE",
"963 347.333 OFFCURVE",
"963 286 CURVE SMOOTH",
"963 163 OFFCURVE",
"907 79 OFFCURVE",
"819 34 CURVE SMOOTH",
"767 7 OFFCURVE",
"705 -6 OFFCURVE",
"636 -6 CURVE SMOOTH"
);
}
);
width = 1014;
}
);
note = D;
unicode = 0044;
},
{
glyphname = Eth;
lastChange = "2020-12-20 20:29:43 +0000";
layers = (
{
layerId = "1691882E-B915-4755-A5B2-757873D945FF";
paths = (
{
closed = 1;
nodes = (
"244.333 -39 OFFCURVE",
"313 -14 OFFCURVE",
"375 36 CURVE",
"453 1.333 OFFCURVE",
"543.333 -22.333 OFFCURVE",
"646 -35 CURVE SMOOTH",
"662 -37 OFFCURVE",
"678 -38 OFFCURVE",
"694 -38 CURVE SMOOTH",
"736.667 -38 OFFCURVE",
"778.333 -30.667 OFFCURVE",
"819 -16 CURVE SMOOTH",
"874.333 4 OFFCURVE",
"920.667 36.667 OFFCURVE",
"958 82 CURVE SMOOTH",
"1003.333 136 OFFCURVE",
"1026 206.333 OFFCURVE",
"1026 293 CURVE SMOOTH",
"1026 363 OFFCURVE",
"1011 427.667 OFFCURVE",
"981 487 CURVE SMOOTH",
"943.667 561 OFFCURVE",
"889.333 621.667 OFFCURVE",
"818 669 CURVE",
"865 737 LINE",
"892.95 762.692 OFFCURVE",
"929.026 791.198 OFFCURVE",
"905 785 CURVE",
"892.333 785 OFFCURVE",
"871.667 775 OFFCURVE",
"843 755 CURVE SMOOTH",
"823.667 741.667 OFFCURVE",
"809.333 731 OFFCURVE",
"800 723 CURVE",
"775 694 LINE",
"691 738 OFFCURVE",
"602.667 760 OFFCURVE",
"510 760 CURVE SMOOTH",
"481.333 760 OFFCURVE",
"452.333 758 OFFCURVE",
"423 754 CURVE SMOOTH",
"273.667 732 OFFCURVE",
"169.667 681.667 OFFCURVE",
"111 603 CURVE SMOOTH",
"83.667 567 OFFCURVE",
"70 530.667 OFFCURVE",
"70 494 CURVE SMOOTH",
"70 476 OFFCURVE",
"73.333 458 OFFCURVE",
"80 440 CURVE SMOOTH",
"96 392.667 OFFCURVE",
"129.333 360.333 OFFCURVE",
"180 343 CURVE",
"232 334 LINE",
"259.333 334 OFFCURVE",
"286.667 341.333 OFFCURVE",
"314 356 CURVE SMOOTH",
"358.667 381.333 OFFCURVE",
"384.333 418.333 OFFCURVE",
"391 467 CURVE SMOOTH",
"393.667 484.333 OFFCURVE",
"372.333 488 OFFCURVE",
"371 476 CURVE SMOOTH",
"369 450.667 OFFCURVE",
"353.333 423.333 OFFCURVE",
"324 394 CURVE SMOOTH",
"284.373 356.096 OFFCURVE",
"235.502 354.749 OFFCURVE",
"190 367 CURVE SMOOTH",
"141.333 382.333 OFFCURVE",
"117 415.333 OFFCURVE",
"117 466 CURVE SMOOTH",
"117 503.333 OFFCURVE",
"133.667 542.667 OFFCURVE",
"167 584 CURVE SMOOTH",
"221 652 OFFCURVE",
"299.667 697 OFFCURVE",
"403 719 CURVE SMOOTH",
"439 726.333 OFFCURVE",
"474.333 730 OFFCURVE",
"509 730 CURVE SMOOTH",
"593 730 OFFCURVE",
"672.333 707.667 OFFCURVE",
"747 663 CURVE",
"721 633 OFFCURVE",
"694.667 598 OFFCURVE",
"668 558 CURVE SMOOTH",
"648 530 OFFCURVE",
"576.667 402 OFFCURVE",
"534 318 CURVE",
"503.333 318.667 OFFCURVE",
"469 319 OFFCURVE",
"431 319 CURVE SMOOTH",
"406.711 319 OFFCURVE",
"412.507 268.358 OFFCURVE",
"431 271 CURVE SMOOTH",
"513 280 LINE",
"460.333 184.667 OFFCURVE",
"411.667 115.333 OFFCURVE",
"367 72 CURVE",
"293 111.333 OFFCURVE",
"241.5 136.167 OFFCURVE",
"212.5 146.5 CURVE SMOOTH",
"183.5 156.833 OFFCURVE",
"154.667 162 OFFCURVE",
"126 162 CURVE SMOOTH",
"83.333 162 OFFCURVE",
"50 148.333 OFFCURVE",
"26 121 CURVE SMOOTH",
"10.667 103.667 OFFCURVE",
"3 87.5 OFFCURVE",
"3 72.5 CURVE SMOOTH",
"3 57.5 OFFCURVE",
"5.333 44.333 OFFCURVE",
"10 33 CURVE SMOOTH",
"30 -15 OFFCURVE",
"83 -39 OFFCURVE",
"169 -39 CURVE SMOOTH"
);
},
{
closed = 1;
nodes = (
"118.667 -8 OFFCURVE",
"90 6.333 OFFCURVE",
"76 35 CURVE SMOOTH",
"58.043 70.914 OFFCURVE",
"78.181 130 OFFCURVE",
"132.5 130 CURVE SMOOTH",
"152.167 130 OFFCURVE",
"172.333 126.333 OFFCURVE",
"193 119 CURVE SMOOTH",
"213.667 111.667 OFFCURVE",
"263 89.333 OFFCURVE",
"341 52 CURVE",
"285.667 12 OFFCURVE",
"226 -8 OFFCURVE",
"162 -8 CURVE SMOOTH"
);
},
{
closed = 1;
nodes = (
"667.667 -10 OFFCURVE",
"656.333 -9.333 OFFCURVE",
"645 -8 CURVE SMOOTH",
"553.667 0.667 OFFCURVE",
"471.667 21.333 OFFCURVE",
"399 54 CURVE",
"449 96.667 OFFCURVE",
"509.667 174 OFFCURVE",
"581 286 CURVE",
"611.667 287.333 OFFCURVE",
"636.333 288 OFFCURVE",
"655 288 CURVE",
"665 289.333 OFFCURVE",
"670.667 294 OFFCURVE",
"672 302 CURVE",
"669.333 310 OFFCURVE",
"662.333 314.333 OFFCURVE",
"651 315 CURVE SMOOTH",
"601 316 LINE",
"616.333 340.667 OFFCURVE",
"646.333 390.167 OFFCURVE",
"691 464.5 CURVE SMOOTH",
"735.667 538.833 OFFCURVE",
"770 594.333 OFFCURVE",
"794 631 CURVE",
"852.667 585 OFFCURVE",
"897 527.667 OFFCURVE",
"927 459 CURVE SMOOTH",
"951 405 OFFCURVE",
"963 347.333 OFFCURVE",
"963 286 CURVE SMOOTH",
"963 270 OFFCURVE",
"962 253.667 OFFCURVE",
"960 237 CURVE SMOOTH",
"952 165 OFFCURVE",
"918.333 104 OFFCURVE",
"859 54 CURVE SMOOTH",
"807.667 11.333 OFFCURVE",
"747.667 -10 OFFCURVE",
"679 -10 CURVE SMOOTH"
);
}
);
width = 1027;
}
);
note = Eth;
unicode = 00D0;
},
{
glyphname = E;
lastChange = "2020-12-23 21:29:48 +0000";
layers = (
{
layerId = "1691882E-B915-4755-A5B2-757873D945FF";
paths = (
{
closed = 1;
nodes = (
"268.869 -63.709 OFFCURVE",
"413.542 -65.208 OFFCURVE",
"565 -19 CURVE SMOOTH",
"722.333 29 OFFCURVE",
"838 120.333 OFFCURVE",
"838 195 CURVE SMOOTH",
"838 220.333 OFFCURVE",
"823 241 OFFCURVE",
"793 257 CURVE SMOOTH",
"778.333 265 OFFCURVE",
"747.333 268 OFFCURVE",
"750 256 CURVE SMOOTH",
"753 236 OFFCURVE",
"801 243 OFFCURVE",
"799 215 CURVE SMOOTH",
"797 183 OFFCURVE",
"771.667 145.667 OFFCURVE",
"717 103 CURVE SMOOTH",
"621 28.333 OFFCURVE",
"452 -33 OFFCURVE",
"340.5 -33 CURVE SMOOTH",
"196 -33 OFFCURVE",
"92 12 OFFCURVE",
"92 140 CURVE SMOOTH",
"92 205.333 OFFCURVE",
"121 262.667 OFFCURVE",
"179 312 CURVE SMOOTH",
"228.333 354.667 OFFCURVE",
"297 377 OFFCURVE",
"385 376 CURVE SMOOTH",
"492 375 LINE SMOOTH",
"521 375 OFFCURVE",
"535 382.667 OFFCURVE",
"535 398 CURVE SMOOTH",
"535 415.333 OFFCURVE",
"509.333 429.333 OFFCURVE",
"458 440 CURVE SMOOTH",
"394 455 OFFCURVE",
"322 478 OFFCURVE",
"322 548 CURVE SMOOTH",
"322 596.667 OFFCURVE",
"347.333 641.667 OFFCURVE",
"398 683 CURVE SMOOTH",
"463 736 OFFCURVE",
"608 785 OFFCURVE",
"682 783 CURVE SMOOTH",
"755 781 OFFCURVE",
"810 739 OFFCURVE",
"810 700 CURVE SMOOTH",
"810 636 OFFCURVE",
"740 586 OFFCURVE",
"688 571 CURVE SMOOTH",
"668 565 OFFCURVE",
"657 570 OFFCURVE",
"654 555 CURVE SMOOTH",
"653 551 OFFCURVE",
"657 549 OFFCURVE",
"665 549 CURVE SMOOTH",
"672 549 OFFCURVE",
"682 550 OFFCURVE",
"694 553 CURVE SMOOTH",
"791 574 OFFCURVE",
"870 637 OFFCURVE",
"870 697 CURVE SMOOTH",
"870 783 OFFCURVE",
"763 804 OFFCURVE",
"674 804 CURVE SMOOTH",
"584.667 804 OFFCURVE",
"451 776.5 OFFCURVE",
"339 690.5 CURVE SMOOTH",
"283 647.5 OFFCURVE",
"248 599 OFFCURVE",
"248 539 CURVE SMOOTH",
"248 489.667 OFFCURVE",
"301.333 444 OFFCURVE",
"368 420 CURVE",
"304 417.333 OFFCURVE",
"216.667 395 OFFCURVE",
"146 347 CURVE SMOOTH",
"78 301 OFFCURVE",
"19 220 OFFCURVE",
"21 142 CURVE SMOOTH",
"23 70 OFFCURVE",
"77 -4 OFFCURVE",
"177 -35 CURVE SMOOTH"
);
}
);
width = 815;
}
);
note = E;
unicode = 0045;
},
{
glyphname = G;
lastChange = "2020-12-23 21:49:24 +0000";
layers = (
{
layerId = "1691882E-B915-4755-A5B2-757873D945FF";
paths = (
{
closed = 1;
nodes = (
"141 -374 OFFCURVE",
"211 -355 OFFCURVE",
"281 -321 CURVE SMOOTH",
"378 -275 OFFCURVE",
"477 -201 OFFCURVE",
"538 -112 CURVE",
"650.667 -112 OFFCURVE",
"717 -118 OFFCURVE",
"763 -130 CURVE SMOOTH",
"782.333 -134.667 OFFCURVE",
"792 -133.333 OFFCURVE",
"792 -126 CURVE SMOOTH",
"792 -120 OFFCURVE",
"785 -115.333 OFFCURVE",
"771 -112 CURVE SMOOTH",
"705 -95.333 OFFCURVE",
"632 -86.667 OFFCURVE",
"552 -86 CURVE",
"632 46 OFFCURVE",
"675 140 OFFCURVE",
"688 244 CURVE SMOOTH",
"692 266 OFFCURVE",
"679 292 OFFCURVE",
"655 292 CURVE SMOOTH",
"624.333 292 OFFCURVE",
"610 252 OFFCURVE",
"569 199 CURVE SMOOTH",
"516 130 OFFCURVE",
"379 60 OFFCURVE",
"296.5 60 CURVE SMOOTH",
"174 60 OFFCURVE",
"111 130 OFFCURVE",
"111 276 CURVE SMOOTH",
"111 330.667 OFFCURVE",
"127 392.667 OFFCURVE",
"159 462 CURVE",
"228 416 OFFCURVE",
"316 393 OFFCURVE",
"424 393 CURVE SMOOTH",
"577 393 OFFCURVE",
"796 473 OFFCURVE",
"796 634.5 CURVE SMOOTH",
"796 733 OFFCURVE",
"717 797 OFFCURVE",
"604 814 CURVE SMOOTH",
"407 843 OFFCURVE",
"225 717 OFFCURVE",
"113 529 CURVE",
"55 597 OFFCURVE",
"36 687 OFFCURVE",
"106 781 CURVE SMOOTH",
"119.333 799.667 OFFCURVE",
"109 806.333 OFFCURVE",
"93 789 CURVE SMOOTH",
"13 700 OFFCURVE",
"5 593 OFFCURVE",
"97 499 CURVE",
"63 425 OFFCURVE",
"46 355.667 OFFCURVE",
"46 291 CURVE SMOOTH",
"46 149 OFFCURVE",
"119 23 OFFCURVE",
"274.5 23 CURVE SMOOTH",
"376 23 OFFCURVE",
"518 91 OFFCURVE",
"607 177 CURVE",
"584 80 OFFCURVE",
"551.333 -2.667 OFFCURVE",
"502 -86 CURVE",
"342 -88.667 OFFCURVE",
"218 -103 OFFCURVE",
"102 -155 CURVE SMOOTH",
"44 -181 OFFCURVE",
"-47 -234 OFFCURVE",
"-47 -294 CURVE SMOOTH",
"-47 -348 OFFCURVE",
"34 -374 OFFCURVE",
"88 -374 CURVE SMOOTH"
);
},
{
closed = 1;
nodes = (
"58 -343 OFFCURVE",
"4 -334 OFFCURVE",
"4 -301 CURVE SMOOTH",
"4 -276.333 OFFCURVE",
"31 -246.667 OFFCURVE",
"85 -212 CURVE SMOOTH",
"153.667 -168 OFFCURVE",
"226 -140.333 OFFCURVE",
"302 -129 CURVE SMOOTH",
"354.667 -120.333 OFFCURVE",
"416 -115 OFFCURVE",
"486 -113 CURVE",
"432 -190.333 OFFCURVE",
"359 -250 OFFCURVE",
"267 -292 CURVE SMOOTH",
"194.333 -326 OFFCURVE",
"134.333 -343 OFFCURVE",
"87 -343 CURVE SMOOTH"
);
},
{
closed = 1;
nodes = (
"359 419 OFFCURVE",
"234.667 440 OFFCURVE",
"172 488 CURVE",
"246 636 OFFCURVE",
"413 803 OFFCURVE",
"600 783 CURVE SMOOTH",
"674 775 OFFCURVE",
"752 712 OFFCURVE",
"752 651 CURVE SMOOTH",
"752 503 OFFCURVE",
"571 429 OFFCURVE",
"424 422 CURVE SMOOTH"
);
}
);
width = 699;
}
);
note = G;
unicode = 0047;
},
{
glyphname = I;
lastChange = "2020-12-23 22:12:03 +0000";
layers = (
{
layerId = "1691882E-B915-4755-A5B2-757873D945FF";
paths = (
{
closed = 1;
nodes = (
"326 47 OFFCURVE",
"326 -41 OFFCURVE",
"403 -41 CURVE SMOOTH",
"430 -41 OFFCURVE",
"458 -28 OFFCURVE",
"485 -2 CURVE SMOOTH",
"526 39 OFFCURVE",
"553 77 OFFCURVE",
"602 182 CURVE SMOOTH",
"613 206 OFFCURVE",
"598 212 OFFCURVE",
"587 189 CURVE SMOOTH",
"542 96 OFFCURVE",
"501 36 OFFCURVE",
"463 8 CURVE SMOOTH",
"444 -6 OFFCURVE",
"426 -7 OFFCURVE",
"410 -1 CURVE SMOOTH",
"384 9 OFFCURVE",
"381 39 OFFCURVE",
"389 96 CURVE SMOOTH",
"399 164 OFFCURVE",
"437 263 OFFCURVE",
"478 372 CURVE SMOOTH",
"529 508 OFFCURVE",
"591 639 OFFCURVE",
"634 702 CURVE",
"695 707 OFFCURVE",
"713 714 OFFCURVE",
"729 721 CURVE SMOOTH",
"767 741 OFFCURVE",
"774 788 OFFCURVE",
"730 796 CURVE SMOOTH",
"696 800 OFFCURVE",
"637 778 OFFCURVE",
"597 725 CURVE",
"510 722 OFFCURVE",
"412 710 OFFCURVE",
"320 686 CURVE SMOOTH",
"162 643 OFFCURVE",
"24 562 OFFCURVE",
"-3 426 CURVE SMOOTH",
"-19 348 OFFCURVE",
"51 292 OFFCURVE",
"99 285 CURVE SMOOTH",
"185 271 OFFCURVE",
"293 334 OFFCURVE",
"306 422 CURVE SMOOTH",
"308 441 OFFCURVE",
"307 459 OFFCURVE",
"300 477 CURVE SMOOTH",
"296 488 OFFCURVE",
"289 489 OFFCURVE",
"281 481 CURVE SMOOTH",
"279 479 OFFCURVE",
"277 474 OFFCURVE",
"278 472 CURVE SMOOTH",
"283 459 OFFCURVE",
"287 447 OFFCURVE",
"283 429 CURVE SMOOTH",
"270 373 OFFCURVE",
"206 296 OFFCURVE",
"120 308 CURVE SMOOTH",
"84 313 OFFCURVE",
"44 356 OFFCURVE",
"54 411 CURVE SMOOTH",
"83 572 OFFCURVE",
"226 632 OFFCURVE",
"338 664 CURVE SMOOTH",
"399 682 OFFCURVE",
"479 692 OFFCURVE",
"577 700 CURVE",
"520 617 OFFCURVE",
"453 455 OFFCURVE",
"421 372 CURVE SMOOTH",
"367 233 OFFCURVE",
"339 140 OFFCURVE",
"334 105 CURVE SMOOTH"
);
},
{
closed = 1;
nodes = (
"670 751 OFFCURVE",
"701 767 OFFCURVE",
"709 766 CURVE SMOOTH",
"716 765 OFFCURVE",
"721 761 OFFCURVE",
"721 753 CURVE SMOOTH",
"720 737 OFFCURVE",
"689 726 OFFCURVE",
"645 724 CURVE"
);
}
);
width = 600;
}
);
leftMetricsKey = L;
note = I;
unicode = 0049;
},
{
glyphname = K;
lastChange = "2020-12-23 22:13:18 +0000";
layers = (
{
components = (
{
name = _part.curvy.left;
transform = "{1, 0, 0, 1, -1401, 0}";
}
);
layerId = "1691882E-B915-4755-A5B2-757873D945FF";
paths = (
{
closed = 1;
nodes = (
"1364.5 -113.167 OFFCURVE",
"1396 -80.667 OFFCURVE",
"1414 -44 CURVE SMOOTH",
"1421.333 -29.333 OFFCURVE",
"1422 -22 OFFCURVE",
"1416 -22 CURVE SMOOTH",
"1410 -22 OFFCURVE",
"1405 -26.667 OFFCURVE",
"1401 -36 CURVE SMOOTH",
"1366.333 -104 OFFCURVE",
"1279.333 -141 OFFCURVE",
"1194 -141 CURVE SMOOTH",
"1120 -141 OFFCURVE",
"1060.333 -89 OFFCURVE",
"1015 15 CURVE SMOOTH",
"984.333 85.667 OFFCURVE",
"957.667 185.667 OFFCURVE",
"955 215 CURVE SMOOTH",
"953.748 226.836 OFFCURVE",
"953.479 239.146 OFFCURVE",
"953.426 246.644 CURVE",
"1141.497 310.217 OFFCURVE",
"1470.115 564.19 OFFCURVE",
"1622 816 CURVE SMOOTH",
"1634.942 838.103 OFFCURVE",
"1623.993 852.77 OFFCURVE",
"1619 848 CURVE",
"1613 848 OFFCURVE",
"1605.667 841.667 OFFCURVE",
"1597 829 CURVE SMOOTH",
"1499.667 681 OFFCURVE",
"1333.5 524.167 OFFCURVE",
"1195.5 431.5 CURVE SMOOTH",
"1068.645 346.317 OFFCURVE",
"953.04 280 OFFCURVE",
"900 280 CURVE SMOOTH",
"897 280 LINE",
"875.264 271.849 OFFCURVE",
"889.279 207.087 OFFCURVE",
"899 152 CURVE SMOOTH",
"924.333 22.667 OFFCURVE",
"973.667 -72 OFFCURVE",
"1047 -132 CURVE SMOOTH",
"1127.672 -198.587 OFFCURVE",
"1213.736 -201.615 OFFCURVE",
"1319.5 -141.5 CURVE SMOOTH"
);
}
);
width = 1144;
}
);
note = K;
unicode = 004B;
},
{
glyphname = L;
lastChange = "2020-12-23 22:20:46 +0000";
layers = (
{
layerId = "1691882E-B915-4755-A5B2-757873D945FF";
paths = (
{
closed = 1;
nodes = (
"805 -316 OFFCURVE",
"844 -283 OFFCURVE",
"861 -221 CURVE SMOOTH",
"866 -203 OFFCURVE",
"861 -182 OFFCURVE",
"854 -156 CURVE SMOOTH",
"841 -108 OFFCURVE",
"804 -66 OFFCURVE",
"760 -31 CURVE SMOOTH",
"673 38 OFFCURVE",
"564 85.333 OFFCURVE",
"432 118 CURVE",
"453 152 LINE SMOOTH",
"473 184 OFFCURVE",
"500.333 242 OFFCURVE",
"541 324 CURVE",
"682.333 348 OFFCURVE",
"827.167 451.333 OFFCURVE",
"902.5 578 CURVE SMOOTH",
"940 642 OFFCURVE",
"964 711 OFFCURVE",
"958 783 CURVE SMOOTH",
"953.783 842.044 OFFCURVE",
"873.97 863.8 OFFCURVE",
"808 837 CURVE SMOOTH",
"726.667 802.333 OFFCURVE",
"658 710 OFFCURVE",
"598 559 CURVE SMOOTH",
"513 345 LINE",
"461.046 338.765 OFFCURVE",
"378 343 OFFCURVE",
"327 391.5 CURVE SMOOTH",
"291 425 OFFCURVE",
"286 472 OFFCURVE",
"292 513 CURVE SMOOTH",
"301 571 OFFCURVE",
"340 625 OFFCURVE",
"385 654 CURVE SMOOTH",
"409.667 670 OFFCURVE",
"436.333 679.667 OFFCURVE",
"465 683 CURVE",
"488.612 646.601 OFFCURVE",
"536.653 713.519 OFFCURVE",
"463 700 CURVE SMOOTH",
"350 674 OFFCURVE",
"243 610 OFFCURVE",
"243 504 CURVE SMOOTH",
"243 464.667 OFFCURVE",
"257 429.333 OFFCURVE",
"285 398 CURVE SMOOTH",
"327.667 350 OFFCURVE",
"404 320 OFFCURVE",
"488 320 CURVE SMOOTH",
"499 320 LINE",
"459 238 OFFCURVE",
"424 173.667 OFFCURVE",
"394 127 CURVE",
"317 142 OFFCURVE",
"166 142 OFFCURVE",
"70 85 CURVE SMOOTH",
"20 56.333 OFFCURVE",
"-5 23 OFFCURVE",
"-5 -15 CURVE SMOOTH",
"-5 -86 OFFCURVE",
"66 -117 OFFCURVE",
"127.5 -117 CURVE SMOOTH",
"227 -117 OFFCURVE",
"334 -24 OFFCURVE",
"403 73 CURVE",
"490 58 OFFCURVE",
"657 -4 OFFCURVE",
"742 -73 CURVE SMOOTH",
"804 -123 OFFCURVE",
"826 -137 OFFCURVE",
"826 -185 CURVE SMOOTH",
"826 -212 OFFCURVE",
"796 -274 OFFCURVE",
"800 -294 CURVE SMOOTH"
);
},
{
closed = 1;
nodes = (
"61.667 -88 OFFCURVE",
"16 -63.667 OFFCURVE",
"16 -29 CURVE SMOOTH",
"16 26 OFFCURVE",
"100 61 OFFCURVE",
"155 75 CURVE SMOOTH",
"230 96 OFFCURVE",
"301 90 OFFCURVE",
"363 79 CURVE",
"296 -16 OFFCURVE",
"203 -88 OFFCURVE",
"107 -88 CURVE SMOOTH"
);
},
{
closed = 1;
nodes = (
"609.667 464.333 OFFCURVE",
"682 613.333 OFFCURVE",
"758 708 CURVE SMOOTH",
"806.667 767.333 OFFCURVE",
"848 797 OFFCURVE",
"882 797 CURVE SMOOTH",
"905.333 797 OFFCURVE",
"917 784.333 OFFCURVE",
"917 759 CURVE SMOOTH",
"917 580.333 OFFCURVE",
"740.333 392.333 OFFCURVE",
"555 351 CURVE"
);
}
);
width = 712;
}
);
note = L;
unicode = 004C;
},
{
glyphname = M;
lastChange = "2020-12-23 22:27:20 +0000";
layers = (
{
layerId = "1691882E-B915-4755-A5B2-757873D945FF";
paths = (
{
closed = 1;
nodes = (
"1383 -114 OFFCURVE",
"1396 -110 OFFCURVE",
"1396 -102 CURVE SMOOTH",
"1396 -99 OFFCURVE",
"1390 -98 OFFCURVE",
"1365 -98 CURVE SMOOTH",
"1276 -98 OFFCURVE",
"1261 -38 OFFCURVE",
"1261 42 CURVE SMOOTH",
"1261 73 OFFCURVE",
"1275 132 OFFCURVE",
"1302 217 CURVE SMOOTH",
"1353 383 OFFCURVE",
"1454 517 OFFCURVE",
"1454 609 CURVE SMOOTH",
"1454 641 OFFCURVE",
"1443 677 OFFCURVE",
"1401 677 CURVE SMOOTH",
"1262 677 OFFCURVE",
"1026 331 OFFCURVE",
"950 212 CURVE",
"1054 420 OFFCURVE",
"1049 542 OFFCURVE",
"1049 609 CURVE SMOOTH",
"1049 668 OFFCURVE",
"1022 696 OFFCURVE",
"985 702 CURVE SMOOTH",
"935 710 OFFCURVE",
"884 700 OFFCURVE",
"822 623 CURVE SMOOTH",
"763 550 OFFCURVE",
"708 471 OFFCURVE",
"659 381 CURVE SMOOTH",
"651 366 OFFCURVE",
"645 359 OFFCURVE",
"642 360 CURVE",
"637 362 OFFCURVE",
"637 371 OFFCURVE",
"646 392 CURVE SMOOTH",
"676 461 OFFCURVE",
"700 556 OFFCURVE",
"700 628 CURVE SMOOTH",
"700 665 OFFCURVE",
"694 696 OFFCURVE",
"683 722 CURVE SMOOTH",
"658 782 OFFCURVE",
"608 812 OFFCURVE",
"533 812 CURVE SMOOTH",
"310 812 OFFCURVE",
"18 556 OFFCURVE",
"18 333 CURVE SMOOTH",
"18 201 OFFCURVE",
"106 116 OFFCURVE",
"210 116 CURVE SMOOTH",
"345 116 OFFCURVE",
"464 247 OFFCURVE",
"464 346 CURVE SMOOTH",
"464 402 OFFCURVE",
"440 449 OFFCURVE",
"376 449 CURVE SMOOTH",
"362 449 OFFCURVE",
"316 446 OFFCURVE",
"326 432 CURVE SMOOTH",
"332 422 OFFCURVE",
"358 427 OFFCURVE",
"366 427 CURVE SMOOTH",
"409 427 OFFCURVE",
"431 404 OFFCURVE",
"431 358 CURVE SMOOTH",
"431 265 OFFCURVE",
"328 138 OFFCURVE",
"219 138 CURVE SMOOTH",
"133 138 OFFCURVE",
"72 211 OFFCURVE",
"72 323 CURVE SMOOTH",
"72 508 OFFCURVE",
"341 787 OFFCURVE",
"522 791 CURVE SMOOTH",
"621 793 OFFCURVE",
"644 744 OFFCURVE",
"644 649 CURVE SMOOTH",
"644 569 OFFCURVE",
"610 442 OFFCURVE",
"542 267 CURVE SMOOTH",
"489 129 OFFCURVE",
"440 26 OFFCURVE",
"396 -42 CURVE",
"395 -49 LINE",
"396 -60 OFFCURVE",
"405 -65 OFFCURVE",
"422 -65 CURVE SMOOTH",
"451 -65 OFFCURVE",
"469 -55 OFFCURVE",
"478 -36 CURVE SMOOTH",
"482 -25 OFFCURVE",
"487 -18 OFFCURVE",
"493 -4 CURVE SMOOTH",
"536.5 93.5 LINE SMOOTH",
"593 221 OFFCURVE",
"621 283 OFFCURVE",
"700 411 CURVE SMOOTH",
"739 474 OFFCURVE",
"786 539 OFFCURVE",
"839 605 CURVE SMOOTH",
"886 663 OFFCURVE",
"927 680 OFFCURVE",
"966 673 CURVE SMOOTH",
"985 669 OFFCURVE",
"994 642 OFFCURVE",
"993 596 CURVE SMOOTH",
"991 527 OFFCURVE",
"967 418 OFFCURVE",
"922 291 CURVE SMOOTH",
"869 139 OFFCURVE",
"809 37 OFFCURVE",
"805 31 CURVE SMOOTH",
"784 -6 OFFCURVE",
"784 -10 OFFCURVE",
"786 -15 CURVE SMOOTH",
"790 -28 OFFCURVE",
"800 -34 OFFCURVE",
"818 -34 CURVE SMOOTH",
"843 -34 OFFCURVE",
"864 -16 OFFCURVE",
"879 20 CURVE SMOOTH",
"914 103 OFFCURVE",
"1080 366 OFFCURVE",
"1146 446 CURVE SMOOTH",
"1183 491 OFFCURVE",
"1209 520 OFFCURVE",
"1237 548 CURVE SMOOTH",
"1292 601 OFFCURVE",
"1332 628 OFFCURVE",
"1358 628 CURVE SMOOTH",
"1377 628 OFFCURVE",
"1386 617 OFFCURVE",
"1386 595 CURVE SMOOTH",
"1386 537 OFFCURVE",
"1279 322 OFFCURVE",
"1258 272 CURVE SMOOTH",
"1238 224 OFFCURVE",
"1200 119 OFFCURVE",
"1200 48 CURVE SMOOTH",
"1200 -49 OFFCURVE",
"1252 -114 OFFCURVE",
"1358 -114 CURVE SMOOTH"
);
}
);
width = 1329;
}
);
note = M;
unicode = 004D;
},
{
glyphname = N;
lastChange = "2020-12-23 22:30:37 +0000";
layers = (
{
layerId = "1691882E-B915-4755-A5B2-757873D945FF";
paths = (
{
closed = 1;
nodes = (
"1062 -148 OFFCURVE",
"1062 -112 CURVE SMOOTH",
"1062 -78.63 OFFCURVE",
"1022.063 -121 OFFCURVE",
"969 -121 CURVE SMOOTH",
"920 -121 OFFCURVE",
"908 -66 OFFCURVE",
"908 -28 CURVE SMOOTH",
"908 70.667 OFFCURVE",
"974.833 197.333 OFFCURVE",
"1059.5 352 CURVE SMOOTH",
"1144.167 506.667 OFFCURVE",
"1189 599.667 OFFCURVE",
"1189 669 CURVE SMOOTH",
"1189 711 OFFCURVE",
"1172 739 OFFCURVE",
"1144 753 CURVE SMOOTH",
"1106 772 OFFCURVE",
"1047 767 OFFCURVE",
"983 736 CURVE SMOOTH",
"913 704 OFFCURVE",
"834 634.667 OFFCURVE",
"746 528 CURVE SMOOTH",
"698.667 470.667 OFFCURVE",
"653 411 OFFCURVE",
"614 348 CURVE SMOOTH",
"583 298 LINE",
"581.667 298.667 OFFCURVE",
"595 329 OFFCURVE",
"623 390 CURVE SMOOTH",
"675 509 OFFCURVE",
"695 571 OFFCURVE",
"695 631 CURVE SMOOTH",
"695 714 OFFCURVE",
"649 778 OFFCURVE",
"570 789 CURVE SMOOTH",
"426 810 OFFCURVE",
"266 737 OFFCURVE",
"137 610 CURVE SMOOTH",
"46 522 OFFCURVE",
"-19 390 OFFCURVE",
"1 277 CURVE SMOOTH",
"19 178 OFFCURVE",
"93.167 122 OFFCURVE",
"172.5 122 CURVE SMOOTH",
"289 122 OFFCURVE",
"379 184 OFFCURVE",
"430 270 CURVE SMOOTH",
"451.333 306.667 OFFCURVE",
"462 339.333 OFFCURVE",
"462 368 CURVE SMOOTH",
"462 406 OFFCURVE",
"443 448 OFFCURVE",
"388.5 448 CURVE SMOOTH",
"354.833 448 OFFCURVE",
"336 443 OFFCURVE",
"329 436 CURVE SMOOTH",
"318.098 425.098 OFFCURVE",
"335.583 427 OFFCURVE",
"357 427 CURVE SMOOTH",
"401.667 427 OFFCURVE",
"424 405.667 OFFCURVE",
"424 363 CURVE SMOOTH",
"424 318.333 OFFCURVE",
"403.333 273 OFFCURVE",
"362 227 CURVE SMOOTH",
"310.667 169.667 OFFCURVE",
"250.667 141 OFFCURVE",
"182 141 CURVE SMOOTH",
"96 145 OFFCURVE",
"57 212 OFFCURVE",
"57 294 CURVE SMOOTH",
"57 340 OFFCURVE",
"69.333 390.333 OFFCURVE",
"94 445 CURVE SMOOTH",
"139.333 545.667 OFFCURVE",
"212 627 OFFCURVE",
"313 690 CURVE SMOOTH",
"382 733 OFFCURVE",
"471 772 OFFCURVE",
"556 761 CURVE SMOOTH",
"646 747 OFFCURVE",
"645 637 OFFCURVE",
"627 554 CURVE SMOOTH",
"584.333 364.667 OFFCURVE",
"438 52.667 OFFCURVE",
"374 -42 CURVE",
"373.333 -44.667 OFFCURVE",
"373.333 -47 OFFCURVE",
"374 -49 CURVE SMOOTH",
"375.333 -59.667 OFFCURVE",
"384.333 -65 OFFCURVE",
"401 -65 CURVE SMOOTH",
"429 -65 OFFCURVE",
"448 -55 OFFCURVE",
"457 -36 CURVE SMOOTH",
"498 52 LINE SMOOTH",
"569 205 OFFCURVE",
"633 323.667 OFFCURVE",
"689 407 CURVE SMOOTH",
"783.667 548.333 OFFCURVE",
"883.333 644 OFFCURVE",
"988 694 CURVE SMOOTH",
"1020 711 OFFCURVE",
"1076 728 OFFCURVE",
"1101 705 CURVE SMOOTH",
"1113 693 OFFCURVE",
"1114 673 OFFCURVE",
"1110 657 CURVE SMOOTH",
"1083.36 482.358 OFFCURVE",
"924.617 259.775 OFFCURVE",
"869.5 96 CURVE SMOOTH",
"858 61 OFFCURVE",
"852 27 OFFCURVE",
"852 -7 CURVE SMOOTH",
"852 -80 OFFCURVE",
"869 -129 OFFCURVE",
"949 -144 CURVE SMOOTH",
"978 -151 OFFCURVE"
);
}
);
width = 1039;
}
);
note = N;
unicode = 004E;
},
{
glyphname = Ntilde;
lastChange = "2020-12-20 20:29:43 +0000";
layers = (
{
layerId = "1691882E-B915-4755-A5B2-757873D945FF";
paths = (
{
closed = 1;
nodes = (
"1031 -174 OFFCURVE",
"1065 -157.333 OFFCURVE",
"1065 -140 CURVE SMOOTH",
"1065 -106.63 OFFCURVE",
"1025.063 -149 OFFCURVE",
"972 -149 CURVE SMOOTH",
"945.333 -149 OFFCURVE",
"927.333 -133.667 OFFCURVE",
"918 -103 CURVE SMOOTH",
"913.333 -89 OFFCURVE",
"911 -73.333 OFFCURVE",
"911 -56 CURVE SMOOTH",
"911 42.667 OFFCURVE",
"977.833 169.333 OFFCURVE",
"1062.5 324 CURVE SMOOTH",
"1147.167 478.667 OFFCURVE",
"1192 571.667 OFFCURVE",
"1192 641 CURVE SMOOTH",
"1192 738.482 OFFCURVE",
"1098.248 761.27 OFFCURVE",
"986 708 CURVE SMOOTH",
"916 676 OFFCURVE",
"837 606.667 OFFCURVE",
"749 500 CURVE SMOOTH",
"701.667 443.333 OFFCURVE",
"657.667 383.333 OFFCURVE",
"617 320 CURVE SMOOTH",
"586 270 LINE",
"584.667 270.667 OFFCURVE",
"598 301.333 OFFCURVE",
"626 362 CURVE SMOOTH",
"655.5 429 LINE SMOOTH",
"662.5 445 OFFCURVE",
"667.333 456.833 OFFCURVE",
"670 464.5 CURVE SMOOTH",
"686 512.5 LINE SMOOTH",
"694 536.833 OFFCURVE",
"698 567 OFFCURVE",
"698 603 CURVE SMOOTH",
"698 643 OFFCURVE",
"688.667 676 OFFCURVE",
"670 702 CURVE SMOOTH",
"646.667 735.333 OFFCURVE",
"614.333 755 OFFCURVE",
"573 761 CURVE SMOOTH",
"557.667 763 OFFCURVE",
"539 764 OFFCURVE",
"517 764 CURVE SMOOTH",
"495 764 OFFCURVE",
"469.333 761 OFFCURVE",
"440 755 CURVE SMOOTH",
"334.667 733 OFFCURVE",
"234.667 675.333 OFFCURVE",
"140 582 CURVE SMOOTH",
"40 484.667 OFFCURVE",
"1 370 OFFCURVE",
"1 290 CURVE SMOOTH",
"1 275.333 OFFCURVE",
"2 261.667 OFFCURVE",
"4 249 CURVE SMOOTH",
"24 150.333 OFFCURVE",
"96.167 94 OFFCURVE",
"175.5 94 CURVE SMOOTH",
"215.167 94 OFFCURVE",
"251.333 100.667 OFFCURVE",
"284 114 CURVE SMOOTH",
"347.333 139.333 OFFCURVE",
"397 182 OFFCURVE",
"433 242 CURVE SMOOTH",
"454.333 278.667 OFFCURVE",
"465 311.333 OFFCURVE",
"465 340 CURVE SMOOTH",
"465 352.667 OFFCURVE",
"462.667 364.667 OFFCURVE",
"458 376 CURVE SMOOTH",
"447.333 405.333 OFFCURVE",
"425.167 420 OFFCURVE",
"391.5 420 CURVE SMOOTH",
"357.833 420 OFFCURVE",
"338 416 OFFCURVE",
"332 408 CURVE",
"321.098 397.098 OFFCURVE",
"338.583 399 OFFCURVE",
"360 399 CURVE SMOOTH",
"404.667 399 OFFCURVE",
"427 377.667 OFFCURVE",
"427 335 CURVE SMOOTH",
"427 290.333 OFFCURVE",
"406.333 245 OFFCURVE",
"365 199 CURVE SMOOTH",
"313.667 141.667 OFFCURVE",
"253.667 113 OFFCURVE",
"185 113 CURVE SMOOTH",
"129.667 115.667 OFFCURVE",
"91 144.667 OFFCURVE",
"69 200 CURVE",
"63 220.667 OFFCURVE",
"60 242.667 OFFCURVE",
"60 266 CURVE SMOOTH",
"60 312 OFFCURVE",
"72.333 362.333 OFFCURVE",
"97 417 CURVE SMOOTH",
"142.333 517.667 OFFCURVE",
"215.333 599.333 OFFCURVE",
"316 662 CURVE SMOOTH",
"405.333 718 OFFCURVE",
"481 735 OFFCURVE",
"517 735 CURVE SMOOTH",
"535 735 OFFCURVE",
"549 734.333 OFFCURVE",
"559 733 CURVE SMOOTH",
"592.333 727.667 OFFCURVE",
"616 707.333 OFFCURVE",
"630 672 CURVE SMOOTH",
"636.667 654.667 OFFCURVE",
"640 633.833 OFFCURVE",
"640 609.5 CURVE SMOOTH",
"640 585.167 OFFCURVE",
"636.667 557.333 OFFCURVE",
"630 526 CURVE SMOOTH",
"587.333 336.667 OFFCURVE",
"441 24.667 OFFCURVE",
"377 -70 CURVE",
"376.333 -72.667 OFFCURVE",
"376.333 -75 OFFCURVE",
"377 -77 CURVE SMOOTH",
"378.333 -87.667 OFFCURVE",
"387.333 -93 OFFCURVE",
"404 -93 CURVE SMOOTH",
"432 -93 OFFCURVE",
"450.667 -83.333 OFFCURVE",
"460 -64 CURVE SMOOTH",
"501 24 LINE SMOOTH",
"572.333 177.333 OFFCURVE",
"636 295.667 OFFCURVE",
"692 379 CURVE SMOOTH",
"786.667 520.333 OFFCURVE",
"886.333 616 OFFCURVE",
"991 666 CURVE SMOOTH",
"1019 680.667 OFFCURVE",
"1044 688 OFFCURVE",
"1066 688 CURVE SMOOTH",
"1098.667 688 OFFCURVE",
"1115 674 OFFCURVE",
"1115 646 CURVE SMOOTH",
"1115 640.667 OFFCURVE",
"1114.333 635 OFFCURVE",
"1113 629 CURVE SMOOTH",
"1086.36 454.358 OFFCURVE",
"927.617 231.775 OFFCURVE",
"872.5 68 CURVE SMOOTH",
"860.833 33.333 OFFCURVE",
"855 -1 OFFCURVE",
"855 -35 CURVE SMOOTH",
"855 -127.667 OFFCURVE",
"908.333 -174 OFFCURVE",
"1015 -174 CURVE SMOOTH"
);
},
{
closed = 1;
nodes = (
"1143.333 779 OFFCURVE",
"1169 801.333 OFFCURVE",
"1169 846 CURVE SMOOTH",
"1169 848.667 OFFCURVE",
"1166.5 850 OFFCURVE",
"1161.5 850 CURVE SMOOTH",
"1156.5 850 OFFCURVE",
"1153.333 849 OFFCURVE",
"1152 847 CURVE SMOOTH",
"1142.667 827.667 OFFCURVE",
"1130.5 818 OFFCURVE",
"1115.5 818 CURVE SMOOTH",
"1100.5 818 OFFCURVE",
"1080 823.333 OFFCURVE",
"1054 834 CURVE SMOOTH",
"1030.667 843.333 OFFCURVE",
"1013.333 848 OFFCURVE",
"1002 848 CURVE SMOOTH",
"974 848 OFFCURVE",
"948.333 827.333 OFFCURVE",
"925 786 CURVE",
"928 783 LINE",
"937.333 779.667 OFFCURVE",
"942.667 780 OFFCURVE",
"944 784 CURVE",
"953.333 802 OFFCURVE",
"965.167 811 OFFCURVE",
"979.5 811 CURVE SMOOTH",
"993.833 811 OFFCURVE",
"1013.333 805.333 OFFCURVE",
"1038 794 CURVE SMOOTH",
"1061.333 784 OFFCURVE",
"1079.333 779 OFFCURVE",
"1092 779 CURVE SMOOTH"
);
}
);
width = 1039;
}
);
note = Ntilde;
unicode = 00D1;
},
{
glyphname = O;
lastChange = "2020-12-23 22:32:55 +0000";
layers = (
{
layerId = "1691882E-B915-4755-A5B2-757873D945FF";
paths = (
{
closed = 1;
nodes = (
"419.333 -63 OFFCURVE",
"520.667 -11.333 OFFCURVE",
"614 92 CURVE SMOOTH",
"751.596 240.604 OFFCURVE",
"796.281 416.631 OFFCURVE",
"756 572 CURVE SMOOTH",
"710 762 OFFCURVE",
"507 806 OFFCURVE",
"312 776 CURVE SMOOTH",
"226 761 OFFCURVE",
"161 721 OFFCURVE",
"118 656 CURVE SMOOTH",
"69 582 OFFCURVE",
"75 511 OFFCURVE",
"107 447 CURVE SMOOTH",
"120.333 421.667 OFFCURVE",
"136.333 430.333 OFFCURVE",
"131 453 CURVE SMOOTH",
"115 518 OFFCURVE",
"113 590 OFFCURVE",
"152 655 CURVE SMOOTH",
"185 711 OFFCURVE",
"239 744 OFFCURVE",
"316 754 CURVE SMOOTH",
"447 773 OFFCURVE",
"583 739 OFFCURVE",
"662 621 CURVE SMOOTH",
"757 480 OFFCURVE",
"723 285 OFFCURVE",
"614 142 CURVE SMOOTH",
"545 52 OFFCURVE",
"431 -43 OFFCURVE",
"304 -43 CURVE SMOOTH",
"272 -43 OFFCURVE",
"243 -32 OFFCURVE",
"216 -10 CURVE SMOOTH",
"139 55 OFFCURVE",
"143 175 OFFCURVE",
"170 266 CURVE SMOOTH",
"210 406 OFFCURVE",
"291.333 522 OFFCURVE",
"390 590 CURVE SMOOTH",
"427.333 615.333 OFFCURVE",
"461 625 OFFCURVE",
"491 628 CURVE SMOOTH",
"519 631 OFFCURVE",
"555 623 OFFCURVE",
"529 638 CURVE SMOOTH",
"507 650.667 OFFCURVE",
"484.333 657 OFFCURVE",
"461 657 CURVE SMOOTH",
"399 657 OFFCURVE",
"334 628 OFFCURVE",
"283 580 CURVE SMOOTH",
"195.197 498.782 OFFCURVE",
"137.211 404.675 OFFCURVE",
"109 294 CURVE SMOOTH",
"93 231 OFFCURVE",
"87 149 OFFCURVE",
"120 64 CURVE SMOOTH",
"149.333 -9.333 OFFCURVE",
"216.667 -63 OFFCURVE",
"310 -63 CURVE SMOOTH"
);
}
);
width = 752;
}
);
note = O;
unicode = 004F;
},
{
glyphname = Oslash;
lastChange = "2020-12-20 20:29:43 +0000";
layers = (
{
layerId = "1691882E-B915-4755-A5B2-757873D945FF";
paths = (
{
closed = 1;
nodes = (
"219 -43 LINE",
"231 -48 LINE",
"259.667 -56.667 OFFCURVE",
"287.167 -61 OFFCURVE",
"313.5 -61 CURVE SMOOTH",
"339.833 -61 OFFCURVE",
"365.333 -57.667 OFFCURVE",
"390 -51 CURVE SMOOTH",
"622.711 13.806 OFFCURVE",
"742.618 251.512 OFFCURVE",
"755 397 CURVE",
"815 435 OFFCURVE",
"864.667 485 OFFCURVE",
"904 547 CURVE",
"911.651 581.281 OFFCURVE",
"884.208 577.971 OFFCURVE",
"889 558 CURVE",
"869 518 OFFCURVE",
"825.667 476 OFFCURVE",
"759 432 CURVE",
"759 451 LINE SMOOTH",
"759 562.333 OFFCURVE",
"720 647 OFFCURVE",
"642 705 CURVE",
"693 795 LINE",
"659 811 LINE",
"611 726 LINE",
"554.333 758.667 OFFCURVE",
"486.333 775 OFFCURVE",
"407 775 CURVE SMOOTH",
"327.667 775 OFFCURVE",
"250 751.333 OFFCURVE",
"174 704 CURVE SMOOTH",
"91.333 652 OFFCURVE",
"49 567.333 OFFCURVE",
"49 486 CURVE SMOOTH",
"49 476.667 OFFCURVE",
"49.667 467 OFFCURVE",
"51 457 CURVE SMOOTH",
"55.667 404.333 OFFCURVE",
"81.333 362.333 OFFCURVE",
"128 331 CURVE",
"108.667 277.667 OFFCURVE",
"99 227.333 OFFCURVE",
"99 180 CURVE SMOOTH",
"99 158.667 OFFCURVE",
"100.667 138 OFFCURVE",
"104 118 CURVE SMOOTH",
"116.667 53.333 OFFCURVE",
"144.667 5.333 OFFCURVE",
"188 -26 CURVE",
"145 -104 LINE",
"177 -118 LINE"
);
},
{
closed = 1;
nodes = (
"169.667 35 OFFCURVE",
"152 84.667 OFFCURVE",
"152 152 CURVE SMOOTH",
"152 204 OFFCURVE",
"162 254.333 OFFCURVE",
"182 303 CURVE",
"226.667 285 OFFCURVE",
"279.333 276 OFFCURVE",
"340 276 CURVE SMOOTH",
"358 276 LINE",
"205 3 LINE"
);
},
{
closed = 1;
nodes = (
"293.667 -37 OFFCURVE",
"264 -30 OFFCURVE",
"234 -16 CURVE",
"401 279 LINE",
"503 287.667 OFFCURVE",
"600 316.333 OFFCURVE",
"692 365 CURVE",
"689.333 344.333 OFFCURVE",
"683.333 320.667 OFFCURVE",
"674 294 CURVE SMOOTH",
"626 159.333 OFFCURVE",
"527.333 36.333 OFFCURVE",
"410 -17 CURVE SMOOTH",
"381.333 -30.333 OFFCURVE",
"352.333 -37 OFFCURVE",
"323 -37 CURVE SMOOTH"
);
},
{
closed = 1;
nodes = (
"287.667 308 OFFCURVE",
"237 318 OFFCURVE",
"197 338 CURVE",
"224.333 398.667 OFFCURVE",
"267.667 462.667 OFFCURVE",
"327 530 CURVE SMOOTH",
"387 598 OFFCURVE",
"452.167 629 OFFCURVE",
"483.5 629 CURVE SMOOTH",
"515.659 629 OFFCURVE",
"538.099 617.205 OFFCURVE",
"536.5 630 CURVE SMOOTH",
"536.167 632.667 OFFCURVE",
"533.667 635.333 OFFCURVE",
"529 638 CURVE SMOOTH",
"508.333 650.667 OFFCURVE",
"490.167 657 OFFCURVE",
"474.5 657 CURVE SMOOTH",
"458.833 657 OFFCURVE",
"446 656 OFFCURVE",
"436 654 CURVE SMOOTH",
"374.667 640 OFFCURVE",
"316.333 602 OFFCURVE",
"261 540 CURVE SMOOTH",
"210.333 483.333 OFFCURVE",
"172 427.333 OFFCURVE",
"146 372 CURVE",
"117.333 396.667 OFFCURVE",
"103 435 OFFCURVE",
"103 487 CURVE SMOOTH",
"103 556.333 OFFCURVE",
"135.333 637.333 OFFCURVE",
"210 688 CURVE SMOOTH",
"277.333 734 OFFCURVE",
"346.333 757 OFFCURVE",
"417 757 CURVE SMOOTH",
"486.333 757 OFFCURVE",
"546 737.667 OFFCURVE",
"596 699 CURVE",
"377 309 LINE",
"367.667 308.333 OFFCURVE",
"358.333 308 OFFCURVE",
"349 308 CURVE SMOOTH"
);
},
{
closed = 1;
nodes = (
"624 673 LINE",
"674.667 619.667 OFFCURVE",
"700 545.333 OFFCURVE",
"700 450 CURVE SMOOTH",
"700 434 OFFCURVE",
"699.333 417.333 OFFCURVE",
"698 400 CURVE",
"610 352.667 OFFCURVE",
"517.333 323.667 OFFCURVE",
"420 313 CURVE"
);
}
);
width = 771;
}
);
note = Oslash;
unicode = 00D8;
},
{
glyphname = OE;
lastChange = "2020-12-20 20:29:43 +0000";
layers = (
{
layerId = "1691882E-B915-4755-A5B2-757873D945FF";
paths = (
{
closed = 1;
nodes = (
"1121.833 -114 OFFCURVE",
"1296 -58 OFFCURVE",
"1396 26 CURVE SMOOTH",
"1446 68.667 OFFCURVE",
"1471 109 OFFCURVE",
"1471 147 CURVE SMOOTH",
"1471 177 OFFCURVE",
"1453 201 OFFCURVE",
"1417 219 CURVE",
"1407.007 222.577 OFFCURVE",
"1397.219 224.031 OFFCURVE",
"1390.046 224.612 CURVE",
"1384.324 196.334 OFFCURVE",
"1437 206.272 OFFCURVE",
"1437 171 CURVE SMOOTH",
"1437 137 OFFCURVE",
"1411.333 98.333 OFFCURVE",
"1360 55 CURVE SMOOTH",
"1265.333 -23.667 OFFCURVE",
"1096 -90 OFFCURVE",
"960 -90 CURVE SMOOTH",
"892 -90 OFFCURVE",
"837.333 -81 OFFCURVE",
"796 -63 CURVE SMOOTH",
"718 -28.333 OFFCURVE",
"679 30 OFFCURVE",
"679 112 CURVE SMOOTH",
"679 175.333 OFFCURVE",
"704.667 230.667 OFFCURVE",
"756 278 CURVE SMOOTH",
"805.333 324 OFFCURVE",
"877 347 OFFCURVE",
"971 347 CURVE SMOOTH",
"1086 346 LINE SMOOTH",
"1112 346 OFFCURVE",
"1126.333 352 OFFCURVE",
"1129 364 CURVE",
"1133.207 403.965 OFFCURVE",
"1052.257 411.212 OFFCURVE",
"983 431 CURVE SMOOTH",
"936.333 444.333 OFFCURVE",
"894.667 476 OFFCURVE",
"888 524 CURVE",
"904 547 LINE SMOOTH",
"918.667 571 OFFCURVE",
"895.667 572.667 OFFCURVE",
"889 558 CURVE",
"888 557 LINE",
"897.333 643.667 OFFCURVE",
"996 723.167 OFFCURVE",
"1100 754.5 CURVE SMOOTH",
"1157.07 768.947 OFFCURVE",
"1227.038 770.853 OFFCURVE",
"1273.799 770.258 CURVE",
"1354.6 737.962 OFFCURVE",
"1395 712.543 OFFCURVE",
"1395 694 CURVE SMOOTH",
"1395 674 OFFCURVE",
"1390 653.667 OFFCURVE",
"1380 633 CURVE SMOOTH",
"1360 591.667 OFFCURVE",
"1317.333 559 OFFCURVE",
"1280 555 CURVE SMOOTH",
"1266 553 LINE",
"1248.667 548.333 OFFCURVE",
"1240.667 543 OFFCURVE",
"1242 537 CURVE SMOOTH",
"1242.667 533.667 OFFCURVE",
"1246.833 532 OFFCURVE",
"1254.5 532 CURVE SMOOTH",
"1262.167 532 OFFCURVE",
"1272.333 533.333 OFFCURVE",
"1285 536 CURVE SMOOTH",
"1387.667 558.667 OFFCURVE",
"1460 623.667 OFFCURVE",
"1460 685 CURVE SMOOTH",
"1460 735.667 OFFCURVE",
"1403.667 788.667 OFFCURVE",
"1285 802 CURVE SMOOTH",
"1270.333 803.333 OFFCURVE",
"1255 804 OFFCURVE",
"1239 804 CURVE SMOOTH",
"1145.667 804 OFFCURVE",
"1005 775 OFFCURVE",
"893 683 CURVE SMOOTH",
"837 637 OFFCURVE",
"809 585.333 OFFCURVE",
"809 528 CURVE SMOOTH",
"809 510.667 OFFCURVE",
"814 494.667 OFFCURVE",
"824 480 CURVE",
"804.667 464.667 OFFCURVE",
"783 448.667 OFFCURVE",
"759 432 CURVE",
"759 452 LINE SMOOTH",
"759 658.667 OFFCURVE",
"612 774 OFFCURVE",
"412 774 CURVE SMOOTH",
"312 774 OFFCURVE",
"225.333 745.333 OFFCURVE",
"152 688 CURVE SMOOTH",
"83.333 634 OFFCURVE",
"49 567 OFFCURVE",
"49 487 CURVE SMOOTH",
"49 477 OFFCURVE",
"49.667 467 OFFCURVE",
"51 457 CURVE SMOOTH",
"55.667 404.333 OFFCURVE",
"81.333 362.333 OFFCURVE",
"128 331 CURVE",
"108.667 278.333 OFFCURVE",
"99 225.5 OFFCURVE",
"99 172.5 CURVE SMOOTH",
"99 119.5 OFFCURVE",
"112 71.333 OFFCURVE",
"138 28 CURVE SMOOTH",
"162 -10.667 OFFCURVE",
"193 -36 OFFCURVE",
"231 -48 CURVE SMOOTH",
"259 -57.333 OFFCURVE",
"289.167 -62 OFFCURVE",
"321.5 -62 CURVE SMOOTH",
"353.833 -62 OFFCURVE",
"388 -54.667 OFFCURVE",
"424 -40 CURVE SMOOTH",
"490 -14 OFFCURVE",
"550.333 27.667 OFFCURVE",
"605 85 CURVE",
"623.667 -29.667 OFFCURVE",
"747.167 -114 OFFCURVE",
"934.5 -114 CURVE SMOOTH"
);
},
{
closed = 1;
nodes = (
"294.333 -38 OFFCURVE",
"263.333 -30.667 OFFCURVE",
"234 -16 CURVE SMOOTH",
"178.667 11.333 OFFCURVE",
"151 71 OFFCURVE",
"151 163 CURVE SMOOTH",
"151 202.333 OFFCURVE",
"161.333 249 OFFCURVE",
"182 303 CURVE",
"227.333 285 OFFCURVE",
"280 276 OFFCURVE",
"340 276 CURVE SMOOTH",
"463.333 276 OFFCURVE",
"580.667 305.667 OFFCURVE",
"692 365 CURVE",
"688 334.333 OFFCURVE",
"678.333 301.667 OFFCURVE",
"663 267 CURVE",
"635.667 235.667 OFFCURVE",
"617 200 OFFCURVE",
"607 160 CURVE",
"557 84 OFFCURVE",
"498 28 OFFCURVE",
"430 -8 CURVE SMOOTH",
"394 -28 OFFCURVE",
"359.667 -38 OFFCURVE",
"327 -38 CURVE SMOOTH"
);
},
{
closed = 1;
nodes = (
"289.333 309 OFFCURVE",
"239 318.667 OFFCURVE",
"197 338 CURVE",
"224.333 398.667 OFFCURVE",
"267.667 462.667 OFFCURVE",
"327 530 CURVE SMOOTH",
"387 598 OFFCURVE",
"452.167 629 OFFCURVE",
"483.5 629 CURVE SMOOTH",
"515.659 629 OFFCURVE",
"538.099 617.205 OFFCURVE",
"536.5 630 CURVE SMOOTH",
"536.167 632.667 OFFCURVE",
"533.667 635.333 OFFCURVE",
"529 638 CURVE SMOOTH",
"508.333 650.667 OFFCURVE",
"490.167 657 OFFCURVE",
"474.5 657 CURVE SMOOTH",
"458.833 657 OFFCURVE",
"446 656 OFFCURVE",
"436 654 CURVE SMOOTH",
"374.667 640 OFFCURVE",
"316.333 602 OFFCURVE",
"261 540 CURVE SMOOTH",
"210.333 483.333 OFFCURVE",
"172 427.333 OFFCURVE",
"146 372 CURVE",
"117.333 396.667 OFFCURVE",
"103 435.333 OFFCURVE",
"103 488 CURVE SMOOTH",
"103 548.667 OFFCURVE",
"124.667 603 OFFCURVE",
"168 651 CURVE SMOOTH",
"219.333 706.333 OFFCURVE",
"285.667 740 OFFCURVE",
"367 752 CURVE SMOOTH",
"386.333 755.333 OFFCURVE",
"405.333 757 OFFCURVE",
"424 757 CURVE SMOOTH",
"488 757 OFFCURVE",
"544 739 OFFCURVE",
"592 703 CURVE SMOOTH",
"664 649 OFFCURVE",
"700 565.667 OFFCURVE",
"700 453 CURVE SMOOTH",
"700 435.667 OFFCURVE",
"699.333 418 OFFCURVE",
"698 400 CURVE",
"615.333 355.333 OFFCURVE",
"526.333 326.667 OFFCURVE",
"431 314 CURVE SMOOTH",
"401.667 310.667 OFFCURVE",
"374 309 OFFCURVE",
"348 309 CURVE SMOOTH"
);
},
{
closed = 1;
nodes = (
"750.667 356.333 OFFCURVE",
"754.333 377.667 OFFCURVE",
"755 397 CURVE",
"787 417 OFFCURVE",
"814.333 439 OFFCURVE",
"837 463 CURVE",
"863 433.667 OFFCURVE",
"900 410.667 OFFCURVE",
"948 394 CURVE",
"875.333 390 OFFCURVE",
"807.333 369.667 OFFCURVE",
"744 333 CURVE"
);
},
{
closed = 1;
nodes = (
"1390.5 226.5 LINE",
"1372.742 223.89 OFFCURVE",
"1377.202 225.652 OFFCURVE",
"1390.046 224.612 CURVE"
);
}
);
width = 1493;
}
);
note = OE;
unicode = 0152;
},
{
glyphname = P;
lastChange = "2020-12-23 22:36:37 +0000";
layers = (
{
layerId = "1691882E-B915-4755-A5B2-757873D945FF";
paths = (
{
closed = 1;
nodes = (
"232.667 -39 OFFCURVE",
"315.667 -3.667 OFFCURVE",
"391 67 CURVE SMOOTH",
"442.333 117 OFFCURVE",
"492.333 177.667 OFFCURVE",
"541 249 CURVE",
"633 248 OFFCURVE",
"695.667 256.333 OFFCURVE",
"765 273 CURVE SMOOTH",
"902 307 OFFCURVE",
"1071 432 OFFCURVE",
"1071 553 CURVE SMOOTH",
"1071 612.333 OFFCURVE",
"1035.667 663 OFFCURVE",
"965 705 CURVE SMOOTH",
"930.333 725.667 OFFCURVE",
"891.667 741.667 OFFCURVE",
"849 753 CURVE",
"883.472 787.472 OFFCURVE",
"928 810 OFFCURVE",
"907 810 CURVE SMOOTH",
"897 810 OFFCURVE",
"855.71 799.33 OFFCURVE",
"809 763 CURVE",
"652.254 795.571 OFFCURVE",
"437.833 786.333 OFFCURVE",
"247 710 CURVE SMOOTH",
"140 666 OFFCURVE",
"43 594 OFFCURVE",
"43 478 CURVE SMOOTH",
"43 394 OFFCURVE",
"106.333 335 OFFCURVE",
"197 335 CURVE SMOOTH",
"277 335 OFFCURVE",
"355.667 388.333 OFFCURVE",
"357 475 CURVE SMOOTH",
"356.222 494.57 OFFCURVE",
"346 496 OFFCURVE",
"343 476 CURVE SMOOTH",
"332 405 OFFCURVE",
"255.167 355 OFFCURVE",
"194.5 355 CURVE SMOOTH",
"133 355 OFFCURVE",
"93 410 OFFCURVE",
"93 461 CURVE SMOOTH",
"93 581 OFFCURVE",
"228 662 OFFCURVE",
"346 702.5 CURVE SMOOTH",
"489 752 OFFCURVE",
"649 756 OFFCURVE",
"782 738 CURVE",
"772.667 728.667 OFFCURVE",
"762 715 OFFCURVE",
"747 700 CURVE SMOOTH",
"729 682 LINE SMOOTH",
"648 601 OFFCURVE",
"574.333 463.333 OFFCURVE",
"525 366 CURVE SMOOTH",
"461 236 OFFCURVE",
"403.333 146 OFFCURVE",
"352 96 CURVE SMOOTH",
"280 26.667 OFFCURVE",
"206.667 -8 OFFCURVE",
"132 -8 CURVE SMOOTH",
"74 -8 OFFCURVE",
"37 22 OFFCURVE",
"37 68 CURVE SMOOTH",
"37 156.184 OFFCURVE",
"164.044 98.044 OFFCURVE",
"199 133 CURVE SMOOTH",
"203 137 OFFCURVE",
"198 142 OFFCURVE",
"187 146 CURVE SMOOTH",
"156 156 OFFCURVE",
"127 161 OFFCURVE",
"99 161 CURVE SMOOTH",
"26 161 OFFCURVE",
"-25 112 OFFCURVE",
"-25 71.5 CURVE SMOOTH",
"-25 -7 OFFCURVE",
"44 -39 OFFCURVE",
"142 -39 CURVE SMOOTH"
);
},
{
closed = 1;
nodes = (
"582.333 312 OFFCURVE",
"625.667 386 OFFCURVE",
"685 492 CURVE SMOOTH",
"744.333 598 OFFCURVE",
"792.667 677 OFFCURVE",
"830 729 CURVE",
"948 701 OFFCURVE",
"1007 648 OFFCURVE",
"1007 570 CURVE SMOOTH",
"1007 501.333 OFFCURVE",
"964.333 434.667 OFFCURVE",
"879 370 CURVE SMOOTH",
"791 304.667 OFFCURVE",
"666.333 270 OFFCURVE",
"569 270 CURVE SMOOTH",
"555 270 LINE"
);
}
);
width = 890;
}
);
note = P;
unicode = 0050;
},
{
glyphname = Thorn;
lastChange = "2020-12-20 20:29:42 +0000";
layers = (
{
layerId = "1691882E-B915-4755-A5B2-757873D945FF";
paths = (
{
closed = 1;
nodes = (
"63.443 3 OFFCURVE",
"74.978 0.021 OFFCURVE",
"92.5 13 CURVE SMOOTH",
"101.5 19.667 OFFCURVE",
"111.333 33.667 OFFCURVE",
"122 55 CURVE SMOOTH",
"197 208 LINE",
"204.333 207.333 OFFCURVE",
"211.667 207 OFFCURVE",
"219 207 CURVE SMOOTH",
"359.398 207 OFFCURVE",
"476.796 256.749 OFFCURVE",
"539 333 CURVE SMOOTH",
"569.667 371 OFFCURVE",
"585 408.667 OFFCURVE",
"585 446 CURVE SMOOTH",
"585 460 OFFCURVE",
"579.333 477 OFFCURVE",
"568 497 CURVE SMOOTH",
"534.667 555.667 OFFCURVE",
"455 599.333 OFFCURVE",
"367 614 CURVE",
"421 750 LINE",
"427 768.667 OFFCURVE",
"430 784.333 OFFCURVE",
"430 797 CURVE SMOOTH",
"430 809.667 OFFCURVE",
"423 822.333 OFFCURVE",
"409 835 CURVE SMOOTH",
"406.333 837.667 OFFCURVE",
"399.667 839.833 OFFCURVE",
"389 841.5 CURVE SMOOTH",
"378.333 843.167 OFFCURVE",
"371.667 846 OFFCURVE",
"369 850 CURVE",
"370.333 798 OFFCURVE",
"304.667 555 OFFCURVE",
"206 347 CURVE SMOOTH",
"162 255 OFFCURVE",
"35 30.667 OFFCURVE",
"11 8 CURVE",
"16.333 8.667 OFFCURVE",
"24.167 8 OFFCURVE",
"34.5 6 CURVE SMOOTH",
"44.833 4 OFFCURVE",
"51.167 3 OFFCURVE",
"53.5 3 CURVE SMOOTH"
);
},
{
closed = 1;
nodes = (
"238 293 LINE",
"248.667 308.333 OFFCURVE",
"272.667 363.667 OFFCURVE",
"310 459 CURVE SMOOTH",
"360 595 LINE",
"406 584.333 OFFCURVE",
"441 572.333 OFFCURVE",
"465 559 CURVE SMOOTH",
"509 532.333 OFFCURVE",
"531 493.333 OFFCURVE",
"531 442 CURVE SMOOTH",
"531 344.126 OFFCURVE",
"414.507 233.279 OFFCURVE",
"206 228 CURVE"
);
}
);
width = 336;
}
);
note = Thorn;
unicode = 00DE;
},
{
glyphname = Q;
lastChange = "2020-12-23 22:37:58 +0000";
layers = (
{
components = (
{
name = O;
}
);
layerId = "1691882E-B915-4755-A5B2-757873D945FF";
paths = (
{
closed = 1;
nodes = (
"762 -369 OFFCURVE",
"839 -337 OFFCURVE",
"839 -258.5 CURVE SMOOTH",
"839 -189 OFFCURVE",
"739 -123 OFFCURVE",
"644 -108 CURVE SMOOTH",
"635.333 -106.667 OFFCURVE",
"631 -109 OFFCURVE",
"631 -115 CURVE SMOOTH",
"631 -121.667 OFFCURVE",
"636.333 -125.667 OFFCURVE",
"647 -127 CURVE SMOOTH",
"730 -141 OFFCURVE",
"811 -208 OFFCURVE",
"811 -266.5 CURVE SMOOTH",
"811 -319 OFFCURVE",
"773 -345 OFFCURVE",
"718 -345 CURVE SMOOTH",
"702 -345 OFFCURVE",
"684.333 -343 OFFCURVE",
"665 -339 CURVE SMOOTH",
"500 -307 OFFCURVE",
"402 -227 OFFCURVE",
"298 -142 CURVE SMOOTH",
"230.667 -88 OFFCURVE",
"168.333 -61 OFFCURVE",
"111 -61 CURVE SMOOTH",
"69.667 -61 OFFCURVE",
"29 -104.5 OFFCURVE",
"29 -130.5 CURVE SMOOTH",
"29 -143.5 OFFCURVE",
"31.667 -150 OFFCURVE",
"37 -150 CURVE SMOOTH",
"48.225 -151.604 OFFCURVE",
"47 -118 OFFCURVE",
"69 -105 CURVE SMOOTH",
"83 -96 OFFCURVE",
"97 -91 OFFCURVE",
"111 -91 CURVE SMOOTH",
"149.667 -91 OFFCURVE",
"188.667 -109.333 OFFCURVE",
"228 -146 CURVE SMOOTH",
"328.333 -246.667 OFFCURVE",
"376.667 -284.667 OFFCURVE",
"428 -314 CURVE SMOOTH",
"492.667 -350.667 OFFCURVE",
"569.167 -369 OFFCURVE",
"657.5 -369 CURVE SMOOTH"
);
}
);
width = 752;
}
);
note = Q;
unicode = 0051;
},
{
glyphname = R;
lastChange = "2020-12-23 22:43:45 +0000";
layers = (
{
layerId = "1691882E-B915-4755-A5B2-757873D945FF";
paths = (
{
closed = 1;
nodes = (
"928.5 -41 OFFCURVE",
"963 -24.667 OFFCURVE",
"993 8 CURVE SMOOTH",
"1023 40.667 OFFCURVE",
"1057.333 100.333 OFFCURVE",
"1096 187 CURVE SMOOTH",
"1100.667 197 OFFCURVE",
"1100.333 202 OFFCURVE",
"1095 202 CURVE SMOOTH",
"1089.667 202 OFFCURVE",
"1084.333 197 OFFCURVE",
"1079 187 CURVE SMOOTH",
"1043.667 116.333 OFFCURVE",
"1012.5 67.667 OFFCURVE",
"985.5 41 CURVE SMOOTH",
"958.5 14.333 OFFCURVE",
"933 1 OFFCURVE",
"909 1 CURVE SMOOTH",
"874.333 1 OFFCURVE",
"847 24.333 OFFCURVE",
"811 79 CURVE SMOOTH",
"758.333 159.667 OFFCURVE",
"721.333 259 OFFCURVE",
"700 377 CURVE",
"806 381 OFFCURVE",
"938 405 OFFCURVE",
"1038 482 CURVE SMOOTH",
"1086.667 520.667 OFFCURVE",
"1111 559.667 OFFCURVE",
"1111 599 CURVE SMOOTH",
"1111 696 OFFCURVE",
"950 746 OFFCURVE",
"862 754 CURVE",
"866 764 OFFCURVE",
"872 787 OFFCURVE",
"861 787 CURVE SMOOTH",
"854 787 OFFCURVE",
"842 778 OFFCURVE",
"825 759 CURVE",
"700 776 OFFCURVE",
"570 772 OFFCURVE",
"444 754 CURVE SMOOTH",
"234.667 723.333 OFFCURVE",
"94 607 OFFCURVE",
"94 475 CURVE SMOOTH",
"94 385.667 OFFCURVE",
"161.333 328 OFFCURVE",
"240 328 CURVE SMOOTH",
"292 328 OFFCURVE",
"336.667 347.333 OFFCURVE",
"374 386 CURVE SMOOTH",
"395.333 408 OFFCURVE",
"408.333 435 OFFCURVE",
"413 467 CURVE SMOOTH",
"413.667 477 OFFCURVE",
"411.333 482 OFFCURVE",
"406 482 CURVE SMOOTH",
"402.667 482 OFFCURVE",
"400.667 477.667 OFFCURVE",
"400 469 CURVE SMOOTH",
"397.333 434.333 OFFCURVE",
"336.667 355 OFFCURVE",
"254 355 CURVE SMOOTH",
"186 355 OFFCURVE",
"143 406 OFFCURVE",
"143 462 CURVE SMOOTH",
"143 520 OFFCURVE",
"174 574.667 OFFCURVE",
"236 626 CURVE SMOOTH",
"376 742 OFFCURVE",
"663 747 OFFCURVE",
"803 735 CURVE",
"767.667 696.333 OFFCURVE",
"729 641 OFFCURVE",
"686 568 CURVE SMOOTH",
"652 509 OFFCURVE",
"626 460 OFFCURVE",
"545 316 CURVE SMOOTH",
"520 273 OFFCURVE",
"490.667 226 OFFCURVE",
"456 176 CURVE SMOOTH",
"412 110.667 OFFCURVE",
"377 78.333 OFFCURVE",
"329 41 CURVE SMOOTH",
"287 8.333 OFFCURVE",
"238.667 -8 OFFCURVE",
"184 -8 CURVE SMOOTH",
"122 -8 OFFCURVE",
"85 25 OFFCURVE",
"85 70 CURVE SMOOTH",
"85 106 OFFCURVE",
"121.167 147 OFFCURVE",
"164.5 147 CURVE SMOOTH",
"204.603 147 OFFCURVE",
"239.832 122.664 OFFCURVE",
"246 135 CURVE SMOOTH",
"248 139 OFFCURVE",
"244.667 142.667 OFFCURVE",
"236 146 CURVE SMOOTH",
"203.333 157.333 OFFCURVE",
"172.333 163 OFFCURVE",
"143 163 CURVE SMOOTH",
"74 163 OFFCURVE",
"18 118 OFFCURVE",
"18 73.5 CURVE SMOOTH",
"18 -4 OFFCURVE",
"93 -39 OFFCURVE",
"194 -39 CURVE SMOOTH",
"293.333 -39 OFFCURVE",
"382.333 3.333 OFFCURVE",
"461 88 CURVE SMOOTH",
"539 175 OFFCURVE",
"585 261 OFFCURVE",
"637 365 CURVE",
"655.667 254.333 OFFCURVE",
"705 90.833 OFFCURVE",
"777 15.5 CURVE SMOOTH",
"813 -22.167 OFFCURVE",
"850.5 -41 OFFCURVE",
"889.5 -41 CURVE SMOOTH"
);
},
{
closed = 1;
nodes = (
"680.667 447.667 OFFCURVE",
"715.333 508 OFFCURVE",
"762 584 CURVE SMOOTH",
"808.667 660 OFFCURVE",
"838 708.333 OFFCURVE",
"850 729 CURVE",
"919 718 OFFCURVE",
"1043 684 OFFCURVE",
"1043 614 CURVE SMOOTH",
"1043 579 OFFCURVE",
"1018.667 542.333 OFFCURVE",
"978 505 CURVE SMOOTH",
"925 455 OFFCURVE",
"823 409 OFFCURVE",
"658 403 CURVE"
);
}
);
width = 1024;
}
);
note = R;
unicode = 0052;
},
{
glyphname = S;
lastChange = "2020-12-23 22:48:30 +0000";
layers = (
{
layerId = "1691882E-B915-4755-A5B2-757873D945FF";
paths = (
{
closed = 1;
nodes = (
"158 -40 OFFCURVE",
"328 -69 CURVE SMOOTH",
"458 -92 OFFCURVE",
"595 -57 OFFCURVE",
"668 -13 CURVE SMOOTH",
"763 44 OFFCURVE",
"871 148 OFFCURVE",
"871 249 CURVE SMOOTH",
"871 295.667 OFFCURVE",
"845.667 354 OFFCURVE",
"767 402 CURVE SMOOTH",
"708 438 OFFCURVE",
"575 493 OFFCURVE",
"531 520 CURVE SMOOTH",
"481 551.333 OFFCURVE",
"456 586.667 OFFCURVE",
"456 626 CURVE SMOOTH",
"456 655.333 OFFCURVE",
"473 684.667 OFFCURVE",
"507 714 CURVE SMOOTH",
"568 766 OFFCURVE",
"676 789 OFFCURVE",
"742 789 CURVE SMOOTH",
"796 789 OFFCURVE",
"838.333 774.333 OFFCURVE",
"869 745 CURVE SMOOTH",
"890.333 724.333 OFFCURVE",
"902 702 OFFCURVE",
"901 679 CURVE SMOOTH",
"900 658 OFFCURVE",
"891 642 OFFCURVE",
"873 630 CURVE SMOOTH",
"849 613 OFFCURVE",
"813 603 OFFCURVE",
"814 594 CURVE SMOOTH",
"814 588 OFFCURVE",
"822 586.667 OFFCURVE",
"834 590 CURVE SMOOTH",
"862 598 OFFCURVE",
"884.333 608.667 OFFCURVE",
"901 622 CURVE SMOOTH",
"925 642.667 OFFCURVE",
"937 666 OFFCURVE",
"937 692 CURVE SMOOTH",
"937 761 OFFCURVE",
"839 814 OFFCURVE",
"731 814 CURVE SMOOTH",
"610.333 814 OFFCURVE",
"517 786 OFFCURVE",
"451 730 CURVE SMOOTH",
"405 690.667 OFFCURVE",
"382 650.333 OFFCURVE",
"382 609 CURVE SMOOTH",
"382 561.667 OFFCURVE",
"407.667 520.667 OFFCURVE",
"459 486 CURVE SMOOTH",
"514 450 OFFCURVE",
"678 391 OFFCURVE",
"730 350 CURVE SMOOTH",
"770.667 315.333 OFFCURVE",
"791 275.333 OFFCURVE",
"791 230 CURVE SMOOTH",
"791 144 OFFCURVE",
"723 49 OFFCURVE",
"612 -8 CURVE SMOOTH",
"568 -31 OFFCURVE",
"444 -60 OFFCURVE",
"326 -38 CURVE SMOOTH",
"187 -12 OFFCURVE",
"68 73 OFFCURVE",
"55 158 CURVE SMOOTH",
"41 248 OFFCURVE",
"93 355 OFFCURVE",
"180 424 CURVE SMOOTH",
"206.667 446.667 OFFCURVE",
"190 447 OFFCURVE",
"170 439 CURVE SMOOTH",
"74 393.667 OFFCURVE",
"-12 264 OFFCURVE",
"-1 173 CURVE SMOOTH",
"12 67 OFFCURVE"
);
}
);
width = 901;
}
);
note = S;
unicode = 0053;
},
{
glyphname = T;
lastChange = "2020-12-23 22:50:18 +0000";
layers = (
{
layerId = "1691882E-B915-4755-A5B2-757873D945FF";
paths = (
{
closed = 1;
nodes = (
"497.333 -94 OFFCURVE",
"587 -73.333 OFFCURVE",
"663 -32 CURVE SMOOTH",
"779.354 32.195 OFFCURVE",
"851.731 156.191 OFFCURVE",
"908 324 CURVE SMOOTH",
"945.333 448 OFFCURVE",
"987.667 547.333 OFFCURVE",
"1035 622 CURVE",
"1105 592 OFFCURVE",
"1189 570.667 OFFCURVE",
"1287 558 CURVE SMOOTH",
"1333 551 OFFCURVE",
"1400 564 OFFCURVE",
"1400 606.5 CURVE SMOOTH",
"1400 622.833 OFFCURVE",
"1396.5 631 OFFCURVE",
"1389.5 631 CURVE SMOOTH",
"1382.5 631 OFFCURVE",
"1379 626 OFFCURVE",
"1379 616 CURVE SMOOTH",
"1379 596 OFFCURVE",
"1358.333 586 OFFCURVE",
"1317 586 CURVE SMOOTH",
"1275.667 586 OFFCURVE",
"1175.333 603 OFFCURVE",
"1050 643 CURVE",
"1062 657.667 OFFCURVE",
"1093 687 OFFCURVE",
"1102 683 CURVE SMOOTH",
"1107 681 OFFCURVE",
"1111.667 681.333 OFFCURVE",
"1115 682 CURVE SMOOTH",
"1129.142 686.714 OFFCURVE",
"1125 720 OFFCURVE",
"1095 712 CURVE SMOOTH",
"1080 708 OFFCURVE",
"1054.667 691 OFFCURVE",
"1022 651 CURVE",
"892 696 OFFCURVE",
"780 740 OFFCURVE",
"643 740 CURVE SMOOTH",
"565 740 OFFCURVE",
"443 717 OFFCURVE",
"375 612 CURVE SMOOTH",
"350.333 574 OFFCURVE",
"338 535 OFFCURVE",
"338 495 CURVE SMOOTH",
"338 440 OFFCURVE",
"361 364 OFFCURVE",
"449 333 CURVE SMOOTH",
"488 319 OFFCURVE",
"536 316 OFFCURVE",
"591 348 CURVE SMOOTH",
"637 374 OFFCURVE",
"663.333 413 OFFCURVE",
"670 465 CURVE",
"670 478.333 OFFCURVE",
"661 482 OFFCURVE",
"650 473 CURVE",
"650 471 LINE SMOOTH",
"655.439 438.369 OFFCURVE",
"607.547 374.362 OFFCURVE",
"551.5 358.5 CURVE SMOOTH",
"518 349 OFFCURVE",
"493 349 OFFCURVE",
"459 358 CURVE SMOOTH",
"357 390 OFFCURVE",
"369 517 OFFCURVE",
"459 603 CURVE SMOOTH",
"517.667 659.667 OFFCURVE",
"594 688 OFFCURVE",
"688 688 CURVE SMOOTH",
"782 688 OFFCURVE",
"888 669.333 OFFCURVE",
"1006 632 CURVE",
"996.667 619.333 OFFCURVE",
"975.333 576.333 OFFCURVE",
"942 503 CURVE SMOOTH",
"844.667 289.667 OFFCURVE",
"768 152.667 OFFCURVE",
"712 92 CURVE SMOOTH",
"623.333 -4.667 OFFCURVE",
"510 -54.667 OFFCURVE",
"372 -58 CURVE SMOOTH",
"367 -58 LINE SMOOTH",
"291 -58 OFFCURVE",
"211.333 -30.667 OFFCURVE",
"150 20 CURVE SMOOTH",
"92.667 65.333 OFFCURVE",
"64 130 OFFCURVE",
"64 214 CURVE SMOOTH",
"64 251 OFFCURVE",
"73 284 OFFCURVE",
"90 313 CURVE SMOOTH",
"119 363 OFFCURVE",
"145 364 OFFCURVE",
"172 392 CURVE",
"173.333 403.333 OFFCURVE",
"168 409 OFFCURVE",
"156 409 CURVE SMOOTH",
"148.667 409 OFFCURVE",
"137.667 404.667 OFFCURVE",
"123 396 CURVE SMOOTH",
"51 353.333 OFFCURVE",
"30 251.167 OFFCURVE",
"30 206.5 CURVE SMOOTH",
"30 184.167 OFFCURVE",
"30.667 167.333 OFFCURVE",
"32 156 CURVE SMOOTH",
"44 71.333 OFFCURVE",
"86 8.667 OFFCURVE",
"158 -32 CURVE SMOOTH",
"231.333 -73.333 OFFCURVE",
"310 -94 OFFCURVE",
"394 -94 CURVE SMOOTH"
);
}
);
width = 918;
}
);
note = T;
unicode = 0054;
},
{
glyphname = U;
lastChange = "2020-12-23 22:54:24 +0000";
layers = (
{
layerId = "1691882E-B915-4755-A5B2-757873D945FF";
paths = (
{
closed = 1;
nodes = (
"910 -85 LINE",
"924.667 -83 OFFCURVE",
"932 -78 OFFCURVE",
"932 -70 CURVE SMOOTH",
"932 -64.667 OFFCURVE",
"926 -62 OFFCURVE",
"903 -62 CURVE SMOOTH",
"878.333 -62 OFFCURVE",
"866 -39 OFFCURVE",
"866 7 CURVE SMOOTH",
"866 29.667 OFFCURVE",
"868.333 55 OFFCURVE",
"873 83 CURVE SMOOTH",
"890.333 185.667 OFFCURVE",
"926.667 286.667 OFFCURVE",
"982 386 CURVE SMOOTH",
"998.667 415.333 OFFCURVE",
"1007 437.667 OFFCURVE",
"1007 453 CURVE SMOOTH",
"1007 465.667 OFFCURVE",
"1002 482 OFFCURVE",
"987 482 CURVE SMOOTH",
"969.667 482 OFFCURVE",
"949 465 OFFCURVE",
"931 429 CURVE SMOOTH",
"866.5 301.5 LINE SMOOTH",
"810 189 OFFCURVE",
"705 -20 OFFCURVE",
"595 -20 CURVE SMOOTH",
"557.667 -20 OFFCURVE",
"539 8 OFFCURVE",
"539 64 CURVE SMOOTH",
"539 124 OFFCURVE",
"568.833 219.5 OFFCURVE",
"609.5 305.5 CURVE SMOOTH",
"629.833 348.5 OFFCURVE",
"651 396 OFFCURVE",
"673 448 CURVE SMOOTH",
"711 536 OFFCURVE",
"730 609.667 OFFCURVE",
"730 669 CURVE SMOOTH",
"730 748.333 OFFCURVE",
"697.667 802 OFFCURVE",
"633 830 CURVE SMOOTH",
"529 873 OFFCURVE",
"406 841 OFFCURVE",
"307 786 CURVE SMOOTH",
"146 697 OFFCURVE",
"-3 545 OFFCURVE",
"-3 362.5 CURVE SMOOTH",
"-3 232 OFFCURVE",
"71 134 OFFCURVE",
"189 134 CURVE SMOOTH",
"295 134 OFFCURVE",
"407 222 OFFCURVE",
"449 332 CURVE SMOOTH",
"460.333 362.667 OFFCURVE",
"466 389.333 OFFCURVE",
"466 412 CURVE SMOOTH",
"466 462 OFFCURVE",
"442 506 OFFCURVE",
"390 506 CURVE SMOOTH",
"354 506 OFFCURVE",
"301 485 OFFCURVE",
"306 474 CURVE SMOOTH",
"311 462 OFFCURVE",
"352 479 OFFCURVE",
"369 479 CURVE SMOOTH",
"414.333 479 OFFCURVE",
"437 454 OFFCURVE",
"437 404 CURVE SMOOTH",
"437 370 OFFCURVE",
"423.667 331 OFFCURVE",
"397 287 CURVE SMOOTH",
"348.333 204.333 OFFCURVE",
"271 163 OFFCURVE",
"202 163 CURVE SMOOTH",
"87 163 OFFCURVE",
"37 265 OFFCURVE",
"37 365.5 CURVE SMOOTH",
"37 506 OFFCURVE",
"145 659 OFFCURVE",
"305 753 CURVE SMOOTH",
"407 812 OFFCURVE",
"541 847 OFFCURVE",
"618 810 CURVE SMOOTH",
"654 792 OFFCURVE",
"677 758 OFFCURVE",
"677 702 CURVE SMOOTH",
"677 636.667 OFFCURVE",
"663.167 566.667 OFFCURVE",
"594.5 416 CURVE SMOOTH",
"560.167 340.667 OFFCURVE",
"532.667 273.5 OFFCURVE",
"512 214.5 CURVE SMOOTH",
"469 92 OFFCURVE",
"465 -46 OFFCURVE",
"576 -46 CURVE SMOOTH",
"685 -46 OFFCURVE",
"783 86 OFFCURVE",
"839 179 CURVE",
"830.333 137.667 OFFCURVE",
"826 98 OFFCURVE",
"826 60 CURVE SMOOTH",
"826 33 OFFCURVE",
"823 -11 OFFCURVE",
"847 -50 CURVE SMOOTH",
"859 -69 OFFCURVE",
"876 -81 OFFCURVE",
"898 -85 CURVE"
);
}
);
width = 942;
}
);
note = U;
unicode = 0055;
},
{
glyphname = Ucircumflex;
lastChange = "2020-12-20 20:29:42 +0000";
layers = (
{
layerId = "1691882E-B915-4755-A5B2-757873D945FF";
paths = (
{
closed = 1;
nodes = (
"910 -85 LINE",
"924.667 -83 OFFCURVE",
"932 -78 OFFCURVE",
"932 -70 CURVE SMOOTH",
"932 -64.667 OFFCURVE",
"926 -62 OFFCURVE",
"914 -62 CURVE SMOOTH",
"903 -62 LINE SMOOTH",
"878.333 -62 OFFCURVE",
"866 -39 OFFCURVE",
"866 7 CURVE SMOOTH",
"866 29.667 OFFCURVE",
"868.333 55 OFFCURVE",
"873 83 CURVE SMOOTH",
"890.333 185.667 OFFCURVE",
"924.333 282.667 OFFCURVE",
"975 374 CURVE SMOOTH",
"987 395.333 OFFCURVE",
"996.333 415.333 OFFCURVE",
"1003 434 CURVE SMOOTH",
"1011 456.667 OFFCURVE",
"1005.667 472.667 OFFCURVE",
"987 482 CURVE",
"969.667 482 OFFCURVE",
"951 464.333 OFFCURVE",
"931 429 CURVE SMOOTH",
"866.5 301.5 LINE SMOOTH",
"824.167 217.167 OFFCURVE",
"789.667 155.667 OFFCURVE",
"763 117 CURVE SMOOTH",
"736 80 LINE SMOOTH",
"682 13.333 OFFCURVE",
"635 -20 OFFCURVE",
"595 -20 CURVE SMOOTH",
"557.667 -20 OFFCURVE",
"539 8 OFFCURVE",
"539 64 CURVE SMOOTH",
"539 124 OFFCURVE",
"568.833 219.5 OFFCURVE",
"609.5 305.5 CURVE SMOOTH",
"629.833 348.5 OFFCURVE",
"651 396 OFFCURVE",
"673 448 CURVE SMOOTH",
"711 536 OFFCURVE",
"730 609.667 OFFCURVE",
"730 669 CURVE SMOOTH",
"730 748.333 OFFCURVE",
"697.667 802 OFFCURVE",
"633 830 CURVE SMOOTH",
"601 843.333 OFFCURVE",
"566.333 850 OFFCURVE",
"529 850 CURVE SMOOTH",
"457.667 850 OFFCURVE",
"383.667 828.667 OFFCURVE",
"307 786 CURVE SMOOTH",
"218.333 737.333 OFFCURVE",
"147.667 680 OFFCURVE",
"95 614 CURVE SMOOTH",
"29.667 532 OFFCURVE",
"-3 448.167 OFFCURVE",
"-3 362.5 CURVE SMOOTH",
"-3 276.833 OFFCURVE",
"24.333 213 OFFCURVE",
"79 171 CURVE SMOOTH",
"111 146.333 OFFCURVE",
"147.667 134 OFFCURVE",
"189 134 CURVE SMOOTH",
"230.333 134 OFFCURVE",
"273.667 148 OFFCURVE",
"319 176 CURVE SMOOTH",
"380.333 212.667 OFFCURVE",
"423.667 264.667 OFFCURVE",
"449 332 CURVE SMOOTH",
"460.333 362.667 OFFCURVE",
"466 389.333 OFFCURVE",
"466 412 CURVE SMOOTH",
"466 434.667 OFFCURVE",
"461.333 454.333 OFFCURVE",
"452 471 CURVE SMOOTH",
"438 494.333 OFFCURVE",
"417.333 506 OFFCURVE",
"390 506 CURVE SMOOTH",
"354 506 OFFCURVE",
"310 484.667 OFFCURVE",
"306 474 CURVE SMOOTH",
"304.667 470 OFFCURVE",
"312.167 469.833 OFFCURVE",
"328.5 473.5 CURVE SMOOTH",
"344.833 477.167 OFFCURVE",
"358.333 479 OFFCURVE",
"369 479 CURVE SMOOTH",
"414.333 479 OFFCURVE",
"437 454 OFFCURVE",
"437 404 CURVE SMOOTH",
"437 370 OFFCURVE",
"423.667 331 OFFCURVE",
"397 287 CURVE SMOOTH",
"348.333 204.333 OFFCURVE",
"283.333 163 OFFCURVE",
"202 163 CURVE SMOOTH",
"132.667 163 OFFCURVE",
"84 197 OFFCURVE",
"56 265 CURVE SMOOTH",
"43.333 295 OFFCURVE",
"37 328.5 OFFCURVE",
"37 365.5 CURVE SMOOTH",
"37 402.5 OFFCURVE",
"45.667 443.333 OFFCURVE",
"63 488 CURVE SMOOTH",
"105 594.667 OFFCURVE",
"185.667 683 OFFCURVE",
"305 753 CURVE SMOOTH",
"385.667 799.667 OFFCURVE",
"461.333 823 OFFCURVE",
"532 823 CURVE SMOOTH",
"571.333 823 OFFCURVE",
"606.667 814.667 OFFCURVE",
"638 798 CURVE SMOOTH",
"664 782.667 OFFCURVE",
"677 750.667 OFFCURVE",
"677 702 CURVE SMOOTH",
"677 636.667 OFFCURVE",
"663.167 566.667 OFFCURVE",
"594.5 416 CURVE SMOOTH",
"560.167 340.667 OFFCURVE",
"532.667 273.5 OFFCURVE",
"512 214.5 CURVE SMOOTH",
"491.333 155.5 OFFCURVE",
"481 107.833 OFFCURVE",
"481 71.5 CURVE SMOOTH",
"481 35.167 OFFCURVE",
"491 5 OFFCURVE",
"511 -19 CURVE SMOOTH",
"526.333 -37 OFFCURVE",
"548 -46 OFFCURVE",
"576 -46 CURVE SMOOTH",
"614.667 -46 OFFCURVE",
"655.667 -28.667 OFFCURVE",
"699 6 CURVE SMOOTH",
"745 43.333 OFFCURVE",
"791.667 101 OFFCURVE",
"839 179 CURVE",
"830.333 137.667 OFFCURVE",
"826 98 OFFCURVE",
"826 60 CURVE SMOOTH",
"826 33.333 OFFCURVE",
"823 -11.333 OFFCURVE",
"847 -50 CURVE SMOOTH",
"859 -69.333 OFFCURVE",
"876 -81 OFFCURVE",
"898 -85 CURVE"
);
},
{
closed = 1;
nodes = (
"820.272 725.194 OFFCURVE",
"855.482 737.119 OFFCURVE",
"834 741 CURVE",
"966 812 LINE",
"1012 741 LINE",
"1015.596 733.807 OFFCURVE",
"1037.715 731.561 OFFCURVE",
"1032 741 CURVE",
"996 847 LINE SMOOTH",
"995.333 849 OFFCURVE",
"992 850 OFFCURVE",
"986 850 CURVE SMOOTH",
"980 850 OFFCURVE",
"970.667 849 OFFCURVE",
"958 847 CURVE",
"809 741 LINE"
);
}
);
width = 942;
}
);
note = Ucircumflex;
unicode = 00DB;
},
{
glyphname = Udieresis;
lastChange = "2020-12-20 20:29:43 +0000";
layers = (
{
layerId = "1691882E-B915-4755-A5B2-757873D945FF";
paths = (
{
closed = 1;
nodes = (
"910 -85 LINE",
"924.667 -83 OFFCURVE",
"932 -78 OFFCURVE",
"932 -70 CURVE SMOOTH",
"932 -64.667 OFFCURVE",
"926 -62 OFFCURVE",
"914 -62 CURVE SMOOTH",
"903 -62 LINE SMOOTH",
"878.333 -62 OFFCURVE",
"866 -39 OFFCURVE",
"866 7 CURVE SMOOTH",
"866 29.667 OFFCURVE",
"868.333 55 OFFCURVE",
"873 83 CURVE SMOOTH",
"890.333 185.667 OFFCURVE",
"926.667 286.667 OFFCURVE",
"982 386 CURVE SMOOTH",
"998.667 415.333 OFFCURVE",
"1007 437.667 OFFCURVE",
"1007 453 CURVE SMOOTH",
"1007 465.667 OFFCURVE",
"1000.333 475.333 OFFCURVE",
"987 482 CURVE",
"969.667 482 OFFCURVE",
"951 464.333 OFFCURVE",
"931 429 CURVE SMOOTH",
"866.5 301.5 LINE SMOOTH",
"824.167 217.167 OFFCURVE",
"789.667 155.667 OFFCURVE",
"763 117 CURVE SMOOTH",
"736 80 LINE SMOOTH",
"682 13.333 OFFCURVE",
"635 -20 OFFCURVE",
"595 -20 CURVE SMOOTH",
"557.667 -20 OFFCURVE",
"539 8 OFFCURVE",
"539 64 CURVE SMOOTH",
"539 124 OFFCURVE",
"568.833 219.5 OFFCURVE",
"609.5 305.5 CURVE SMOOTH",
"629.833 348.5 OFFCURVE",
"651 396 OFFCURVE",
"673 448 CURVE SMOOTH",
"711 536 OFFCURVE",
"730 609.667 OFFCURVE",
"730 669 CURVE SMOOTH",
"730 748.333 OFFCURVE",
"697.667 802 OFFCURVE",
"633 830 CURVE SMOOTH",
"601 843.333 OFFCURVE",
"566.333 850 OFFCURVE",
"529 850 CURVE SMOOTH",
"457.667 850 OFFCURVE",
"383.667 828.667 OFFCURVE",
"307 786 CURVE SMOOTH",
"218.333 737.333 OFFCURVE",
"147.667 680 OFFCURVE",
"95 614 CURVE SMOOTH",
"29.667 532 OFFCURVE",
"-3 448.167 OFFCURVE",
"-3 362.5 CURVE SMOOTH",
"-3 276.833 OFFCURVE",
"24.333 213 OFFCURVE",
"79 171 CURVE SMOOTH",
"111 146.333 OFFCURVE",
"147.667 134 OFFCURVE",
"189 134 CURVE SMOOTH",
"230.333 134 OFFCURVE",
"273.667 148 OFFCURVE",
"319 176 CURVE SMOOTH",
"380.333 212.667 OFFCURVE",
"423.667 264.667 OFFCURVE",
"449 332 CURVE SMOOTH",
"460.333 362.667 OFFCURVE",
"466 389.333 OFFCURVE",
"466 412 CURVE SMOOTH",
"466 434.667 OFFCURVE",
"461.333 454.333 OFFCURVE",
"452 471 CURVE SMOOTH",
"438 494.333 OFFCURVE",
"417.333 506 OFFCURVE",
"390 506 CURVE SMOOTH",
"354 506 OFFCURVE",
"310 484.667 OFFCURVE",
"306 474 CURVE SMOOTH",
"304.667 470 OFFCURVE",
"312.167 469.833 OFFCURVE",
"328.5 473.5 CURVE SMOOTH",
"344.833 477.167 OFFCURVE",
"358.333 479 OFFCURVE",
"369 479 CURVE SMOOTH",
"414.333 479 OFFCURVE",
"437 454 OFFCURVE",
"437 404 CURVE SMOOTH",
"437 370 OFFCURVE",
"423.667 331 OFFCURVE",
"397 287 CURVE SMOOTH",
"348.333 204.333 OFFCURVE",
"283.333 163 OFFCURVE",
"202 163 CURVE SMOOTH",
"132.667 163 OFFCURVE",
"84 197 OFFCURVE",
"56 265 CURVE SMOOTH",
"43.333 295 OFFCURVE",
"37 328.5 OFFCURVE",
"37 365.5 CURVE SMOOTH",
"37 402.5 OFFCURVE",
"45.667 443.333 OFFCURVE",
"63 488 CURVE SMOOTH",
"105 594.667 OFFCURVE",
"185.667 683 OFFCURVE",
"305 753 CURVE SMOOTH",
"385.667 799.667 OFFCURVE",
"461.333 823 OFFCURVE",
"532 823 CURVE SMOOTH",
"571.333 823 OFFCURVE",
"606.667 814.667 OFFCURVE",
"638 798 CURVE SMOOTH",
"664 782.667 OFFCURVE",
"677 750.667 OFFCURVE",
"677 702 CURVE SMOOTH",
"677 636.667 OFFCURVE",
"663.167 566.667 OFFCURVE",
"594.5 416 CURVE SMOOTH",
"560.167 340.667 OFFCURVE",
"532.667 273.5 OFFCURVE",
"512 214.5 CURVE SMOOTH",
"491.333 155.5 OFFCURVE",
"481 107.833 OFFCURVE",
"481 71.5 CURVE SMOOTH",
"481 35.167 OFFCURVE",
"491 5 OFFCURVE",
"511 -19 CURVE SMOOTH",
"526.333 -37 OFFCURVE",
"548 -46 OFFCURVE",
"576 -46 CURVE SMOOTH",
"614.667 -46 OFFCURVE",
"655.667 -28.667 OFFCURVE",
"699 6 CURVE SMOOTH",
"745 43.333 OFFCURVE",
"791.667 101 OFFCURVE",
"839 179 CURVE",
"830.333 137.667 OFFCURVE",
"826 98 OFFCURVE",
"826 60 CURVE SMOOTH",
"826 33.333 OFFCURVE",
"823 -11.333 OFFCURVE",
"847 -50 CURVE SMOOTH",
"859 -69.333 OFFCURVE",
"876 -81 OFFCURVE",
"898 -85 CURVE"
);
},
{
closed = 1;
nodes = (
"853.833 686 OFFCURVE",
"867 700.167 OFFCURVE",
"867 719.5 CURVE SMOOTH",
"867 738.833 OFFCURVE",
"852.833 752 OFFCURVE",
"833.5 752 CURVE SMOOTH",
"814.167 752 OFFCURVE",
"801 737.833 OFFCURVE",
"801 718.5 CURVE SMOOTH",
"801 699.167 OFFCURVE",
"815.167 686 OFFCURVE",
"834.5 686 CURVE SMOOTH"
);
},
{
closed = 1;
nodes = (
"982.833 686 OFFCURVE",
"996 700.167 OFFCURVE",
"996 719.5 CURVE SMOOTH",
"996 738.833 OFFCURVE",
"981.833 752 OFFCURVE",
"962.5 752 CURVE SMOOTH",
"943.167 752 OFFCURVE",
"930 737.833 OFFCURVE",
"930 718.5 CURVE SMOOTH",
"930 699.167 OFFCURVE",
"944.167 686 OFFCURVE",
"963.5 686 CURVE SMOOTH"
);
}
);
width = 942;
}
);
note = Udieresis;
unicode = 00DC;
},
{
glyphname = Ugrave;
lastChange = "2020-12-20 20:29:43 +0000";
layers = (
{
layerId = "1691882E-B915-4755-A5B2-757873D945FF";
paths = (
{
closed = 1;
nodes = (
"910 -85 LINE",
"924.667 -83 OFFCURVE",
"932 -78 OFFCURVE",
"932 -70 CURVE SMOOTH",
"932 -64.667 OFFCURVE",
"926 -62 OFFCURVE",
"914 -62 CURVE SMOOTH",
"903 -62 LINE SMOOTH",
"878.333 -62 OFFCURVE",
"866 -39 OFFCURVE",
"866 7 CURVE SMOOTH",
"866 29.667 OFFCURVE",
"868.333 55 OFFCURVE",
"873 83 CURVE SMOOTH",
"890.333 185.667 OFFCURVE",
"926.667 286.667 OFFCURVE",
"982 386 CURVE SMOOTH",
"998.667 415.333 OFFCURVE",
"1007 437.667 OFFCURVE",
"1007 453 CURVE SMOOTH",
"1007 465.667 OFFCURVE",
"1000.333 475.333 OFFCURVE",
"987 482 CURVE",
"969.667 482 OFFCURVE",
"951 464.333 OFFCURVE",
"931 429 CURVE SMOOTH",
"866.5 301.5 LINE SMOOTH",
"824.167 217.167 OFFCURVE",
"789.667 155.667 OFFCURVE",
"763 117 CURVE SMOOTH",
"736 80 LINE SMOOTH",
"682 13.333 OFFCURVE",
"635 -20 OFFCURVE",
"595 -20 CURVE SMOOTH",
"557.667 -20 OFFCURVE",
"539 8 OFFCURVE",
"539 64 CURVE SMOOTH",
"539 124 OFFCURVE",
"568.833 219.5 OFFCURVE",
"609.5 305.5 CURVE SMOOTH",
"629.833 348.5 OFFCURVE",
"651 396 OFFCURVE",
"673 448 CURVE SMOOTH",
"711 536 OFFCURVE",
"730 609.667 OFFCURVE",
"730 669 CURVE SMOOTH",
"730 748.333 OFFCURVE",
"697.667 802 OFFCURVE",
"633 830 CURVE SMOOTH",
"601 843.333 OFFCURVE",
"566.333 850 OFFCURVE",
"529 850 CURVE SMOOTH",
"457.667 850 OFFCURVE",
"383.667 828.667 OFFCURVE",
"307 786 CURVE SMOOTH",
"218.333 737.333 OFFCURVE",
"147.667 680 OFFCURVE",
"95 614 CURVE SMOOTH",
"29.667 532 OFFCURVE",
"-3 448.167 OFFCURVE",
"-3 362.5 CURVE SMOOTH",
"-3 276.833 OFFCURVE",
"24.333 213 OFFCURVE",
"79 171 CURVE SMOOTH",
"111 146.333 OFFCURVE",
"147.667 134 OFFCURVE",
"189 134 CURVE SMOOTH",
"230.333 134 OFFCURVE",
"273.667 148 OFFCURVE",
"319 176 CURVE SMOOTH",
"380.333 212.667 OFFCURVE",
"423.667 264.667 OFFCURVE",
"449 332 CURVE SMOOTH",
"460.333 362.667 OFFCURVE",
"466 389.333 OFFCURVE",
"466 412 CURVE SMOOTH",
"466 434.667 OFFCURVE",
"461.333 454.333 OFFCURVE",
"452 471 CURVE SMOOTH",
"438 494.333 OFFCURVE",
"417.333 506 OFFCURVE",
"390 506 CURVE SMOOTH",
"354 506 OFFCURVE",
"310 484.667 OFFCURVE",
"306 474 CURVE SMOOTH",
"304.667 470 OFFCURVE",
"312.167 469.833 OFFCURVE",
"328.5 473.5 CURVE SMOOTH",
"344.833 477.167 OFFCURVE",
"358.333 479 OFFCURVE",
"369 479 CURVE SMOOTH",
"414.333 479 OFFCURVE",
"437 454 OFFCURVE",
"437 404 CURVE SMOOTH",
"437 370 OFFCURVE",
"423.667 331 OFFCURVE",
"397 287 CURVE SMOOTH",
"348.333 204.333 OFFCURVE",
"283.333 163 OFFCURVE",
"202 163 CURVE SMOOTH",
"132.667 163 OFFCURVE",
"84 197 OFFCURVE",
"56 265 CURVE SMOOTH",
"43.333 295 OFFCURVE",
"37 328.5 OFFCURVE",
"37 365.5 CURVE SMOOTH",
"37 402.5 OFFCURVE",
"45.667 443.333 OFFCURVE",
"63 488 CURVE SMOOTH",
"105 594.667 OFFCURVE",
"185.667 683 OFFCURVE",
"305 753 CURVE SMOOTH",
"385.667 799.667 OFFCURVE",
"461.333 823 OFFCURVE",
"532 823 CURVE SMOOTH",
"571.333 823 OFFCURVE",
"606.667 814.667 OFFCURVE",
"638 798 CURVE SMOOTH",
"664 782.667 OFFCURVE",
"677 750.667 OFFCURVE",
"677 702 CURVE SMOOTH",
"677 636.667 OFFCURVE",
"663.167 566.667 OFFCURVE",
"594.5 416 CURVE SMOOTH",
"560.167 340.667 OFFCURVE",
"532.667 273.5 OFFCURVE",
"512 214.5 CURVE SMOOTH",
"491.333 155.5 OFFCURVE",
"481 107.833 OFFCURVE",
"481 71.5 CURVE SMOOTH",
"481 35.167 OFFCURVE",
"491 5 OFFCURVE",
"511 -19 CURVE SMOOTH",
"526.333 -37 OFFCURVE",
"548 -46 OFFCURVE",
"576 -46 CURVE SMOOTH",
"614.667 -46 OFFCURVE",
"655.667 -28.667 OFFCURVE",
"699 6 CURVE SMOOTH",
"745 43.333 OFFCURVE",
"791.667 101 OFFCURVE",
"839 179 CURVE",
"830.333 137.667 OFFCURVE",
"826 98 OFFCURVE",
"826 60 CURVE SMOOTH",
"826 33.333 OFFCURVE",
"823 -11.333 OFFCURVE",
"847 -50 CURVE SMOOTH",
"859 -69.333 OFFCURVE",
"876 -81 OFFCURVE",
"898 -85 CURVE"
);
},
{
closed = 1;
nodes = (
"1001.667 715 OFFCURVE",
"1005 718 OFFCURVE",
"1005 724 CURVE SMOOTH",
"1005 732 OFFCURVE",
"857.333 850 OFFCURVE",
"840 850 CURVE SMOOTH",
"827.333 850 OFFCURVE",
"821 842 OFFCURVE",
"821 826 CURVE SMOOTH",
"821 810 OFFCURVE",
"833.333 796 OFFCURVE",
"858 784 CURVE SMOOTH",
"926.5 748 LINE SMOOTH",
"968.167 726 OFFCURVE",
"991 715 OFFCURVE",
"995 715 CURVE SMOOTH"
);
}
);
width = 942;
}
);
note = Ugrave;
unicode = 00D9;
},
{
glyphname = V;
lastChange = "2020-12-23 22:56:59 +0000";
layers = (
{
layerId = "1691882E-B915-4755-A5B2-757873D945FF";
paths = (
{
closed = 1;
nodes = (
"502 -88 OFFCURVE",
"533 -94 CURVE SMOOTH",
"618 -110 OFFCURVE",
"791 25 OFFCURVE",
"891 148.5 CURVE SMOOTH",
"962 237 OFFCURVE",
"1052 381 OFFCURVE",
"1052 484.5 CURVE SMOOTH",
"1052 511.5 OFFCURVE",
"1045.667 534.667 OFFCURVE",
"1033 554 CURVE SMOOTH",
"1010.333 588.667 OFFCURVE",
"985 616 OFFCURVE",
"953 619 CURVE SMOOTH",
"904.344 616.438 OFFCURVE",
"920 573 OFFCURVE",
"970 588 CURVE SMOOTH",
"980 591 OFFCURVE",
"1000 548.528 OFFCURVE",
"1000 503 CURVE SMOOTH",
"1000 455 OFFCURVE",
"986.667 402.333 OFFCURVE",
"960 345 CURVE SMOOTH",
"918.667 255 OFFCURVE",
"861.667 172.333 OFFCURVE",
"789 97 CURVE SMOOTH",
"685.667 -10.333 OFFCURVE",
"613.333 -64 OFFCURVE",
"572 -64 CURVE SMOOTH",
"551.333 -64 OFFCURVE",
"541 -48.667 OFFCURVE",
"541 -18 CURVE SMOOTH",
"541 22.667 OFFCURVE",
"558.333 95.333 OFFCURVE",
"593 200 CURVE SMOOTH",
"616.333 270.667 OFFCURVE",
"643 336.667 OFFCURVE",
"673 398 CURVE SMOOTH",
"721 496.667 OFFCURVE",
"745 579.333 OFFCURVE",
"745 646 CURVE SMOOTH",
"745 736.667 OFFCURVE",
"712.667 796 OFFCURVE",
"648 824 CURVE SMOOTH",
"611.333 838 OFFCURVE",
"570.667 845 OFFCURVE",
"526 845 CURVE SMOOTH",
"481.333 845 OFFCURVE",
"433.667 835.333 OFFCURVE",
"383 816 CURVE SMOOTH",
"180.73 741.479 OFFCURVE",
"-8 565.772 OFFCURVE",
"-8 365 CURVE SMOOTH",
"-8 248 OFFCURVE",
"79 135 OFFCURVE",
"196.5 135 CURVE SMOOTH",
"285.167 135 OFFCURVE",
"383.5 189.5 OFFCURVE",
"445.5 271.5 CURVE SMOOTH",
"498 341 OFFCURVE",
"515 437 OFFCURVE",
"453 485 CURVE SMOOTH",
"413.503 513.212 OFFCURVE",
"336 501.602 OFFCURVE",
"336 472.5 CURVE SMOOTH",
"336 458 OFFCURVE",
"380 477 OFFCURVE",
"393 477 CURVE SMOOTH",
"418 477 OFFCURVE",
"448 452 OFFCURVE",
"448 392 CURVE SMOOTH",
"448 281.333 OFFCURVE",
"329 161 OFFCURVE",
"217 161 CURVE SMOOTH",
"109 161 OFFCURVE",
"49 244 OFFCURVE",
"49 342 CURVE SMOOTH",
"49 416.667 OFFCURVE",
"82.667 515.833 OFFCURVE",
"152 600.5 CURVE SMOOTH",
"240 708 OFFCURVE",
"405 820 OFFCURVE",
"540 820 CURVE SMOOTH",
"611 820 OFFCURVE",
"677 802 OFFCURVE",
"685 732 CURVE SMOOTH",
"690 699 OFFCURVE",
"686 664 OFFCURVE",
"678 628 CURVE SMOOTH",
"662.667 557.333 OFFCURVE",
"639 484.667 OFFCURVE",
"607 410 CURVE SMOOTH",
"524.333 212.667 OFFCURVE",
"483 73 OFFCURVE",
"483 -9 CURVE SMOOTH",
"483 -62 OFFCURVE"
);
}
);
width = 975;
}
);
note = V;
unicode = 0056;
},
{
glyphname = W;
lastChange = "2020-12-23 23:00:55 +0000";
layers = (
{
layerId = "1691882E-B915-4755-A5B2-757873D945FF";
paths = (
{
closed = 1;
nodes = (
"545 -124 OFFCURVE",
"574.333 -111 OFFCURVE",
"609 -85 CURVE SMOOTH",
"641.667 -60.333 OFFCURVE",
"673.667 -29.333 OFFCURVE",
"705 8 CURVE SMOOTH",
"762.333 78 OFFCURVE",
"809 143 OFFCURVE",
"845 203 CURVE",
"828 148 OFFCURVE",
"818 68 OFFCURVE",
"831 23 CURVE SMOOTH",
"847 -41 OFFCURVE",
"889.667 -73 OFFCURVE",
"959 -73 CURVE SMOOTH",
"1092.333 -73 OFFCURVE",
"1281.667 59.667 OFFCURVE",
"1347 225 CURVE SMOOTH",
"1373 296 OFFCURVE",
"1389 368 OFFCURVE",
"1379 436 CURVE SMOOTH",
"1364 532 OFFCURVE",
"1321 593 OFFCURVE",
"1239 609 CURVE SMOOTH",
"1222 612 OFFCURVE",
"1204 614 OFFCURVE",
"1183.5 613 CURVE SMOOTH",
"1171 613 OFFCURVE",
"1137 600 OFFCURVE",
"1137 588 CURVE SMOOTH",
"1137 584 OFFCURVE",
"1141 582 OFFCURVE",
"1149 582 CURVE SMOOTH",
"1182 582 OFFCURVE",
"1177 590 OFFCURVE",
"1211 590 CURVE SMOOTH",
"1287 590 OFFCURVE",
"1333 535 OFFCURVE",
"1333 427 CURVE SMOOTH",
"1333 373 OFFCURVE",
"1316.667 307.667 OFFCURVE",
"1284 231 CURVE SMOOTH",
"1255.333 163 OFFCURVE",
"1202.333 98.333 OFFCURVE",
"1125 37 CURVE SMOOTH",
"1054.333 -19.667 OFFCURVE",
"995 -48 OFFCURVE",
"947 -48 CURVE SMOOTH",
"895.667 -48 OFFCURVE",
"870 -16.333 OFFCURVE",
"870 47 CURVE SMOOTH",
"870 88.016 OFFCURVE",
"877 127 OFFCURVE",
"926 247.5 CURVE SMOOTH",
"978 375 LINE SMOOTH",
"982 386 OFFCURVE",
"983 397.667 OFFCURVE",
"983 411 CURVE SMOOTH",
"983 424.333 OFFCURVE",
"978.667 433.333 OFFCURVE",
"970 438 CURVE SMOOTH",
"947 447 OFFCURVE",
"925 420 OFFCURVE",
"910 400 CURVE SMOOTH",
"891 373 OFFCURVE",
"858 320.667 OFFCURVE",
"812 242 CURVE SMOOTH",
"720 84.667 OFFCURVE",
"633 -43.333 OFFCURVE",
"561 -86 CURVE SMOOTH",
"549 -94 OFFCURVE",
"538.667 -98 OFFCURVE",
"530 -98 CURVE SMOOTH",
"513.333 -98 OFFCURVE",
"505 -86 OFFCURVE",
"505 -62 CURVE SMOOTH",
"505 -28 OFFCURVE",
"525 45 OFFCURVE",
"565 157 CURVE SMOOTH",
"593 235.667 OFFCURVE",
"622.333 309.333 OFFCURVE",
"653 378 CURVE SMOOTH",
"697.667 479.333 OFFCURVE",
"720 562.667 OFFCURVE",
"720 628 CURVE SMOOTH",
"720 707.333 OFFCURVE",
"688 761 OFFCURVE",
"624 789 CURVE SMOOTH",
"540 821 OFFCURVE",
"449 812 OFFCURVE",
"365 780 CURVE SMOOTH",
"180.174 706.576 OFFCURVE",
"-17 530.184 OFFCURVE",
"-17 324 CURVE SMOOTH",
"-17 274 OFFCURVE",
"0 212 OFFCURVE",
"37 169 CURVE SMOOTH",
"75.667 122.333 OFFCURVE",
"127.667 99 OFFCURVE",
"193 99 CURVE SMOOTH",
"249 99 OFFCURVE",
"313 125 OFFCURVE",
"360 167 CURVE SMOOTH",
"422 223 OFFCURVE",
"460 305 OFFCURVE",
"460 365 CURVE SMOOTH",
"460 417 OFFCURVE",
"432 464 OFFCURVE",
"369 464 CURVE SMOOTH",
"334.333 464 OFFCURVE",
"291.333 450.333 OFFCURVE",
"290 441 CURVE SMOOTH",
"288.253 428.77 OFFCURVE",
"317.064 440 OFFCURVE",
"337 440 CURVE SMOOTH",
"385.667 440 OFFCURVE",
"410 412.667 OFFCURVE",
"410 358 CURVE SMOOTH",
"410 272 OFFCURVE",
"327 125 OFFCURVE",
"191 125 CURVE SMOOTH",
"144.333 125 OFFCURVE",
"108 140 OFFCURVE",
"82 170 CURVE SMOOTH",
"54 203.333 OFFCURVE",
"44 245.5 OFFCURVE",
"44 275.5 CURVE SMOOTH",
"44 507 OFFCURVE",
"293 784 OFFCURVE",
"533 784 CURVE SMOOTH",
"603.667 784 OFFCURVE",
"663 756.333 OFFCURVE",
"663 671 CURVE SMOOTH",
"663 605 OFFCURVE",
"635.667 506 OFFCURVE",
"581 374 CURVE SMOOTH",
"493.667 166.667 OFFCURVE",
"450 29.333 OFFCURVE",
"450 -38 CURVE SMOOTH",
"450 -95.333 OFFCURVE",
"473.667 -124 OFFCURVE",
"521 -124 CURVE SMOOTH"
);
}
);
width = 1344;
}
);
note = W;
unicode = 0057;
},
{
glyphname = X;
lastChange = "2020-12-20 20:29:42 +0000";
layers = (
{
layerId = "1691882E-B915-4755-A5B2-757873D945FF";
paths = (
{
closed = 1;
nodes = (
"-87 -220 OFFCURVE",
"-66.667 -203 OFFCURVE",
"-46 -169 CURVE SMOOTH",
"58 -5.667 OFFCURVE",
"239.667 169.667 OFFCURVE",
"499 357 CURVE",
"497.667 283 OFFCURVE",
"497 212.333 OFFCURVE",
"497 145 CURVE SMOOTH",
"497 77.667 OFFCURVE",
"499 35 OFFCURVE",
"503 17 CURVE SMOOTH",
"520.437 -65.427 OFFCURVE",
"578.84 -122.748 OFFCURVE",
"680 -66 CURVE SMOOTH",
"752 -25.333 OFFCURVE",
"818 58 OFFCURVE",
"878 184 CURVE SMOOTH",
"888.667 206.667 OFFCURVE",
"870.333 209 OFFCURVE",
"861 189 CURVE SMOOTH",
"845.667 153.667 OFFCURVE",
"828.333 121.333 OFFCURVE",
"809 92 CURVE SMOOTH",
"755 10 OFFCURVE",
"703 -31 OFFCURVE",
"653 -31 CURVE SMOOTH",
"617 -31 OFFCURVE",
"591.333 -3 OFFCURVE",
"576 53 CURVE SMOOTH",
"565.333 93.667 OFFCURVE",
"560 171.667 OFFCURVE",
"560 287 CURVE SMOOTH",
"560 320.333 OFFCURVE",
"560.333 356.333 OFFCURVE",
"561 395 CURVE",
"694.036 489.568 OFFCURVE",
"853.686 596.727 OFFCURVE",
"975 683.5 CURVE SMOOTH",
"1050.845 737.75 OFFCURVE",
"1105 785.222 OFFCURVE",
"1105 804 CURVE SMOOTH",
"1105 812.667 OFFCURVE",
"1097.333 817 OFFCURVE",
"1082 817 CURVE SMOOTH",
"1080 817 OFFCURVE",
"1076.333 816 OFFCURVE",
"1071 814 CURVE SMOOTH",
"1061.334 809.167 OFFCURVE",
"1060.599 807.14 OFFCURVE",
"1039.5 789 CURVE SMOOTH",
"1009 759 LINE SMOOTH",
"921.291 671.291 OFFCURVE",
"782.62 587.989 OFFCURVE",
"560 433 CURVE",
"560 463.634 OFFCURVE",
"561.853 528.819 OFFCURVE",
"553 630 CURVE SMOOTH",
"550.333 668 OFFCURVE",
"539.667 704 OFFCURVE",
"521 738 CURVE SMOOTH",
"503.667 771.333 OFFCURVE",
"474.333 788 OFFCURVE",
"433 788 CURVE SMOOTH",
"354.333 788 OFFCURVE",
"232.333 714.5 OFFCURVE",
"167 660.5 CURVE SMOOTH",
"134.333 633.5 OFFCURVE",
"115 615.333 OFFCURVE",
"109 606 CURVE SMOOTH",
"97.667 588.667 OFFCURVE",
"99.333 578 OFFCURVE",
"114 574 CURVE SMOOTH",
"119.333 572 OFFCURVE",
"123 572 OFFCURVE",
"125 574 CURVE",
"136.333 598.667 OFFCURVE",
"160.333 625 OFFCURVE",
"197 653 CURVE SMOOTH",
"269 709 OFFCURVE",
"336.333 737 OFFCURVE",
"399 737 CURVE SMOOTH",
"450.333 737 OFFCURVE",
"480 710.667 OFFCURVE",
"488 658 CURVE SMOOTH",
"494.667 612 OFFCURVE",
"498 561 OFFCURVE",
"498 505 CURVE SMOOTH",
"498 395 LINE",
"233.333 206.333 OFFCURVE",
"33.333 18.333 OFFCURVE",
"-102 -169 CURVE",
"-114 -189 LINE SMOOTH",
"-118.667 -197 OFFCURVE",
"-121 -203.667 OFFCURVE",
"-121 -209 CURVE SMOOTH",
"-121 -216.333 OFFCURVE",
"-116.333 -220 OFFCURVE",
"-107 -220 CURVE SMOOTH"
);
}
);
width = 807;
}
);
note = X;
unicode = 0058;
},
{
glyphname = Y;
lastChange = "2020-12-23 23:04:05 +0000";
layers = (
{
layerId = "1691882E-B915-4755-A5B2-757873D945FF";
paths = (
{
closed = 1;
nodes = (
"415 -427 OFFCURVE",
"660 -362 OFFCURVE",
"799 -154 CURVE",
"937 -150 OFFCURVE",
"1061 -156 OFFCURVE",
"1106 -87 CURVE SMOOTH",
"1125 -55 OFFCURVE",
"1126 -37 OFFCURVE",
"1115 -17 CURVE SMOOTH",
"1113 -14 OFFCURVE",
"1112 -13 OFFCURVE",
"1110 -14 CURVE SMOOTH",
"1107 -15 OFFCURVE",
"1107 -19 OFFCURVE",
"1108 -28 CURVE",
"1102 -61 OFFCURVE",
"1081 -85 OFFCURVE",
"1046 -102 CURVE SMOOTH",
"989 -128 OFFCURVE",
"867 -127 OFFCURVE",
"814 -128 CURVE",
"882 -7 OFFCURVE",
"956 225 OFFCURVE",
"982 338 CURVE SMOOTH",
"1003 430 OFFCURVE",
"1011 483 OFFCURVE",
"983 483 CURVE SMOOTH",
"966 483 OFFCURVE",
"949 469 OFFCURVE",
"943 449 CURVE SMOOTH",
"911 343 OFFCURVE",
"863 239 OFFCURVE",
"800 138 CURVE SMOOTH",
"754 64 OFFCURVE",
"675 -28 OFFCURVE",
"597 -28 CURVE SMOOTH",
"537 -28 OFFCURVE",
"533 35 OFFCURVE",
"542 79 CURVE SMOOTH",
"560 160 OFFCURVE",
"612 274 OFFCURVE",
"698 421 CURVE SMOOTH",
"753 513 OFFCURVE",
"781 597 OFFCURVE",
"781 672 CURVE SMOOTH",
"781 732 OFFCURVE",
"755 790 OFFCURVE",
"684 822 CURVE SMOOTH",
"603 853 OFFCURVE",
"512 847 OFFCURVE",
"422 811 CURVE SMOOTH",
"271 753 OFFCURVE",
"130 644 OFFCURVE",
"55 490 CURVE SMOOTH",
"11 400 OFFCURVE",
"-4 288 OFFCURVE",
"66 203 CURVE SMOOTH",
"176 64 OFFCURVE",
"377 152 OFFCURVE",
"463 308 CURVE SMOOTH",
"487 353 OFFCURVE",
"504 403 OFFCURVE",
"486 451 CURVE SMOOTH",
"474 480 OFFCURVE",
"451 495 OFFCURVE",
"416 495 CURVE SMOOTH",
"387 495 OFFCURVE",
"346 486 OFFCURVE",
"347 475 CURVE SMOOTH",
"348 471 OFFCURVE",
"386 476 OFFCURVE",
"394 476 CURVE SMOOTH",
"424 476 OFFCURVE",
"441 464 OFFCURVE",
"450 446 CURVE SMOOTH",
"467 407 OFFCURVE",
"447 340 OFFCURVE",
"412 283 CURVE SMOOTH",
"327 147 OFFCURVE",
"177 122 OFFCURVE",
"107 214 CURVE SMOOTH",
"59 278 OFFCURVE",
"74 379 OFFCURVE",
"110 469 CURVE SMOOTH",
"181 637 OFFCURVE",
"407 819 OFFCURVE",
"589 819 CURVE SMOOTH",
"664 819 OFFCURVE",
"724 787 OFFCURVE",
"724 706 CURVE SMOOTH",
"724 665 OFFCURVE",
"713 617 OFFCURVE",
"692 560 CURVE SMOOTH",
"673 509 OFFCURVE",
"649 458 OFFCURVE",
"618 408 CURVE SMOOTH",
"519 247 OFFCURVE",
"470 131 OFFCURVE",
"470 58 CURVE SMOOTH",
"470 -11 OFFCURVE",
"513 -54 OFFCURVE",
"586 -54 CURVE SMOOTH",
"721 -54 OFFCURVE",
"836 114 OFFCURVE",
"903 258 CURVE",
"877 160 OFFCURVE",
"831 18 OFFCURVE",
"766 -129 CURVE",
"581 -129 OFFCURVE",
"437 -150 OFFCURVE",
"334 -193 CURVE SMOOTH",
"253 -226 OFFCURVE",
"213 -265 OFFCURVE",
"213 -309 CURVE SMOOTH",
"213 -343 OFFCURVE",
"238 -368 OFFCURVE",
"288 -385 CURVE SMOOTH"
);
},
{
closed = 1;
nodes = (
"267 -295 OFFCURVE",
"286 -263 OFFCURVE",
"350 -235 CURVE SMOOTH",
"448 -192 OFFCURVE",
"577.333 -154 OFFCURVE",
"752 -154 CURVE",
"696 -244.667 OFFCURVE",
"602.833 -310.667 OFFCURVE",
"511.5 -344 CURVE SMOOTH",
"424 -376 OFFCURVE",
"267 -392 OFFCURVE",
"267 -319 CURVE SMOOTH"
);
}
);
width = 959;
}
);
note = Y;
unicode = 0059;
},
{
glyphname = Z;
lastChange = "2020-12-23 23:06:20 +0000";
layers = (
{
layerId = "1691882E-B915-4755-A5B2-757873D945FF";
paths = (
{
closed = 1;
nodes = (
"806 -158 OFFCURVE",
"845 -153 OFFCURVE",
"880 -140 CURVE SMOOTH",
"958 -111 OFFCURVE",
"989 -50 OFFCURVE",
"997.5 -17 CURVE SMOOTH",
"1000 -7 OFFCURVE",
"1004 28 OFFCURVE",
"990 28 CURVE SMOOTH",
"968.532 28 OFFCURVE",
"974.456 -33.803 OFFCURVE",
"936.5 -63 CURVE SMOOTH",
"914.833 -79.667 OFFCURVE",
"889.833 -90.167 OFFCURVE",
"861.5 -94.5 CURVE SMOOTH",
"808 -103 OFFCURVE",
"751 -104 OFFCURVE",
"698 -94 CURVE SMOOTH",
"627 -80 OFFCURVE",
"499.667 -33.333 OFFCURVE",
"317 46 CURVE",
"404.5 118.5 LINE SMOOTH",
"532 224 OFFCURVE",
"605 311 OFFCURVE",
"708 448 CURVE SMOOTH",
"792.667 560 OFFCURVE",
"851.333 631 OFFCURVE",
"884 661 CURVE",
"925.333 651 OFFCURVE",
"959.667 646 OFFCURVE",
"987 646 CURVE SMOOTH",
"1054 646 OFFCURVE",
"1076 689 OFFCURVE",
"1076 716 CURVE SMOOTH",
"1076 733.333 OFFCURVE",
"1066.333 746 OFFCURVE",
"1047 754 CURVE SMOOTH",
"994 779 OFFCURVE",
"913 721 OFFCURVE",
"867 685 CURVE",
"719.5 731 LINE",
"681.5 741.667 OFFCURVE",
"599 766 OFFCURVE",
"523 766 CURVE SMOOTH",
"445 766 OFFCURVE",
"348 744 OFFCURVE",
"306 693 CURVE SMOOTH",
"282.667 665 OFFCURVE",
"271 635.333 OFFCURVE",
"271 604 CURVE SMOOTH",
"271 576.667 OFFCURVE",
"281 551.333 OFFCURVE",
"301 528 CURVE SMOOTH",
"333 492 OFFCURVE",
"393 491 OFFCURVE",
"350 521 CURVE SMOOTH",
"320 541.667 OFFCURVE",
"305 563.833 OFFCURVE",
"305 587.5 CURVE SMOOTH",
"305 611.167 OFFCURVE",
"319.333 634.667 OFFCURVE",
"348 658 CURVE SMOOTH",
"410 706 OFFCURVE",
"494 711 OFFCURVE",
"568 711 CURVE SMOOTH",
"655.333 711 OFFCURVE",
"748.667 697.333 OFFCURVE",
"848 670 CURVE",
"773.333 609.333 OFFCURVE",
"702.333 539.333 OFFCURVE",
"635 460 CURVE SMOOTH",
"583 396.667 OFFCURVE",
"470.333 263.667 OFFCURVE",
"297 61 CURVE",
"242 96 OFFCURVE",
"170 140 OFFCURVE",
"105 140 CURVE SMOOTH",
"37 140 OFFCURVE",
"-3 86 OFFCURVE",
"16 29 CURVE SMOOTH",
"26.667 -5.667 OFFCURVE",
"52 -27.667 OFFCURVE",
"92 -37 CURVE SMOOTH",
"157 -52 OFFCURVE",
"236 -8 OFFCURVE",
"292 32 CURVE",
"377 -16 LINE SMOOTH",
"490.333 -80 OFFCURVE",
"674 -158 OFFCURVE",
"762 -158 CURVE SMOOTH"
);
},
{
closed = 1;
nodes = (
"86.357 -8 OFFCURVE",
"56 21.29 OFFCURVE",
"56 47 CURVE SMOOTH",
"56 83 OFFCURVE",
"84 105 OFFCURVE",
"127.5 105 CURVE SMOOTH",
"181 105 OFFCURVE",
"235 77 OFFCURVE",
"278 42 CURVE",
"248.667 16.667 OFFCURVE",
"192 -8 OFFCURVE",
"144 -8 CURVE SMOOTH"
);
},
{
closed = 1;
nodes = (
"964 660 OFFCURVE",
"935.667 665.333 OFFCURVE",
"899 676 CURVE",
"950.333 719.333 OFFCURVE",
"989.667 741 OFFCURVE",
"1017 741 CURVE SMOOTH",
"1039.667 741 OFFCURVE",
"1047 720.667 OFFCURVE",
"1047 710 CURVE SMOOTH",
"1047 671.333 OFFCURVE",
"1024 660 OFFCURVE",
"984 660 CURVE SMOOTH"
);
}
);
width = 677;
}
);
note = Z;
unicode = 005A;
},
{
glyphname = a;
lastChange = "2020-12-23 23:08:14 +0000";
layers = (
{
layerId = "1691882E-B915-4755-A5B2-757873D945FF";
paths = (
{
closed = 1;
nodes = (
"256 -12 OFFCURVE",
"325 53 OFFCURVE",
"405 182 CURVE",
"393 136 OFFCURVE",
"379 71 OFFCURVE",
"404 30 CURVE SMOOTH",
"422 2 OFFCURVE",
"445 -12 OFFCURVE",
"474 -12 CURVE SMOOTH",
"537 -12 OFFCURVE",
"615 81 OFFCURVE",
"707 267 CURVE SMOOTH",
"721 300 OFFCURVE",
"697 305 OFFCURVE",
"686 279 CURVE SMOOTH",
"646 197 OFFCURVE",
"605 131 OFFCURVE",
"564 80 CURVE SMOOTH",
"536 45 OFFCURVE",
"513 27 OFFCURVE",
"494 27 CURVE SMOOTH",
"463 27 OFFCURVE",
"468 72 OFFCURVE",
"481 133 CURVE SMOOTH",
"494 196 OFFCURVE",
"581 362 OFFCURVE",
"617 398 CURVE",
"595 392 OFFCURVE",
"572 404 OFFCURVE",
"549 404 CURVE SMOOTH",
"509 404 OFFCURVE",
"490 382 OFFCURVE",
"452 308 CURVE SMOOTH",
"355 124 OFFCURVE",
"276 32 OFFCURVE",
"216 32 CURVE SMOOTH",
"191 32 OFFCURVE",
"179 51 OFFCURVE",
"179 90 CURVE SMOOTH",
"179 129 OFFCURVE",
"198 181 OFFCURVE",
"237 246 CURVE SMOOTH",
"268 300 OFFCURVE",
"302 347 OFFCURVE",
"338 387 CURVE SMOOTH",
"401 455 OFFCURVE",
"454 489 OFFCURVE",
"497 489 CURVE SMOOTH",
"534 489 OFFCURVE",
"543 463 OFFCURVE",
"569 435 CURVE SMOOTH",
"587 416 OFFCURVE",
"605 457 OFFCURVE",
"585 479 CURVE SMOOTH",
"553 511 OFFCURVE",
"514 527 OFFCURVE",
"468 527 CURVE SMOOTH",
"417 527 OFFCURVE",
"314 499 OFFCURVE",
"237 410 CURVE SMOOTH",
"152 309 OFFCURVE",
"110 209 OFFCURVE",
"110 111 CURVE SMOOTH",
"110 37 OFFCURVE",
"148 -12 OFFCURVE",
"198 -12 CURVE SMOOTH"
);
}
);
width = 530;
}
);
note = a;
unicode = 0061;
},
{
glyphname = aacute;
lastChange = "2020-12-23 11:19:58 +0000";
layers = (
{
layerId = "1691882E-B915-4755-A5B2-757873D945FF";
paths = (
{
closed = 1;
nodes = (
"256 -51 OFFCURVE",
"325 14 OFFCURVE",
"405 143 CURVE",
"395 107 OFFCURVE",
"390 76 OFFCURVE",
"390 51 CURVE SMOOTH",
"390 26 OFFCURVE",
"395 6 OFFCURVE",
"404 -9 CURVE SMOOTH",
"422 -37 OFFCURVE",
"445 -51 OFFCURVE",
"474 -51 CURVE SMOOTH",
"537 -51 OFFCURVE",
"615 42 OFFCURVE",
"707 228 CURVE SMOOTH",
"710 235 OFFCURVE",
"711 241 OFFCURVE",
"711 246 CURVE SMOOTH",
"711 255 OFFCURVE",
"707 258 OFFCURVE",
"699 255 CURVE SMOOTH",
"694 254 OFFCURVE",
"690 249 OFFCURVE",
"686 240 CURVE SMOOTH",
"646 158 OFFCURVE",
"605 92 OFFCURVE",
"564 41 CURVE SMOOTH",
"536 6 OFFCURVE",
"513 -12 OFFCURVE",
"494 -12 CURVE SMOOTH",
"463 -12 OFFCURVE",
"468 33 OFFCURVE",
"481 94 CURVE SMOOTH",
"494 157 OFFCURVE",
"581 323 OFFCURVE",
"617 359 CURVE",
"609 357 OFFCURVE",
"597 357 OFFCURVE",
"580 360 CURVE SMOOTH",
"564 363 OFFCURVE",
"553 365 OFFCURVE",
"549 365 CURVE SMOOTH",
"509 365 OFFCURVE",
"490 342 OFFCURVE",
"452 269 CURVE SMOOTH",
"355 84 OFFCURVE",
"276 -8 OFFCURVE",
"216 -8 CURVE SMOOTH",
"191 -8 OFFCURVE",
"179 12 OFFCURVE",
"179 51 CURVE SMOOTH",
"179 90 OFFCURVE",
"198 142 OFFCURVE",
"237 207 CURVE SMOOTH",
"268 261 OFFCURVE",
"302 308 OFFCURVE",
"338 348 CURVE SMOOTH",
"401 416 OFFCURVE",
"454 450 OFFCURVE",
"497 450 CURVE SMOOTH",
"534 450 OFFCURVE",
"558 432 OFFCURVE",
"569 396 CURVE",
"595 392 OFFCURVE",
"605 417 OFFCURVE",
"585 440 CURVE SMOOTH",
"553 471 OFFCURVE",
"514 488 OFFCURVE",
"468 488 CURVE SMOOTH",
"451 488 OFFCURVE",
"433 485 OFFCURVE",
"414 480 CURVE SMOOTH",
"344 463 OFFCURVE",
"285 426 OFFCURVE",
"237 371 CURVE SMOOTH",
"152 270 OFFCURVE",
"110 170 OFFCURVE",
"110 72 CURVE SMOOTH",
"110 21 OFFCURVE",
"125 -15 OFFCURVE",
"155 -36 CURVE SMOOTH",
"168 -46 OFFCURVE",
"182 -51 OFFCURVE",
"198 -51 CURVE SMOOTH"
);
},
{
closed = 1;
nodes = (
"415 570 OFFCURVE",
"414 570 OFFCURVE",
"423 576 CURVE SMOOTH",
"450 597 LINE",
"438 589 OFFCURVE",
"429 582 OFFCURVE",
"423 576 CURVE SMOOTH",
"422 575 LINE SMOOTH"
);
},
{
closed = 1;
nodes = (
"435 543 OFFCURVE",
"682 653 OFFCURVE",
"692 677 CURVE SMOOTH",
"705 704 OFFCURVE",
"688 721 OFFCURVE",
"645 723 CURVE SMOOTH",
"616 723 OFFCURVE",
"590 697 OFFCURVE",
"536 659 CURVE SMOOTH",
"487 625 OFFCURVE",
"438 587 OFFCURVE",
"422 575 CURVE SMOOTH",
"393 549 OFFCURVE",
"407 542 OFFCURVE",
"413 543 CURVE SMOOTH"
);
}
);
width = 530;
}
);
leftMetricsKey = a;
note = aacute;
rightMetricsKey = a;
unicode = 00E1;
},
{
glyphname = acircumflex;
lastChange = "2020-12-23 11:19:58 +0000";
layers = (
{
layerId = "1691882E-B915-4755-A5B2-757873D945FF";
paths = (
{
closed = 1;
nodes = (
"256 -52 OFFCURVE",
"325 13 OFFCURVE",
"405 142 CURVE",
"395 106 OFFCURVE",
"390 75 OFFCURVE",
"390 50 CURVE SMOOTH",
"390 25 OFFCURVE",
"395 5 OFFCURVE",
"404 -10 CURVE SMOOTH",
"422 -38 OFFCURVE",
"445 -52 OFFCURVE",
"474 -52 CURVE SMOOTH",
"537 -52 OFFCURVE",
"615 41 OFFCURVE",
"707 227 CURVE SMOOTH",
"710 234 OFFCURVE",
"711 240 OFFCURVE",
"711 245 CURVE SMOOTH",
"711 254 OFFCURVE",
"707 257 OFFCURVE",
"699 254 CURVE SMOOTH",
"694 253 OFFCURVE",
"690 248 OFFCURVE",
"686 239 CURVE SMOOTH",
"646 157 OFFCURVE",
"605 91 OFFCURVE",
"564 40 CURVE SMOOTH",
"536 5 OFFCURVE",
"513 -13 OFFCURVE",
"494 -13 CURVE SMOOTH",
"463 -13 OFFCURVE",
"468 32 OFFCURVE",
"481 93 CURVE SMOOTH",
"494 156 OFFCURVE",
"581 322 OFFCURVE",
"617 358 CURVE",
"609 356 OFFCURVE",
"597 356 OFFCURVE",
"580 359 CURVE SMOOTH",
"564 362 OFFCURVE",
"553 364 OFFCURVE",
"549 364 CURVE SMOOTH",
"509 364 OFFCURVE",
"490 341 OFFCURVE",
"452 268 CURVE SMOOTH",
"355 83 OFFCURVE",
"276 -9 OFFCURVE",
"216 -9 CURVE SMOOTH",
"191 -9 OFFCURVE",
"179 11 OFFCURVE",
"179 50 CURVE SMOOTH",
"179 89 OFFCURVE",
"198 141 OFFCURVE",
"237 206 CURVE SMOOTH",
"268 260 OFFCURVE",
"302 307 OFFCURVE",
"338 347 CURVE SMOOTH",
"401 415 OFFCURVE",
"454 449 OFFCURVE",
"497 449 CURVE SMOOTH",
"534 449 OFFCURVE",
"558 431 OFFCURVE",
"569 395 CURVE",
"595 391 OFFCURVE",
"605 416 OFFCURVE",
"585 439 CURVE SMOOTH",
"553 470 OFFCURVE",
"514 487 OFFCURVE",
"468 487 CURVE SMOOTH",
"451 487 OFFCURVE",
"433 484 OFFCURVE",
"414 479 CURVE SMOOTH",
"344 462 OFFCURVE",
"285 425 OFFCURVE",
"237 370 CURVE SMOOTH",
"152 269 OFFCURVE",
"110 169 OFFCURVE",
"110 71 CURVE SMOOTH",
"110 20 OFFCURVE",
"125 -16 OFFCURVE",
"155 -37 CURVE SMOOTH",
"168 -47 OFFCURVE",
"182 -52 OFFCURVE",
"198 -52 CURVE SMOOTH"
);
},
{
closed = 1;
nodes = (
"373 542 OFFCURVE",
"425 560 OFFCURVE",
"393 566 CURVE",
"591 673 LINE",
"660 566 LINE SMOOTH",
"667 555 OFFCURVE",
"699 552 OFFCURVE",
"690 566 CURVE",
"636 725 LINE",
"636 727 OFFCURVE",
"631 728 OFFCURVE",
"621 728 CURVE SMOOTH",
"611 728 OFFCURVE",
"597 727 OFFCURVE",
"579 725 CURVE",
"356 566 LINE"
);
}
);
width = 530;
}
);
leftMetricsKey = a;
note = acircumflex;
rightMetricsKey = a;
unicode = 00E2;
},
{
glyphname = adieresis;
lastChange = "2020-12-23 11:19:58 +0000";
layers = (
{
layerId = "1691882E-B915-4755-A5B2-757873D945FF";
paths = (
{
closed = 1;
nodes = (
"256 -46 OFFCURVE",
"325 19 OFFCURVE",
"405 148 CURVE",
"395 112 OFFCURVE",
"390 82 OFFCURVE",
"390 57 CURVE SMOOTH",
"390 31 OFFCURVE",
"395 12 OFFCURVE",
"404 -4 CURVE SMOOTH",
"422 -32 OFFCURVE",
"445 -46 OFFCURVE",
"474 -46 CURVE SMOOTH",
"537 -46 OFFCURVE",
"615 48 OFFCURVE",
"707 234 CURVE SMOOTH",
"710 241 OFFCURVE",
"711 247 OFFCURVE",
"711 252 CURVE SMOOTH",
"711 261 OFFCURVE",
"707 264 OFFCURVE",
"699 261 CURVE SMOOTH",
"694 259 OFFCURVE",
"690 255 OFFCURVE",
"686 246 CURVE SMOOTH",
"646 163 OFFCURVE",
"605 97 OFFCURVE",
"564 46 CURVE SMOOTH",
"536 11 OFFCURVE",
"513 -7 OFFCURVE",
"494 -7 CURVE SMOOTH",
"463 -7 OFFCURVE",
"468 38 OFFCURVE",
"481 99 CURVE SMOOTH",
"494 162 OFFCURVE",
"581 328 OFFCURVE",
"617 364 CURVE",
"609 362 OFFCURVE",
"597 363 OFFCURVE",
"580 366 CURVE SMOOTH",
"564 369 OFFCURVE",
"553 370 OFFCURVE",
"549 370 CURVE SMOOTH",
"509 370 OFFCURVE",
"490 348 OFFCURVE",
"452 274 CURVE SMOOTH",
"355 90 OFFCURVE",
"276 -2 OFFCURVE",
"216 -2 CURVE SMOOTH",
"191 -2 OFFCURVE",
"179 18 OFFCURVE",
"179 57 CURVE SMOOTH",
"179 96 OFFCURVE",
"198 148 OFFCURVE",
"237 213 CURVE SMOOTH",
"268 267 OFFCURVE",
"302 313 OFFCURVE",
"338 354 CURVE SMOOTH",
"401 421 OFFCURVE",
"454 456 OFFCURVE",
"497 456 CURVE SMOOTH",
"534 456 OFFCURVE",
"558 438 OFFCURVE",
"569 402 CURVE",
"595 397 OFFCURVE",
"605 423 OFFCURVE",
"585 445 CURVE SMOOTH",
"553 477 OFFCURVE",
"514 493 OFFCURVE",
"468 493 CURVE SMOOTH",
"451 493 OFFCURVE",
"433 490 OFFCURVE",
"414 486 CURVE SMOOTH",
"344 469 OFFCURVE",
"285 432 OFFCURVE",
"237 376 CURVE SMOOTH",
"152 275 OFFCURVE",
"110 175 OFFCURVE",
"110 78 CURVE SMOOTH",
"110 27 OFFCURVE",
"125 -10 OFFCURVE",
"155 -31 CURVE SMOOTH",
"168 -41 OFFCURVE",
"182 -46 OFFCURVE",
"198 -46 CURVE SMOOTH"
);
},
{
closed = 1;
nodes = (
"477 597 OFFCURVE",
"497 618 OFFCURVE",
"497 647 CURVE SMOOTH",
"497 676 OFFCURVE",
"475 696 OFFCURVE",
"447 696 CURVE SMOOTH",
"418 696 OFFCURVE",
"398 674 OFFCURVE",
"398 645 CURVE SMOOTH",
"398 616 OFFCURVE",
"419 597 OFFCURVE",
"448 597 CURVE SMOOTH"
);
},
{
closed = 1;
nodes = (
"670 597 OFFCURVE",
"690 618 OFFCURVE",
"690 647 CURVE SMOOTH",
"690 676 OFFCURVE",
"669 696 OFFCURVE",
"640 696 CURVE SMOOTH",
"611 696 OFFCURVE",
"591 674 OFFCURVE",
"591 645 CURVE SMOOTH",
"591 616 OFFCURVE",
"613 597 OFFCURVE",
"642 597 CURVE SMOOTH"
);
}
);
width = 530;
}
);
leftMetricsKey = a;
note = adieresis;
rightMetricsKey = a;
unicode = 00E4;
},
{
glyphname = agrave;
lastChange = "2020-12-23 11:19:58 +0000";
layers = (
{
layerId = "1691882E-B915-4755-A5B2-757873D945FF";
paths = (
{
closed = 1;
nodes = (
"256 -56 OFFCURVE",
"325 9 OFFCURVE",
"405 138 CURVE",
"395 102 OFFCURVE",
"390 72 OFFCURVE",
"390 47 CURVE SMOOTH",
"390 21 OFFCURVE",
"395 2 OFFCURVE",
"404 -14 CURVE SMOOTH",
"422 -42 OFFCURVE",
"445 -56 OFFCURVE",
"474 -56 CURVE SMOOTH",
"537 -56 OFFCURVE",
"615 38 OFFCURVE",
"707 224 CURVE SMOOTH",
"710 231 OFFCURVE",
"711 237 OFFCURVE",
"711 242 CURVE SMOOTH",
"711 251 OFFCURVE",
"707 254 OFFCURVE",
"699 251 CURVE SMOOTH",
"694 249 OFFCURVE",
"690 245 OFFCURVE",
"686 236 CURVE SMOOTH",
"646 153 OFFCURVE",
"605 87 OFFCURVE",
"564 36 CURVE SMOOTH",
"536 1 OFFCURVE",
"513 -17 OFFCURVE",
"494 -17 CURVE SMOOTH",
"463 -17 OFFCURVE",
"468 28 OFFCURVE",
"481 89 CURVE SMOOTH",
"494 152 OFFCURVE",
"581 318 OFFCURVE",
"617 354 CURVE",
"609 352 OFFCURVE",
"597 353 OFFCURVE",
"580 356 CURVE SMOOTH",
"564 359 OFFCURVE",
"553 360 OFFCURVE",
"549 360 CURVE SMOOTH",
"509 360 OFFCURVE",
"490 338 OFFCURVE",
"452 264 CURVE SMOOTH",
"355 80 OFFCURVE",
"276 -12 OFFCURVE",
"216 -12 CURVE SMOOTH",
"191 -12 OFFCURVE",
"179 8 OFFCURVE",
"179 47 CURVE SMOOTH",
"179 86 OFFCURVE",
"198 138 OFFCURVE",
"237 203 CURVE SMOOTH",
"268 257 OFFCURVE",
"302 303 OFFCURVE",
"338 344 CURVE SMOOTH",
"401 411 OFFCURVE",
"454 446 OFFCURVE",
"497 446 CURVE SMOOTH",
"534 446 OFFCURVE",
"558 428 OFFCURVE",
"569 392 CURVE",
"595 387 OFFCURVE",
"605 413 OFFCURVE",
"585 435 CURVE SMOOTH",
"553 467 OFFCURVE",
"514 483 OFFCURVE",
"468 483 CURVE SMOOTH",
"451 483 OFFCURVE",
"433 480 OFFCURVE",
"414 476 CURVE SMOOTH",
"344 459 OFFCURVE",
"285 422 OFFCURVE",
"237 366 CURVE SMOOTH",
"152 265 OFFCURVE",
"110 165 OFFCURVE",
"110 68 CURVE SMOOTH",
"110 17 OFFCURVE",
"125 -20 OFFCURVE",
"155 -41 CURVE SMOOTH",
"168 -51 OFFCURVE",
"182 -56 OFFCURVE",
"198 -56 CURVE SMOOTH"
);
},
{
closed = 1;
nodes = (
"555 543 OFFCURVE",
"560 548 OFFCURVE",
"560 557 CURVE SMOOTH",
"560 569 OFFCURVE",
"338 746 OFFCURVE",
"312 746 CURVE SMOOTH",
"293 746 OFFCURVE",
"284 734 OFFCURVE",
"284 710 CURVE SMOOTH",
"284 686 OFFCURVE",
"302 665 OFFCURVE",
"339 647 CURVE SMOOTH",
"442 593 LINE SMOOTH",
"505 560 OFFCURVE",
"539 543 OFFCURVE",
"545 543 CURVE SMOOTH"
);
}
);
width = 530;
}
);
leftMetricsKey = a;
note = agrave;
rightMetricsKey = a;
unicode = 00E0;
},
{
glyphname = aring;
lastChange = "2020-12-23 11:19:58 +0000";
layers = (
{
layerId = "1691882E-B915-4755-A5B2-757873D945FF";
paths = (
{
closed = 1;
nodes = (
"256 -59 OFFCURVE",
"325 6 OFFCURVE",
"405 135 CURVE",
"395 99 OFFCURVE",
"390 68 OFFCURVE",
"390 43 CURVE SMOOTH",
"390 18 OFFCURVE",
"395 -2 OFFCURVE",
"404 -17 CURVE SMOOTH",
"422 -45 OFFCURVE",
"445 -59 OFFCURVE",
"474 -59 CURVE SMOOTH",
"537 -59 OFFCURVE",
"615 34 OFFCURVE",
"707 220 CURVE SMOOTH",
"710 227 OFFCURVE",
"711 233 OFFCURVE",
"711 238 CURVE SMOOTH",
"711 247 OFFCURVE",
"707 250 OFFCURVE",
"699 247 CURVE SMOOTH",
"694 246 OFFCURVE",
"690 241 OFFCURVE",
"686 232 CURVE SMOOTH",
"646 150 OFFCURVE",
"605 84 OFFCURVE",
"564 33 CURVE SMOOTH",
"536 -2 OFFCURVE",
"513 -20 OFFCURVE",
"494 -20 CURVE SMOOTH",
"463 -20 OFFCURVE",
"468 25 OFFCURVE",
"481 86 CURVE SMOOTH",
"494 149 OFFCURVE",
"581 315 OFFCURVE",
"617 351 CURVE",
"609 349 OFFCURVE",
"597 349 OFFCURVE",
"580 352 CURVE SMOOTH",
"564 355 OFFCURVE",
"553 357 OFFCURVE",
"549 357 CURVE SMOOTH",
"509 357 OFFCURVE",
"490 335 OFFCURVE",
"452 261 CURVE SMOOTH",
"355 77 OFFCURVE",
"276 -15 OFFCURVE",
"216 -15 CURVE SMOOTH",
"191 -15 OFFCURVE",
"179 4 OFFCURVE",
"179 43 CURVE SMOOTH",
"179 82 OFFCURVE",
"198 134 OFFCURVE",
"237 199 CURVE SMOOTH",
"268 253 OFFCURVE",
"302 300 OFFCURVE",
"338 340 CURVE SMOOTH",
"401 408 OFFCURVE",
"454 442 OFFCURVE",
"497 442 CURVE SMOOTH",
"534 442 OFFCURVE",
"558 424 OFFCURVE",
"569 388 CURVE",
"595 384 OFFCURVE",
"605 410 OFFCURVE",
"585 432 CURVE SMOOTH",
"553 464 OFFCURVE",
"514 480 OFFCURVE",
"468 480 CURVE SMOOTH",
"451 480 OFFCURVE",
"433 477 OFFCURVE",
"414 472 CURVE SMOOTH",
"344 455 OFFCURVE",
"285 419 OFFCURVE",
"237 363 CURVE SMOOTH",
"152 262 OFFCURVE",
"110 162 OFFCURVE",
"110 64 CURVE SMOOTH",
"110 13 OFFCURVE",
"125 -23 OFFCURVE",
"155 -44 CURVE SMOOTH",
"168 -54 OFFCURVE",
"182 -59 OFFCURVE",
"198 -59 CURVE SMOOTH"
);
},
{
closed = 1;
nodes = (
"652 660 OFFCURVE",
"653 710 OFFCURVE",
"618 741 CURVE",
"597 754 OFFCURVE",
"559 755 OFFCURVE",
"534 754 CURVE",
"476 733 LINE",
"454 716 OFFCURVE",
"443 695 OFFCURVE",
"443 669 CURVE SMOOTH",
"443 606 OFFCURVE",
"537 573 OFFCURVE",
"609 627 CURVE SMOOTH"
);
},
{
closed = 1;
nodes = (
"478 625 OFFCURVE",
"482 733 OFFCURVE",
"546 738 CURVE SMOOTH",
"572 740 OFFCURVE",
"590 716 OFFCURVE",
"588 684 CURVE SMOOTH",
"584 652 OFFCURVE",
"563 625 OFFCURVE",
"537 625 CURVE SMOOTH"
);
},
{
closed = 1;
nodes = (
"555 762 LINE",
"494 749 OFFCURVE",
"504 753 OFFCURVE",
"534 754 CURVE"
);
}
);
width = 530;
}
);
leftMetricsKey = a;
note = aring;
rightMetricsKey = a;
unicode = 00E5;
},
{
glyphname = atilde;
lastChange = "2020-12-23 11:19:58 +0000";
layers = (
{
layerId = "1691882E-B915-4755-A5B2-757873D945FF";
paths = (
{
closed = 1;
nodes = (
"257 -54 OFFCURVE",
"326 11 OFFCURVE",
"406 140 CURVE",
"395 104 OFFCURVE",
"391 73 OFFCURVE",
"391 48 CURVE SMOOTH",
"391 23 OFFCURVE",
"395 3 OFFCURVE",
"404 -12 CURVE SMOOTH",
"422 -40 OFFCURVE",
"446 -54 OFFCURVE",
"475 -54 CURVE SMOOTH",
"538 -54 OFFCURVE",
"615 39 OFFCURVE",
"707 225 CURVE SMOOTH",
"726 268 OFFCURVE",
"681 253 OFFCURVE",
"686 237 CURVE",
"646 155 OFFCURVE",
"605 89 OFFCURVE",
"565 38 CURVE SMOOTH",
"536 3 OFFCURVE",
"513 -15 OFFCURVE",
"494 -15 CURVE SMOOTH",
"463 -15 OFFCURVE",
"469 30 OFFCURVE",
"481 91 CURVE SMOOTH",
"494 154 OFFCURVE",
"581 320 OFFCURVE",
"617 356 CURVE",
"609 354 OFFCURVE",
"597 354 OFFCURVE",
"580 357 CURVE SMOOTH",
"564 360 OFFCURVE",
"554 362 OFFCURVE",
"550 362 CURVE SMOOTH",
"509 362 OFFCURVE",
"490 339 OFFCURVE",
"452 266 CURVE SMOOTH",
"355 81 OFFCURVE",
"277 -11 OFFCURVE",
"217 -11 CURVE SMOOTH",
"191 -11 OFFCURVE",
"179 9 OFFCURVE",
"179 48 CURVE SMOOTH",
"179 87 OFFCURVE",
"199 139 OFFCURVE",
"238 204 CURVE SMOOTH",
"269 258 OFFCURVE",
"302 305 OFFCURVE",
"338 345 CURVE SMOOTH",
"401 413 OFFCURVE",
"454 447 OFFCURVE",
"497 447 CURVE SMOOTH",
"534 447 OFFCURVE",
"558 429 OFFCURVE",
"569 393 CURVE",
"595 389 OFFCURVE",
"605 414 OFFCURVE",
"586 437 CURVE SMOOTH",
"554 468 OFFCURVE",
"515 485 OFFCURVE",
"469 485 CURVE SMOOTH",
"452 485 OFFCURVE",
"434 482 OFFCURVE",
"415 477 CURVE SMOOTH",
"344 460 OFFCURVE",
"286 423 OFFCURVE",
"238 368 CURVE SMOOTH",
"152 267 OFFCURVE",
"110 167 OFFCURVE",
"110 69 CURVE SMOOTH",
"110 18 OFFCURVE",
"125 -18 OFFCURVE",
"155 -39 CURVE SMOOTH",
"168 -49 OFFCURVE",
"182 -54 OFFCURVE",
"199 -54 CURVE SMOOTH"
);
},
{
closed = 1;
nodes = (
"661 611 OFFCURVE",
"707 651 OFFCURVE",
"746 731 CURVE",
"744 735 OFFCURVE",
"737 738 OFFCURVE",
"724 738 CURVE SMOOTH",
"719 738 OFFCURVE",
"716 737 OFFCURVE",
"715 734 CURVE SMOOTH",
"698 699 OFFCURVE",
"674 681 OFFCURVE",
"643 681 CURVE SMOOTH",
"598 681 OFFCURVE",
"532 735 OFFCURVE",
"442 735 CURVE SMOOTH",
"392 735 OFFCURVE",
"346 698 OFFCURVE",
"304 623 CURVE",
"304 621 OFFCURVE",
"306 618 OFFCURVE",
"311 617 CURVE SMOOTH",
"327 612 OFFCURVE",
"336 612 OFFCURVE",
"338 620 CURVE",
"356 653 OFFCURVE",
"377 669 OFFCURVE",
"403 669 CURVE SMOOTH",
"428 669 OFFCURVE",
"464 659 OFFCURVE",
"511 638 CURVE SMOOTH",
"553 620 OFFCURVE",
"584 611 OFFCURVE",
"607 611 CURVE SMOOTH"
);
}
);
width = 565;
}
);
leftMetricsKey = a;
note = atilde;
rightMetricsKey = a;
unicode = 00E3;
},
{
glyphname = ae;
lastChange = "2020-12-23 11:19:58 +0000";
layers = (
{
layerId = "1691882E-B915-4755-A5B2-757873D945FF";
paths = (
{
closed = 1;
nodes = (
"628 -14 OFFCURVE",
"691 21 OFFCURVE",
"742 91 CURVE SMOOTH",
"805 173 OFFCURVE",
"871 286 OFFCURVE",
"838 295 CURVE SMOOTH",
"828 297 OFFCURVE",
"819 290 OFFCURVE",
"812 274 CURVE SMOOTH",
"738 103 OFFCURVE",
"656 17 OFFCURVE",
"565 17 CURVE SMOOTH",
"487 17 OFFCURVE",
"476 115 OFFCURVE",
"515 223 CURVE",
"557 223 OFFCURVE",
"654 255 OFFCURVE",
"698 289 CURVE SMOOTH",
"770 345 OFFCURVE",
"806 402 OFFCURVE",
"806 460 CURVE SMOOTH",
"806 478 OFFCURVE",
"798 494 OFFCURVE",
"781 508 CURVE SMOOTH",
"763 521 OFFCURVE",
"743 527 OFFCURVE",
"721 527 CURVE SMOOTH",
"684 527 OFFCURVE",
"640 509 OFFCURVE",
"590 473 CURVE",
"586 479 LINE",
"554 511 OFFCURVE",
"515 527 OFFCURVE",
"469 527 CURVE SMOOTH",
"452 527 OFFCURVE",
"434 525 OFFCURVE",
"415 520 CURVE SMOOTH",
"345 503 OFFCURVE",
"286 466 OFFCURVE",
"238 410 CURVE SMOOTH",
"153 309 OFFCURVE",
"110 210 OFFCURVE",
"110 112 CURVE SMOOTH",
"110 61 OFFCURVE",
"125 25 OFFCURVE",
"155 4 CURVE SMOOTH",
"168 -6 OFFCURVE",
"183 -11 OFFCURVE",
"199 -11 CURVE SMOOTH",
"257 -11 OFFCURVE",
"326 53 OFFCURVE",
"406 182 CURVE",
"405 170 OFFCURVE",
"404 158 OFFCURVE",
"404 146 CURVE SMOOTH",
"404 86 OFFCURVE",
"424 42 OFFCURVE",
"464 14 CURVE SMOOTH",
"491 -5 OFFCURVE",
"521 -14 OFFCURVE",
"553 -14 CURVE SMOOTH"
);
},
{
closed = 1;
nodes = (
"192 32 OFFCURVE",
"179 52 OFFCURVE",
"179 91 CURVE SMOOTH",
"179 130 OFFCURVE",
"199 182 OFFCURVE",
"238 247 CURVE SMOOTH",
"269 301 OFFCURVE",
"302 348 OFFCURVE",
"338 388 CURVE SMOOTH",
"400 456 OFFCURVE",
"454 490 OFFCURVE",
"499 490 CURVE SMOOTH",
"530 490 OFFCURVE",
"551 477 OFFCURVE",
"563 451 CURVE",
"518 411 OFFCURVE",
"481 363 OFFCURVE",
"452 308 CURVE SMOOTH",
"355 124 OFFCURVE",
"277 32 OFFCURVE",
"217 32 CURVE SMOOTH"
);
},
{
closed = 1;
nodes = (
"559 311 LINE",
"580 343 OFFCURVE",
"598 369 OFFCURVE",
"614 389 CURVE SMOOTH",
"671 458 OFFCURVE",
"714 493 OFFCURVE",
"742 493 CURVE SMOOTH",
"758 493 OFFCURVE",
"766 483 OFFCURVE",
"766 463 CURVE SMOOTH",
"766 411 OFFCURVE",
"738 361 OFFCURVE",
"683 314 CURVE SMOOTH",
"635 274 OFFCURVE",
"563 250 OFFCURVE",
"527 248 CURVE"
);
}
);
width = 666;
}
);
leftMetricsKey = a;
note = ae;
rightMetricsKey = a;
unicode = 00E6;
},
{
glyphname = b;
lastChange = "2020-12-23 23:10:09 +0000";
layers = (
{
layerId = "1691882E-B915-4755-A5B2-757873D945FF";
paths = (
{
closed = 1;
nodes = (
"325 -77 OFFCURVE",
"407 -35 OFFCURVE",
"470 49 CURVE SMOOTH",
"533 132 OFFCURVE",
"564 217 OFFCURVE",
"564 303 CURVE SMOOTH",
"564 362 OFFCURVE",
"529 436 OFFCURVE",
"438 450 CURVE SMOOTH",
"380 462 OFFCURVE",
"365 423 OFFCURVE",
"417 420 CURVE SMOOTH",
"510 415 OFFCURVE",
"514 321 OFFCURVE",
"474 234 CURVE SMOOTH",
"414 91 OFFCURVE",
"306 -38 OFFCURVE",
"233 -38 CURVE SMOOTH",
"197 -38 OFFCURVE",
"182 -1 OFFCURVE",
"182 52 CURVE SMOOTH",
"182 181 OFFCURVE",
"270 376 OFFCURVE",
"446 637 CURVE SMOOTH",
"516 742 OFFCURVE",
"569 812 OFFCURVE",
"602 847 CURVE",
"562 844 OFFCURVE",
"549 857 OFFCURVE",
"521 853 CURVE SMOOTH",
"489 848 OFFCURVE",
"465 829 OFFCURVE",
"431 780 CURVE SMOOTH",
"389 717 OFFCURVE",
"315 583 OFFCURVE",
"211 379 CURVE SMOOTH",
"106 175 OFFCURVE",
"38 49 OFFCURVE",
"2 4 CURVE SMOOTH",
"-2 1 OFFCURVE",
"-2 -4 OFFCURVE",
"-2 -7 CURVE SMOOTH",
"-2 -22 OFFCURVE",
"3 -25 OFFCURVE",
"14 -16 CURVE SMOOTH",
"38 7 OFFCURVE",
"90 97 OFFCURVE",
"173 252 CURVE",
"125 151 OFFCURVE",
"101 81 OFFCURVE",
"101 39 CURVE SMOOTH",
"101 -32 OFFCURVE",
"151 -77 OFFCURVE",
"225 -77 CURVE SMOOTH"
);
}
);
width = 434;
}
);
note = b;
unicode = 0062;
},
{
glyphname = c;
lastChange = "2020-12-23 23:10:34 +0000";
layers = (
{
layerId = "1691882E-B915-4755-A5B2-757873D945FF";
paths = (
{
closed = 1;
nodes = (
"346 -13 OFFCURVE",
"407 15 OFFCURVE",
"452 71 CURVE SMOOTH",
"510 142 OFFCURVE",
"571 251 OFFCURVE",
"571 285 CURVE SMOOTH",
"571 295 OFFCURVE",
"559 305 OFFCURVE",
"545 278 CURVE SMOOTH",
"503 194 OFFCURVE",
"489 168 OFFCURVE",
"443 105 CURVE SMOOTH",
"396 42 OFFCURVE",
"345 14 OFFCURVE",
"284 14 CURVE SMOOTH",
"222 14 OFFCURVE",
"194 62 OFFCURVE",
"194 133 CURVE SMOOTH",
"194 204 OFFCURVE",
"239 305 OFFCURVE",
"277 359 CURVE SMOOTH",
"337 445 OFFCURVE",
"390 488 OFFCURVE",
"437 488 CURVE SMOOTH",
"461 488 OFFCURVE",
"473 473 OFFCURVE",
"473 445 CURVE SMOOTH",
"473 416 OFFCURVE",
"456 380 OFFCURVE",
"421 338 CURVE",
"428 331 OFFCURVE",
"436 328 OFFCURVE",
"446 328 CURVE SMOOTH",
"455 328 OFFCURVE",
"467 334 OFFCURVE",
"481 347 CURVE SMOOTH",
"509 371 OFFCURVE",
"523 400 OFFCURVE",
"523 434 CURVE SMOOTH",
"523 480 OFFCURVE",
"492 521 OFFCURVE",
"418 521 CURVE SMOOTH",
"342 521 OFFCURVE",
"275 482 OFFCURVE",
"217 403 CURVE SMOOTH",
"161 326 OFFCURVE",
"110 212 OFFCURVE",
"110 124 CURVE SMOOTH",
"110 52 OFFCURVE",
"156 -13 OFFCURVE",
"268 -13 CURVE SMOOTH"
);
}
);
width = 395;
}
);
leftMetricsKey = a;
note = c;
unicode = 0063;
},
{
glyphname = ccedilla;
lastChange = "2020-12-23 11:07:07 +0000";
layers = (
{
layerId = "1691882E-B915-4755-A5B2-757873D945FF";
paths = (
{
closed = 1;
nodes = (
"37 -244 OFFCURVE",
"-9 -232 OFFCURVE",
"-33 -207 CURVE SMOOTH",
"-43 -196 OFFCURVE",
"-52 -190 OFFCURVE",
"-57 -190 CURVE SMOOTH",
"-61 -190 OFFCURVE",
"-64 -194 OFFCURVE",
"-64 -201 CURVE SMOOTH",
"-64 -272 OFFCURVE",
"97 -269 OFFCURVE",
"239 -244 CURVE",
"339 -177 OFFCURVE",
"341 -85 OFFCURVE",
"260 -45 CURVE SMOOTH",
"186 -7 OFFCURVE",
"127 -13 OFFCURVE",
"80 -21 CURVE",
"80 -16 OFFCURVE",
"95 -3 OFFCURVE",
"127 18 CURVE SMOOTH",
"146 32 LINE",
"143 38 LINE",
"214 44 OFFCURVE",
"269 74 OFFCURVE",
"310 129 CURVE SMOOTH",
"358 192 OFFCURVE",
"405 280 OFFCURVE",
"422 334 CURVE",
"422 339 OFFCURVE",
"419 342 OFFCURVE",
"415 345 CURVE SMOOTH",
"410 347 OFFCURVE",
"404 341 OFFCURVE",
"397 327 CURVE SMOOTH",
"355 243 OFFCURVE",
"341 217 OFFCURVE",
"294 154 CURVE SMOOTH",
"247 91 OFFCURVE",
"196 63 OFFCURVE",
"135 63 CURVE SMOOTH",
"74 63 OFFCURVE",
"46 112 OFFCURVE",
"46 183 CURVE SMOOTH",
"46 254 OFFCURVE",
"90 354 OFFCURVE",
"128 408 CURVE SMOOTH",
"188 494 OFFCURVE",
"242 537 OFFCURVE",
"289 537 CURVE SMOOTH",
"313 537 OFFCURVE",
"325 523 OFFCURVE",
"325 494 CURVE SMOOTH",
"325 465 OFFCURVE",
"307 429 OFFCURVE",
"272 387 CURVE",
"279 380 OFFCURVE",
"287 377 OFFCURVE",
"297 377 CURVE SMOOTH",
"306 377 OFFCURVE",
"318 383 OFFCURVE",
"332 396 CURVE SMOOTH",
"360 420 OFFCURVE",
"374 449 OFFCURVE",
"374 483 CURVE SMOOTH",
"374 529 OFFCURVE",
"343 570 OFFCURVE",
"269 570 CURVE SMOOTH",
"193 570 OFFCURVE",
"126 531 OFFCURVE",
"68 452 CURVE SMOOTH",
"12 376 OFFCURVE",
"-39 261 OFFCURVE",
"-39 173 CURVE SMOOTH",
"-39 101 OFFCURVE",
"7 36 OFFCURVE",
"119 36 CURVE SMOOTH",
"121 36 LINE",
"65 -2 OFFCURVE",
"34 -25 OFFCURVE",
"25 -35 CURVE SMOOTH",
"17 -44 OFFCURVE",
"13 -52 OFFCURVE",
"13 -57 CURVE SMOOTH",
"13 -68 OFFCURVE",
"29 -79 OFFCURVE",
"37 -79 CURVE SMOOTH",
"41 -79 OFFCURVE",
"55 -73 OFFCURVE",
"79 -61 CURVE SMOOTH",
"103 -49 OFFCURVE",
"128 -43 OFFCURVE",
"154 -43 CURVE SMOOTH",
"206 -43 OFFCURVE",
"262 -76 OFFCURVE",
"262 -123 CURVE SMOOTH",
"262 -147 OFFCURVE",
"254 -169 OFFCURVE",
"241 -190 CURVE SMOOTH",
"218 -226 OFFCURVE",
"172 -244 OFFCURVE",
"105 -244 CURVE SMOOTH"
);
}
);
width = 260;
}
);
note = ccedilla;
unicode = 00E7;
},
{
glyphname = d;
lastChange = "2020-12-23 23:11:10 +0000";
layers = (
{
layerId = "1691882E-B915-4755-A5B2-757873D945FF";
paths = (
{
closed = 1;
nodes = (
"565 -77 OFFCURVE",
"646 16 OFFCURVE",
"726 202 CURVE SMOOTH",
"740 237 OFFCURVE",
"720 242 OFFCURVE",
"698 198 CURVE SMOOTH",
"620 41 OFFCURVE",
"557 -38 OFFCURVE",
"510 -38 CURVE SMOOTH",
"484 -38 OFFCURVE",
"471 -22 OFFCURVE",
"471 10 CURVE SMOOTH",
"471 29 OFFCURVE",
"476 53 OFFCURVE",
"486 82 CURVE SMOOTH",
"512 160 OFFCURVE",
"588 316 OFFCURVE",
"714 550 CURVE SMOOTH",
"813 733 OFFCURVE",
"874 835 OFFCURVE",
"897 856 CURVE",
"841 850 OFFCURVE",
"818 881 OFFCURVE",
"772 848 CURVE SMOOTH",
"759 839 OFFCURVE",
"745 817 OFFCURVE",
"731 784 CURVE SMOOTH",
"683 675 OFFCURVE",
"625 557 OFFCURVE",
"557 429 CURVE",
"522 447 OFFCURVE",
"490 456 OFFCURVE",
"462 456 CURVE SMOOTH",
"433 456 OFFCURVE",
"408 452 OFFCURVE",
"387 445 CURVE SMOOTH",
"271 411 OFFCURVE",
"189 300 OFFCURVE",
"144 193 CURVE SMOOTH",
"121 139 OFFCURVE",
"110 90 OFFCURVE",
"110 46 CURVE SMOOTH",
"110 -19 OFFCURVE",
"134 -58 OFFCURVE",
"183 -71 CURVE SMOOTH",
"280 -97 OFFCURVE",
"348 7 OFFCURVE",
"402 96 CURVE",
"391 50 OFFCURVE",
"388 6 OFFCURVE",
"419 -41 CURVE SMOOTH",
"435 -65 OFFCURVE",
"456 -77 OFFCURVE",
"483 -77 CURVE SMOOTH"
);
},
{
closed = 1;
nodes = (
"194 -32 OFFCURVE",
"182 -1 OFFCURVE",
"182 31 CURVE SMOOTH",
"182 66 OFFCURVE",
"196 111 OFFCURVE",
"225 165 CURVE SMOOTH",
"269 247 OFFCURVE",
"325 316 OFFCURVE",
"392 372 CURVE SMOOTH",
"434 407 OFFCURVE",
"466 424 OFFCURVE",
"490 424 CURVE SMOOTH",
"514 424 OFFCURVE",
"532 418 OFFCURVE",
"545 405 CURVE",
"464 254 OFFCURVE",
"398 143 OFFCURVE",
"348 73 CURVE SMOOTH",
"298 3 OFFCURVE",
"256 -32 OFFCURVE",
"222 -32 CURVE SMOOTH"
);
}
);
width = 774;
}
);
leftMetricsKey = a;
note = d;
unicode = 0064;
},
{
glyphname = eth;
lastChange = "2020-12-23 11:07:07 +0000";
layers = (
{
layerId = "1691882E-B915-4755-A5B2-757873D945FF";
paths = (
{
closed = 1;
nodes = (
"81 -82 OFFCURVE",
"114 -74 OFFCURVE",
"146 -58 CURVE SMOOTH",
"202 -29 OFFCURVE",
"251 21 OFFCURVE",
"293 91 CURVE SMOOTH",
"364 212 OFFCURVE",
"400 345 OFFCURVE",
"400 490 CURVE SMOOTH",
"400 598 OFFCURVE",
"377 684 OFFCURVE",
"334 749 CURVE",
"406 796 OFFCURVE",
"461 827 OFFCURVE",
"461 837 CURVE SMOOTH",
"461 842 OFFCURVE",
"460 845 OFFCURVE",
"458 848 CURVE SMOOTH",
"449 859 OFFCURVE",
"437 860 OFFCURVE",
"421 851 CURVE SMOOTH",
"304 788 LINE",
"259 835 OFFCURVE",
"203 859 OFFCURVE",
"138 859 CURVE SMOOTH",
"72 859 OFFCURVE",
"40 848 OFFCURVE",
"40 827 CURVE SMOOTH",
"40 820 OFFCURVE",
"45 817 OFFCURVE",
"56 817 CURVE SMOOTH",
"110 823 LINE",
"162 823 OFFCURVE",
"207 800 OFFCURVE",
"245 755 CURVE",
"131 692 LINE",
"88 662 OFFCURVE",
"170 606 OFFCURVE",
"165 628 CURVE",
"213 663 LINE SMOOTH",
"240 684 OFFCURVE",
"262 699 OFFCURVE",
"278 710 CURVE",
"323 633 OFFCURVE",
"346 544 OFFCURVE",
"346 442 CURVE SMOOTH",
"346 397 OFFCURVE",
"340 350 OFFCURVE",
"329 301 CURVE",
"329 323 LINE SMOOTH",
"329 375 OFFCURVE",
"300 409 OFFCURVE",
"248 409 CURVE SMOOTH",
"191 409 OFFCURVE",
"134 382 OFFCURVE",
"77 328 CURVE SMOOTH",
"-7 250 OFFCURVE",
"-49 160 OFFCURVE",
"-49 59 CURVE SMOOTH",
"-49 -11 OFFCURVE",
"-19 -82 OFFCURVE",
"48 -82 CURVE SMOOTH"
);
},
{
closed = 1;
nodes = (
"31 -64 OFFCURVE",
"17 -44 OFFCURVE",
"17 -4 CURVE SMOOTH",
"17 101 OFFCURVE",
"56 206 OFFCURVE",
"134 310 CURVE SMOOTH",
"176 366 OFFCURVE",
"217 394 OFFCURVE",
"256 394 CURVE SMOOTH",
"290 394 OFFCURVE",
"308 367 OFFCURVE",
"308 314 CURVE SMOOTH",
"308 261 OFFCURVE",
"295 212 OFFCURVE",
"269 166 CURVE SMOOTH",
"186 13 OFFCURVE",
"116 -64 OFFCURVE",
"59 -64 CURVE SMOOTH"
);
}
);
width = 388;
}
);
note = eth;
unicode = 00F0;
},
{
glyphname = e;
lastChange = "2020-12-23 23:13:06 +0000";
layers = (
{
layerId = "1691882E-B915-4755-A5B2-757873D945FF";
paths = (
{
closed = 1;
nodes = (
"329 -14 OFFCURVE",
"387 22 OFFCURVE",
"443 91 CURVE SMOOTH",
"465 119 OFFCURVE",
"500 185 OFFCURVE",
"531 248 CURVE SMOOTH",
"540 266 OFFCURVE",
"517 286 OFFCURVE",
"504 263 CURVE SMOOTH",
"469 202 OFFCURVE",
"437 149 OFFCURVE",
"405 107 CURVE SMOOTH",
"362 52 OFFCURVE",
"318 18 OFFCURVE",
"266 18 CURVE SMOOTH",
"220 18 OFFCURVE",
"194 53 OFFCURVE",
"194 109 CURVE SMOOTH",
"194 151 OFFCURVE",
"201 189 OFFCURVE",
"215 223 CURVE",
"257 223 OFFCURVE",
"356 255 OFFCURVE",
"400 289 CURVE SMOOTH",
"472 344 OFFCURVE",
"508 402 OFFCURVE",
"508 462 CURVE SMOOTH",
"508 526 OFFCURVE",
"420 538 OFFCURVE",
"358 511 CURVE SMOOTH",
"209 449 OFFCURVE",
"110 276 OFFCURVE",
"110 132 CURVE SMOOTH",
"110 42 OFFCURVE",
"174 -14 OFFCURVE",
"254 -14 CURVE SMOOTH"
);
},
{
closed = 1;
nodes = (
"252 301 OFFCURVE",
"282 348 OFFCURVE",
"316 390 CURVE SMOOTH",
"373 459 OFFCURVE",
"415 493 OFFCURVE",
"443 493 CURVE SMOOTH",
"459 493 OFFCURVE",
"467 483 OFFCURVE",
"467 463 CURVE SMOOTH",
"467 411 OFFCURVE",
"440 361 OFFCURVE",
"385 315 CURVE SMOOTH",
"337 274 OFFCURVE",
"260 249 OFFCURVE",
"226 249 CURVE"
);
}
);
width = 357;
}
);
leftMetricsKey = c;
note = e;
rightMetricsKey = c;
unicode = 0065;
},
{
glyphname = eacute;
lastChange = "2020-12-23 11:26:01 +0000";
layers = (
{
layerId = "1691882E-B915-4755-A5B2-757873D945FF";
paths = (
{
closed = 1;
nodes = (
"329 -54 OFFCURVE",
"392 -19 OFFCURVE",
"443 52 CURVE SMOOTH",
"466 82 OFFCURVE",
"498 142 OFFCURVE",
"540 233 CURVE SMOOTH",
"545 245 OFFCURVE",
"545 253 OFFCURVE",
"539 256 CURVE",
"529 257 OFFCURVE",
"520 251 OFFCURVE",
"513 235 CURVE SMOOTH",
"439 64 OFFCURVE",
"357 -22 OFFCURVE",
"266 -22 CURVE SMOOTH",
"220 -22 OFFCURVE",
"194 14 OFFCURVE",
"194 70 CURVE SMOOTH",
"194 112 OFFCURVE",
"201 149 OFFCURVE",
"215 184 CURVE",
"257 184 OFFCURVE",
"355 215 OFFCURVE",
"399 250 CURVE SMOOTH",
"471 305 OFFCURVE",
"507 362 OFFCURVE",
"507 422 CURVE SMOOTH",
"507 439 OFFCURVE",
"499 455 OFFCURVE",
"482 469 CURVE SMOOTH",
"464 481 OFFCURVE",
"444 487 OFFCURVE",
"423 487 CURVE SMOOTH",
"402 487 OFFCURVE",
"380 482 OFFCURVE",
"357 472 CURVE SMOOTH",
"209 410 OFFCURVE",
"110 236 OFFCURVE",
"110 92 CURVE SMOOTH",
"110 2 OFFCURVE",
"174 -54 OFFCURVE",
"254 -54 CURVE SMOOTH"
);
},
{
closed = 1;
nodes = (
"251 261 OFFCURVE",
"281 308 OFFCURVE",
"315 350 CURVE SMOOTH",
"372 419 OFFCURVE",
"415 454 OFFCURVE",
"443 454 CURVE SMOOTH",
"459 454 OFFCURVE",
"467 443 OFFCURVE",
"467 424 CURVE SMOOTH",
"467 371 OFFCURVE",
"439 322 OFFCURVE",
"384 275 CURVE SMOOTH",
"336 235 OFFCURVE",
"259 209 OFFCURVE",
"225 209 CURVE"
);
},
{
closed = 1;
nodes = (
"377 570 OFFCURVE",
"376 570 OFFCURVE",
"385 577 CURVE SMOOTH",
"412 598 LINE",
"400 590 OFFCURVE",
"392 583 OFFCURVE",
"385 577 CURVE SMOOTH",
"384 576 LINE SMOOTH"
);
},
{
closed = 1;
nodes = (
"397 544 OFFCURVE",
"644 653 OFFCURVE",
"654 677 CURVE SMOOTH",
"668 704 OFFCURVE",
"650 722 OFFCURVE",
"607 724 CURVE SMOOTH",
"578 724 OFFCURVE",
"552 697 OFFCURVE",
"498 660 CURVE SMOOTH",
"449 625 OFFCURVE",
"400 588 OFFCURVE",
"384 576 CURVE SMOOTH",
"356 550 OFFCURVE",
"370 543 OFFCURVE",
"375 544 CURVE SMOOTH"
);
}
);
width = 483;
}
);
leftMetricsKey = e;
note = eacute;
rightMetricsKey = e;
unicode = 00E9;
},
{
glyphname = ecircumflex;
lastChange = "2020-12-23 11:26:39 +0000";
layers = (
{
layerId = "1691882E-B915-4755-A5B2-757873D945FF";
paths = (
{
closed = 1;
nodes = (
"329 -55 OFFCURVE",
"392 -20 OFFCURVE",
"443 51 CURVE SMOOTH",
"466 81 OFFCURVE",
"498 141 OFFCURVE",
"540 232 CURVE SMOOTH",
"545 244 OFFCURVE",
"545 252 OFFCURVE",
"539 255 CURVE",
"529 256 OFFCURVE",
"520 250 OFFCURVE",
"513 234 CURVE SMOOTH",
"439 63 OFFCURVE",
"357 -23 OFFCURVE",
"266 -23 CURVE SMOOTH",
"220 -23 OFFCURVE",
"194 13 OFFCURVE",
"194 69 CURVE SMOOTH",
"194 111 OFFCURVE",
"201 148 OFFCURVE",
"215 183 CURVE",
"257 183 OFFCURVE",
"355 214 OFFCURVE",
"399 249 CURVE SMOOTH",
"471 304 OFFCURVE",
"507 361 OFFCURVE",
"507 421 CURVE SMOOTH",
"507 438 OFFCURVE",
"499 454 OFFCURVE",
"482 468 CURVE SMOOTH",
"464 480 OFFCURVE",
"444 486 OFFCURVE",
"423 486 CURVE SMOOTH",
"402 486 OFFCURVE",
"380 481 OFFCURVE",
"357 471 CURVE SMOOTH",
"209 409 OFFCURVE",
"110 235 OFFCURVE",
"110 91 CURVE SMOOTH",
"110 1 OFFCURVE",
"174 -55 OFFCURVE",
"254 -55 CURVE SMOOTH"
);
},
{
closed = 1;
nodes = (
"251 260 OFFCURVE",
"281 307 OFFCURVE",
"315 349 CURVE SMOOTH",
"372 418 OFFCURVE",
"415 453 OFFCURVE",
"443 453 CURVE SMOOTH",
"459 453 OFFCURVE",
"467 442 OFFCURVE",
"467 423 CURVE SMOOTH",
"467 370 OFFCURVE",
"439 321 OFFCURVE",
"384 274 CURVE SMOOTH",
"336 234 OFFCURVE",
"259 208 OFFCURVE",
"225 208 CURVE"
);
},
{
closed = 1;
nodes = (
"295 543 OFFCURVE",
"348 561 OFFCURVE",
"315 567 CURVE",
"513 673 LINE",
"582 567 LINE SMOOTH",
"590 556 OFFCURVE",
"621 553 OFFCURVE",
"612 567 CURVE",
"558 726 LINE",
"558 727 OFFCURVE",
"553 729 OFFCURVE",
"543 729 CURVE SMOOTH",
"533 729 OFFCURVE",
"519 727 OFFCURVE",
"501 726 CURVE",
"278 567 LINE"
);
}
);
width = 438;
}
);
leftMetricsKey = e;
note = ecircumflex;
rightMetricsKey = e;
unicode = 00EA;
},
{
glyphname = edieresis;
lastChange = "2020-12-23 11:26:39 +0000";
layers = (
{
layerId = "1691882E-B915-4755-A5B2-757873D945FF";
paths = (
{
closed = 1;
nodes = (
"329 -43 OFFCURVE",
"392 -8 OFFCURVE",
"443 62 CURVE SMOOTH",
"466 92 OFFCURVE",
"498 152 OFFCURVE",
"540 243 CURVE SMOOTH",
"545 255 OFFCURVE",
"545 263 OFFCURVE",
"539 266 CURVE",
"529 268 OFFCURVE",
"520 261 OFFCURVE",
"513 245 CURVE SMOOTH",
"439 74 OFFCURVE",
"357 -12 OFFCURVE",
"266 -12 CURVE SMOOTH",
"220 -12 OFFCURVE",
"194 24 OFFCURVE",
"194 80 CURVE SMOOTH",
"194 122 OFFCURVE",
"201 160 OFFCURVE",
"215 194 CURVE",
"257 194 OFFCURVE",
"355 226 OFFCURVE",
"399 260 CURVE SMOOTH",
"471 315 OFFCURVE",
"507 372 OFFCURVE",
"507 432 CURVE SMOOTH",
"507 449 OFFCURVE",
"499 465 OFFCURVE",
"482 479 CURVE SMOOTH",
"464 491 OFFCURVE",
"444 497 OFFCURVE",
"423 497 CURVE SMOOTH",
"402 497 OFFCURVE",
"380 492 OFFCURVE",
"357 482 CURVE SMOOTH",
"209 420 OFFCURVE",
"110 247 OFFCURVE",
"110 102 CURVE SMOOTH",
"110 12 OFFCURVE",
"174 -43 OFFCURVE",
"254 -43 CURVE SMOOTH"
);
},
{
closed = 1;
nodes = (
"251 271 OFFCURVE",
"281 318 OFFCURVE",
"315 360 CURVE SMOOTH",
"372 429 OFFCURVE",
"415 464 OFFCURVE",
"443 464 CURVE SMOOTH",
"459 464 OFFCURVE",
"467 454 OFFCURVE",
"467 434 CURVE SMOOTH",
"467 382 OFFCURVE",
"439 332 OFFCURVE",
"384 285 CURVE SMOOTH",
"336 245 OFFCURVE",
"259 219 OFFCURVE",
"225 219 CURVE"
);
},
{
closed = 1;
nodes = (
"384 573 OFFCURVE",
"404 595 OFFCURVE",
"404 624 CURVE SMOOTH",
"404 652 OFFCURVE",
"382 672 OFFCURVE",
"354 672 CURVE SMOOTH",
"325 672 OFFCURVE",
"305 651 OFFCURVE",
"305 622 CURVE SMOOTH",
"305 593 OFFCURVE",
"326 573 OFFCURVE",
"355 573 CURVE SMOOTH"
);
},
{
closed = 1;
nodes = (
"577 573 OFFCURVE",
"597 595 OFFCURVE",
"597 624 CURVE SMOOTH",
"597 652 OFFCURVE",
"576 672 OFFCURVE",
"547 672 CURVE SMOOTH",
"518 672 OFFCURVE",
"498 651 OFFCURVE",
"498 622 CURVE SMOOTH",
"498 593 OFFCURVE",
"520 573 OFFCURVE",
"549 573 CURVE SMOOTH"
);
}
);
width = 421;
}
);
leftMetricsKey = e;
note = edieresis;
rightMetricsKey = e;
unicode = 00EB;
},
{
glyphname = egrave;
lastChange = "2020-12-23 11:26:39 +0000";
layers = (
{
layerId = "1691882E-B915-4755-A5B2-757873D945FF";
paths = (
{
closed = 1;
nodes = (
"329 -56 OFFCURVE",
"392 -21 OFFCURVE",
"443 49 CURVE SMOOTH",
"506 132 OFFCURVE",
"572 245 OFFCURVE",
"539 253 CURVE SMOOTH",
"529 255 OFFCURVE",
"521 248 OFFCURVE",
"514 232 CURVE SMOOTH",
"440 61 OFFCURVE",
"357 -24 OFFCURVE",
"266 -24 CURVE SMOOTH",
"220 -24 OFFCURVE",
"194 11 OFFCURVE",
"194 67 CURVE SMOOTH",
"194 109 OFFCURVE",
"201 147 OFFCURVE",
"215 181 CURVE",
"257 181 OFFCURVE",
"356 213 OFFCURVE",
"400 247 CURVE SMOOTH",
"472 302 OFFCURVE",
"508 360 OFFCURVE",
"508 420 CURVE SMOOTH",
"508 437 OFFCURVE",
"499 452 OFFCURVE",
"482 466 CURVE SMOOTH",
"464 478 OFFCURVE",
"445 484 OFFCURVE",
"424 484 CURVE SMOOTH",
"403 484 OFFCURVE",
"381 479 OFFCURVE",
"358 469 CURVE SMOOTH",
"209 408 OFFCURVE",
"110 234 OFFCURVE",
"110 90 CURVE SMOOTH",
"110 0 OFFCURVE",
"174 -56 OFFCURVE",
"254 -56 CURVE SMOOTH"
);
},
{
closed = 1;
nodes = (
"252 259 OFFCURVE",
"282 306 OFFCURVE",
"316 348 CURVE SMOOTH",
"373 417 OFFCURVE",
"415 451 OFFCURVE",
"443 451 CURVE SMOOTH",
"459 451 OFFCURVE",
"467 441 OFFCURVE",
"467 421 CURVE SMOOTH",
"467 369 OFFCURVE",
"440 320 OFFCURVE",
"385 273 CURVE SMOOTH",
"337 233 OFFCURVE",
"260 207 OFFCURVE",
"226 207 CURVE"
);
},
{
closed = 1;
nodes = (
"489 532 OFFCURVE",
"494 537 OFFCURVE",
"494 546 CURVE SMOOTH",
"494 558 OFFCURVE",
"273 735 OFFCURVE",
"247 735 CURVE SMOOTH",
"228 735 OFFCURVE",
"218 723 OFFCURVE",
"218 700 CURVE SMOOTH",
"218 676 OFFCURVE",
"237 655 OFFCURVE",
"274 636 CURVE SMOOTH",
"376 582 LINE SMOOTH",
"439 549 OFFCURVE",
"473 532 OFFCURVE",
"479 532 CURVE SMOOTH"
);
}
);
width = 372;
}
);
leftMetricsKey = e;
note = egrave;
rightMetricsKey = e;
unicode = 00E8;
},
{
glyphname = f;
lastChange = "2020-12-23 23:13:35 +0000";
layers = (
{
layerId = "1691882E-B915-4755-A5B2-757873D945FF";
paths = (
{
closed = 1;
nodes = (
"190 -512 OFFCURVE",
"285 -377 OFFCURVE",
"321 -233 CURVE SMOOTH",
"353 -103 OFFCURVE",
"349 -35 OFFCURVE",
"346 9 CURVE",
"426 9 OFFCURVE",
"508 104 OFFCURVE",
"591 293 CURVE SMOOTH",
"599 310 OFFCURVE",
"586 319 OFFCURVE",
"576 312 CURVE SMOOTH",
"545 292 OFFCURVE",
"464 38 OFFCURVE",
"348 38 CURVE SMOOTH",
"343 38 LINE",
"339 57 LINE SMOOTH",
"330 104 OFFCURVE",
"313 141 OFFCURVE",
"291 170 CURVE",
"442 512 OFFCURVE",
"636 854 OFFCURVE",
"730 942 CURVE",
"712 940 OFFCURVE",
"677 950 OFFCURVE",
"664 950 CURVE SMOOTH",
"606 950 OFFCURVE",
"573 917 OFFCURVE",
"537 845 CURVE SMOOTH",
"445 675 OFFCURVE",
"343 461 OFFCURVE",
"229 204 CURVE",
"226 205 OFFCURVE",
"220 206 OFFCURVE",
"210 206 CURVE SMOOTH",
"201 206 OFFCURVE",
"189 200 OFFCURVE",
"175 188 CURVE SMOOTH",
"156 174 OFFCURVE",
"147 146 OFFCURVE",
"147 104 CURVE SMOOTH",
"147 90 OFFCURVE",
"153 74 OFFCURVE",
"165 54 CURVE",
"61 -189 OFFCURVE",
"10 -350 OFFCURVE",
"10 -429 CURVE SMOOTH",
"10 -484 OFFCURVE",
"37 -512 OFFCURVE",
"93 -512 CURVE SMOOTH"
);
},
{
closed = 1;
nodes = (
"99 -473 OFFCURVE",
"91 -458 OFFCURVE",
"91 -429 CURVE SMOOTH",
"91 -355 OFFCURVE",
"136 -203 OFFCURVE",
"228 27 CURVE",
"247 11 OFFCURVE",
"272 3 OFFCURVE",
"301 3 CURVE SMOOTH",
"315 3 LINE",
"315 -12 LINE SMOOTH",
"315 -138 OFFCURVE",
"261 -317 OFFCURVE",
"194 -406 CURVE SMOOTH",
"160 -450 OFFCURVE",
"134 -473 OFFCURVE",
"115 -473 CURVE SMOOTH"
);
},
{
closed = 1;
nodes = (
"273 32 OFFCURVE",
"253 41 OFFCURVE",
"243 60 CURVE",
"276 135 LINE",
"297 109 OFFCURVE",
"309 75 OFFCURVE",
"312 32 CURVE",
"303 32 LINE SMOOTH"
);
}
);
width = 405;
}
);
note = f;
unicode = 0066;
},
{
glyphname = g;
lastChange = "2020-12-23 23:15:17 +0000";
layers = (
{
layerId = "1691882E-B915-4755-A5B2-757873D945FF";
paths = (
{
closed = 1;
nodes = (
"28 -404 OFFCURVE",
"178 -284 OFFCURVE",
"269 -150 CURVE SMOOTH",
"315 -83 OFFCURVE",
"350 -16 OFFCURVE",
"374 52 CURVE",
"476 100 OFFCURVE",
"529 190 OFFCURVE",
"605 346 CURVE SMOOTH",
"608 353 OFFCURVE",
"609 359 OFFCURVE",
"609 364 CURVE SMOOTH",
"609 391 OFFCURVE",
"589 376 OFFCURVE",
"566 323 CURVE SMOOTH",
"548 282 OFFCURVE",
"527 242 OFFCURVE",
"488 190 CURVE SMOOTH",
"469 164 OFFCURVE",
"436 135 OFFCURVE",
"390 102 CURVE",
"411 179 OFFCURVE",
"422 248 OFFCURVE",
"422 308 CURVE SMOOTH",
"422 368 OFFCURVE",
"417 421 OFFCURVE",
"410 466 CURVE",
"396 456 OFFCURVE",
"366 461 OFFCURVE",
"343 447 CURVE SMOOTH",
"331 440 OFFCURVE",
"323 422 OFFCURVE",
"314 396 CURVE SMOOTH",
"279 294 OFFCURVE",
"129 99 OFFCURVE",
"54 120 CURVE SMOOTH",
"33 126 OFFCURVE",
"24 152 OFFCURVE",
"24 185 CURVE SMOOTH",
"24 263 OFFCURVE",
"115 396 OFFCURVE",
"170 459 CURVE SMOOTH",
"236 533 OFFCURVE",
"295 570 OFFCURVE",
"348 570 CURVE SMOOTH",
"377 570 OFFCURVE",
"398 551 OFFCURVE",
"411 514 CURVE SMOOTH",
"426 469 OFFCURVE",
"485 511 OFFCURVE",
"428 558 CURVE",
"384 588 OFFCURVE",
"341 603 OFFCURVE",
"296 603 CURVE SMOOTH",
"228 603 OFFCURVE",
"140 561 OFFCURVE",
"80 489 CURVE SMOOTH",
"-6 386 OFFCURVE",
"-50 291 OFFCURVE",
"-50 205 CURVE SMOOTH",
"-50 141 OFFCURVE",
"-25 95 OFFCURVE",
"29 76 CURVE SMOOTH",
"85 57 OFFCURVE",
"143 88 OFFCURVE",
"201 160 CURVE SMOOTH",
"250 220 OFFCURVE",
"288 279 OFFCURVE",
"317 336 CURVE",
"331 272 OFFCURVE",
"307 124 OFFCURVE",
"281 46 CURVE",
"257 36 OFFCURVE",
"218 23 OFFCURVE",
"165 6 CURVE SMOOTH",
"50 -32 OFFCURVE",
"-45 -73 OFFCURVE",
"-119 -116 CURVE SMOOTH",
"-206 -167 OFFCURVE",
"-249 -224 OFFCURVE",
"-249 -288 CURVE SMOOTH",
"-249 -365 OFFCURVE",
"-202 -404 OFFCURVE",
"-108 -404 CURVE SMOOTH"
);
},
{
closed = 1;
nodes = (
"-193 -374 OFFCURVE",
"-218 -355 OFFCURVE",
"-218 -317 CURVE SMOOTH",
"-218 -265 OFFCURVE",
"-176 -198 OFFCURVE",
"-117 -159 CURVE SMOOTH",
"-53 -117 OFFCURVE",
"57 -68 OFFCURVE",
"213 -15 CURVE SMOOTH",
"266 3 LINE",
"246 -46 OFFCURVE",
"217 -97 OFFCURVE",
"180 -149 CURVE SMOOTH",
"131 -214 OFFCURVE",
"86 -263 OFFCURVE",
"45 -296 CURVE SMOOTH",
"-3 -332 OFFCURVE",
"-86 -374 OFFCURVE",
"-144 -374 CURVE SMOOTH"
);
}
);
width = 475;
}
);
note = g;
unicode = 0067;
},
{
glyphname = h;
lastChange = "2020-12-23 23:15:51 +0000";
layers = (
{
layerId = "1691882E-B915-4755-A5B2-757873D945FF";
paths = (
{
closed = 1;
nodes = (
"21 -60 OFFCURVE",
"75 -86 OFFCURVE",
"92 -49 CURVE SMOOTH",
"160 83 OFFCURVE",
"230 182 OFFCURVE",
"302 248 CURVE SMOOTH",
"405 345 OFFCURVE",
"453 329 OFFCURVE",
"409 257 CURVE SMOOTH",
"334 138 OFFCURVE",
"311 77 OFFCURVE",
"311 19 CURVE SMOOTH",
"311 -37 OFFCURVE",
"350 -76 OFFCURVE",
"406 -76 CURVE SMOOTH",
"458 -76 OFFCURVE",
"506 -41 OFFCURVE",
"553 29 CURVE SMOOTH",
"596 99 OFFCURVE",
"614 134 OFFCURVE",
"637 181 CURVE SMOOTH",
"649 205 OFFCURVE",
"655 219 OFFCURVE",
"655 224 CURVE SMOOTH",
"655 234 OFFCURVE",
"641 248 OFFCURVE",
"628 220 CURVE SMOOTH",
"542 44 OFFCURVE",
"475 -45 OFFCURVE",
"428 -45 CURVE SMOOTH",
"408 -45 OFFCURVE",
"398 -31 OFFCURVE",
"398 -3 CURVE SMOOTH",
"398 65 OFFCURVE",
"460 206 OFFCURVE",
"583 422 CURVE",
"578 424 OFFCURVE",
"572 425 OFFCURVE",
"566 425 CURVE SMOOTH",
"516 425 OFFCURVE",
"385 353 OFFCURVE",
"310 287 CURVE SMOOTH",
"273 254 OFFCURVE",
"230 208 OFFCURVE",
"184 149 CURVE",
"326 439 OFFCURVE",
"508 773 OFFCURVE",
"568 835 CURVE",
"560 833 OFFCURVE",
"548 834 OFFCURVE",
"532 837 CURVE SMOOTH",
"515 839 OFFCURVE",
"505 841 OFFCURVE",
"500 841 CURVE SMOOTH",
"460 841 OFFCURVE",
"436 816 OFFCURVE",
"398 746 CURVE SMOOTH",
"313 590 OFFCURVE",
"176 314 OFFCURVE",
"-15 -81 CURVE"
);
}
);
width = 500;
}
);
leftMetricsKey = h;
note = h;
unicode = 0068;
},
{
glyphname = i;
lastChange = "2020-12-23 23:16:37 +0000";
layers = (
{
layerId = "1691882E-B915-4755-A5B2-757873D945FF";
paths = (
{
closed = 1;
nodes = (
"26 -56 OFFCURVE",
"108 -48 OFFCURVE",
"181 36 CURVE SMOOTH",
"211 70 OFFCURVE",
"256 149 OFFCURVE",
"269 177 CURVE SMOOTH",
"291 224 LINE SMOOTH",
"299 242 OFFCURVE",
"303 253 OFFCURVE",
"303 257 CURVE SMOOTH",
"303 262 OFFCURVE",
"302 265 OFFCURVE",
"300 267 CURVE SMOOTH",
"293 273 OFFCURVE",
"286 269 OFFCURVE",
"279 254 CURVE SMOOTH",
"222 140 OFFCURVE",
"175 64 OFFCURVE",
"138 27 CURVE SMOOTH",
"117 8 OFFCURVE",
"97 -1 OFFCURVE",
"78 -1 CURVE SMOOTH",
"47 -1 OFFCURVE",
"31 13 OFFCURVE",
"31 42 CURVE SMOOTH",
"31 68 OFFCURVE",
"40 100 OFFCURVE",
"57 137 CURVE SMOOTH",
"177 417 LINE SMOOTH",
"193 455 OFFCURVE",
"191 470 OFFCURVE",
"145 470 CURVE SMOOTH",
"63 468 LINE",
"79 446 OFFCURVE",
"85 428 OFFCURVE",
"78 405 CURVE SMOOTH",
"-18 161 LINE SMOOTH",
"-44 96 OFFCURVE",
"-46 42 OFFCURVE",
"-14 -1 CURVE SMOOTH"
);
},
{
closed = 1;
nodes = (
"266 531 OFFCURVE",
"278 654 OFFCURVE",
"198 654 CURVE SMOOTH",
"164 654 OFFCURVE",
"132 627 OFFCURVE",
"126 593 CURVE SMOOTH",
"122 559 OFFCURVE",
"144 531 OFFCURVE",
"178 531 CURVE SMOOTH"
);
}
);
width = 174;
}
);
note = i;
unicode = 0069;
},
{
glyphname = dotlessi;
lastChange = "2020-12-23 11:29:57 +0000";
layers = (
{
layerId = "1691882E-B915-4755-A5B2-757873D945FF";
paths = (
{
closed = 1;
nodes = (
"258 -6 OFFCURVE",
"303 31 OFFCURVE",
"332 64 CURVE SMOOTH",
"361 97 OFFCURVE",
"406 181 OFFCURVE",
"418 205 CURVE SMOOTH",
"432 234 OFFCURVE",
"452 260 OFFCURVE",
"450 295 CURVE",
"444 301 OFFCURVE",
"437 297 OFFCURVE",
"429 282 CURVE SMOOTH",
"375 170 OFFCURVE",
"328 94 OFFCURVE",
"288 55 CURVE",
"229 27 LINE",
"197 27 OFFCURVE",
"181 41 OFFCURVE",
"181 69 CURVE SMOOTH",
"181 94 OFFCURVE",
"190 126 OFFCURVE",
"208 165 CURVE SMOOTH",
"235 234 OFFCURVE",
"287 331 OFFCURVE",
"364 456 CURVE SMOOTH",
"373 472 OFFCURVE",
"387 486 OFFCURVE",
"405 498 CURVE SMOOTH",
"420 510 LINE",
"343 510 LINE SMOOTH",
"297 510 OFFCURVE",
"300 512 OFFCURVE",
"262 438 CURVE SMOOTH",
"132 189 LINE SMOOTH",
"82 99 OFFCURVE",
"121 -6 OFFCURVE",
"202 -6 CURVE SMOOTH"
);
}
);
width = 275;
}
);
leftMetricsKey = a;
note = dotlessi;
unicode = 0131;
},
{
glyphname = iacute;
lastChange = "2020-12-23 11:30:14 +0000";
layers = (
{
layerId = "1691882E-B915-4755-A5B2-757873D945FF";
paths = (
{
closed = 1;
nodes = (
"110 -54 OFFCURVE",
"155 -17 OFFCURVE",
"184 16 CURVE SMOOTH",
"213 49 OFFCURVE",
"258 134 OFFCURVE",
"270 158 CURVE SMOOTH",
"310 237 OFFCURVE",
"313 295 OFFCURVE",
"281 234 CURVE SMOOTH",
"227 122 OFFCURVE",
"180 47 OFFCURVE",
"140 8 CURVE",
"81 -21 LINE",
"49 -21 OFFCURVE",
"33 -7 OFFCURVE",
"33 21 CURVE SMOOTH",
"33 46 OFFCURVE",
"42 78 OFFCURVE",
"60 117 CURVE SMOOTH",
"87 186 OFFCURVE",
"139 283 OFFCURVE",
"216 408 CURVE SMOOTH",
"225 424 OFFCURVE",
"239 438 OFFCURVE",
"257 450 CURVE SMOOTH",
"272 462 LINE",
"195 462 LINE SMOOTH",
"149 462 OFFCURVE",
"152 464 OFFCURVE",
"114 390 CURVE SMOOTH",
"-16 141 LINE SMOOTH",
"-66 51 OFFCURVE",
"-27 -54 OFFCURVE",
"54 -54 CURVE SMOOTH"
);
},
{
closed = 1;
nodes = (
"236 596 OFFCURVE",
"235 595 OFFCURVE",
"244 602 CURVE SMOOTH",
"271 623 LINE",
"260 615 OFFCURVE",
"251 608 OFFCURVE",
"244 602 CURVE SMOOTH",
"243 601 LINE SMOOTH"
);
},
{
closed = 1;
nodes = (
"256 569 OFFCURVE",
"503 678 OFFCURVE",
"513 702 CURVE SMOOTH",
"527 730 OFFCURVE",
"509 747 OFFCURVE",
"466 749 CURVE SMOOTH",
"437 749 OFFCURVE",
"411 722 OFFCURVE",
"357 685 CURVE SMOOTH",
"309 650 OFFCURVE",
"259 613 OFFCURVE",
"243 601 CURVE SMOOTH",
"215 575 OFFCURVE",
"229 568 OFFCURVE",
"234 569 CURVE SMOOTH"
);
}
);
width = 389;
}
);
leftMetricsKey = i;
note = iacute;
rightMetricsKey = i;
unicode = 00ED;
},
{
glyphname = icircumflex;
lastChange = "2020-12-23 11:30:14 +0000";
layers = (
{
layerId = "1691882E-B915-4755-A5B2-757873D945FF";
paths = (
{
closed = 1;
nodes = (
"110 -49 OFFCURVE",
"155 -12 OFFCURVE",
"184 21 CURVE SMOOTH",
"213 54 OFFCURVE",
"258 139 OFFCURVE",
"270 163 CURVE SMOOTH",
"310 242 OFFCURVE",
"313 301 OFFCURVE",
"281 240 CURVE SMOOTH",
"227 127 OFFCURVE",
"180 52 OFFCURVE",
"140 13 CURVE",
"81 -16 LINE",
"49 -16 OFFCURVE",
"33 -2 OFFCURVE",
"33 27 CURVE SMOOTH",
"33 52 OFFCURVE",
"42 84 OFFCURVE",
"60 123 CURVE SMOOTH",
"87 192 OFFCURVE",
"139 289 OFFCURVE",
"216 414 CURVE SMOOTH",
"225 430 OFFCURVE",
"239 444 OFFCURVE",
"257 456 CURVE SMOOTH",
"272 468 LINE",
"195 468 LINE SMOOTH",
"149 468 OFFCURVE",
"152 469 OFFCURVE",
"114 396 CURVE SMOOTH",
"-16 147 LINE SMOOTH",
"-66 57 OFFCURVE",
"-27 -49 OFFCURVE",
"54 -49 CURVE SMOOTH"
);
},
{
closed = 1;
nodes = (
"103 537 OFFCURVE",
"155 555 OFFCURVE",
"123 561 CURVE",
"321 667 LINE",
"390 561 LINE SMOOTH",
"397 550 OFFCURVE",
"429 547 OFFCURVE",
"420 561 CURVE",
"366 720 LINE",
"366 721 OFFCURVE",
"361 723 OFFCURVE",
"351 723 CURVE SMOOTH",
"341 723 OFFCURVE",
"327 721 OFFCURVE",
"309 720 CURVE",
"86 561 LINE"
);
}
);
width = 293;
}
);
leftMetricsKey = i;
note = icircumflex;
rightMetricsKey = i;
unicode = 00EE;
},
{
glyphname = idieresis;
lastChange = "2020-12-23 11:30:14 +0000";
layers = (
{
layerId = "1691882E-B915-4755-A5B2-757873D945FF";
paths = (
{
closed = 1;
nodes = (
"111 -36 OFFCURVE",
"156 1 OFFCURVE",
"185 34 CURVE SMOOTH",
"214 67 OFFCURVE",
"259 152 OFFCURVE",
"271 176 CURVE SMOOTH",
"310 255 OFFCURVE",
"314 314 OFFCURVE",
"281 253 CURVE SMOOTH",
"227 140 OFFCURVE",
"180 65 OFFCURVE",
"140 26 CURVE",
"82 -3 LINE",
"50 -3 OFFCURVE",
"34 11 OFFCURVE",
"34 40 CURVE SMOOTH",
"34 65 OFFCURVE",
"43 97 OFFCURVE",
"61 136 CURVE SMOOTH",
"88 205 OFFCURVE",
"140 302 OFFCURVE",
"217 427 CURVE SMOOTH",
"226 443 OFFCURVE",
"239 457 OFFCURVE",
"257 469 CURVE SMOOTH",
"272 481 LINE",
"196 481 LINE SMOOTH",
"150 481 OFFCURVE",
"153 482 OFFCURVE",
"115 409 CURVE SMOOTH",
"-16 160 LINE SMOOTH",
"-66 70 OFFCURVE",
"-27 -36 OFFCURVE",
"55 -36 CURVE SMOOTH"
);
},
{
closed = 1;
nodes = (
"187 559 OFFCURVE",
"206 580 OFFCURVE",
"206 609 CURVE SMOOTH",
"206 638 OFFCURVE",
"185 658 OFFCURVE",
"156 658 CURVE SMOOTH",
"127 658 OFFCURVE",
"107 636 OFFCURVE",
"107 607 CURVE SMOOTH",
"107 578 OFFCURVE",
"129 559 OFFCURVE",
"158 559 CURVE SMOOTH"
);
},
{
closed = 1;
nodes = (
"380 559 OFFCURVE",
"400 580 OFFCURVE",
"400 609 CURVE SMOOTH",
"400 638 OFFCURVE",
"379 658 OFFCURVE",
"350 658 CURVE SMOOTH",
"321 658 OFFCURVE",
"301 636 OFFCURVE",
"301 607 CURVE SMOOTH",
"301 578 OFFCURVE",
"322 559 OFFCURVE",
"351 559 CURVE SMOOTH"
);
}
);
width = 271;
}
);
leftMetricsKey = i;
note = idieresis;
rightMetricsKey = i;
unicode = 00EF;
},
{
glyphname = igrave;
lastChange = "2020-12-23 11:30:14 +0000";
layers = (
{
layerId = "1691882E-B915-4755-A5B2-757873D945FF";
paths = (
{
closed = 1;
nodes = (
"111 -54 OFFCURVE",
"156 -17 OFFCURVE",
"185 16 CURVE SMOOTH",
"214 49 OFFCURVE",
"259 134 OFFCURVE",
"271 158 CURVE SMOOTH",
"285 187 OFFCURVE",
"304 213 OFFCURVE",
"302 248 CURVE",
"296 254 OFFCURVE",
"289 250 OFFCURVE",
"281 235 CURVE SMOOTH",
"227 122 OFFCURVE",
"180 47 OFFCURVE",
"140 8 CURVE",
"82 -21 LINE",
"50 -21 OFFCURVE",
"34 -7 OFFCURVE",
"34 22 CURVE SMOOTH",
"34 47 OFFCURVE",
"43 79 OFFCURVE",
"61 118 CURVE SMOOTH",
"88 187 OFFCURVE",
"140 284 OFFCURVE",
"217 409 CURVE SMOOTH",
"226 425 OFFCURVE",
"239 439 OFFCURVE",
"257 451 CURVE SMOOTH",
"272 463 LINE",
"196 463 LINE SMOOTH",
"150 463 OFFCURVE",
"153 464 OFFCURVE",
"115 391 CURVE SMOOTH",
"-16 142 LINE SMOOTH",
"-66 52 OFFCURVE",
"-27 -54 OFFCURVE",
"55 -54 CURVE SMOOTH"
);
},
{
closed = 1;
nodes = (
"299 545 OFFCURVE",
"304 550 OFFCURVE",
"304 559 CURVE SMOOTH",
"304 571 OFFCURVE",
"82 748 OFFCURVE",
"56 748 CURVE SMOOTH",
"37 748 OFFCURVE",
"28 736 OFFCURVE",
"28 712 CURVE SMOOTH",
"28 688 OFFCURVE",
"46 667 OFFCURVE",
"83 649 CURVE SMOOTH",
"186 595 LINE SMOOTH",
"249 562 OFFCURVE",
"283 545 OFFCURVE",
"289 545 CURVE SMOOTH"
);
}
);
width = 175;
}
);
leftMetricsKey = i;
note = igrave;
rightMetricsKey = i;
unicode = 00EC;
},
{
glyphname = j;
lastChange = "2020-12-23 23:18:37 +0000";
layers = (
{
layerId = "1691882E-B915-4755-A5B2-757873D945FF";
paths = (
{
closed = 1;
nodes = (
"-173 -430 OFFCURVE",
"-87 -390 OFFCURVE",
"-27 -340 CURVE SMOOTH",
"52 -274 OFFCURVE",
"130 -171 OFFCURVE",
"207 -31 CURVE",
"425 48 OFFCURVE",
"468 124 OFFCURVE",
"545 281 CURVE SMOOTH",
"588 368 OFFCURVE",
"556 359 OFFCURVE",
"543 334 CURVE SMOOTH",
"499 251 OFFCURVE",
"468 195 OFFCURVE",
"449 168 CURVE SMOOTH",
"431 141 OFFCURVE",
"409 116 OFFCURVE",
"383 95 CURVE SMOOTH",
"332 53 OFFCURVE",
"311 47 OFFCURVE",
"233 17 CURVE",
"270 90 OFFCURVE",
"301 156 OFFCURVE",
"326 215 CURVE SMOOTH",
"446 496 LINE",
"466 532 OFFCURVE",
"460 549 OFFCURVE",
"414 548 CURVE SMOOTH",
"332 547 LINE",
"345 531 OFFCURVE",
"351 518 OFFCURVE",
"351 508 CURVE SMOOTH",
"351 498 OFFCURVE",
"350 490 OFFCURVE",
"347 484 CURVE SMOOTH",
"267 287 LINE",
"141 -5 LINE",
"117 -12 OFFCURVE",
"50 -36 OFFCURVE",
"-34 -57 CURVE SMOOTH",
"-118 -78 OFFCURVE",
"-186 -100 OFFCURVE",
"-237 -124 CURVE SMOOTH",
"-305 -155 OFFCURVE",
"-352 -196 OFFCURVE",
"-378 -247 CURVE SMOOTH",
"-437 -376 OFFCURVE",
"-369 -430 OFFCURVE",
"-262 -430 CURVE SMOOTH"
);
},
{
closed = 1;
nodes = (
"-329 -400 OFFCURVE",
"-396 -380 OFFCURVE",
"-349 -281 CURVE SMOOTH",
"-322 -226 OFFCURVE",
"-276 -185 OFFCURVE",
"-211 -157 CURVE SMOOTH",
"-170 -139 OFFCURVE",
"-67 -108 OFFCURVE",
"99 -64 CURVE",
"56 -144 OFFCURVE",
"-12 -226 OFFCURVE",
"-106 -310 CURVE SMOOTH",
"-173 -370 OFFCURVE",
"-236 -400 OFFCURVE",
"-294 -400 CURVE SMOOTH"
);
},
{
closed = 1;
nodes = (
"509 652 OFFCURVE",
"510 673 OFFCURVE",
"510 689 CURVE SMOOTH",
"510 705 OFFCURVE",
"490 733 OFFCURVE",
"456 733 CURVE SMOOTH",
"408 733 OFFCURVE",
"384 693 OFFCURVE",
"384 655 CURVE SMOOTH",
"384 597 OFFCURVE",
"464 611 OFFCURVE",
"483 628 CURVE SMOOTH"
);
}
);
width = 457;
}
);
note = j;
unicode = 006A;
},
{
glyphname = k;
lastChange = "2020-12-23 23:20:43 +0000";
layers = (
{
layerId = "1691882E-B915-4755-A5B2-757873D945FF";
paths = (
{
closed = 1;
nodes = (
"594 -83 OFFCURVE",
"657 -40 OFFCURVE",
"714 46 CURVE SMOOTH",
"765 124 OFFCURVE",
"800 196 OFFCURVE",
"800 220 CURVE SMOOTH",
"800 228 OFFCURVE",
"791 246 OFFCURVE",
"777 220 CURVE SMOOTH",
"727 117 OFFCURVE",
"689 47 OFFCURVE",
"656 14 CURVE SMOOTH",
"619 -23 OFFCURVE",
"585 -38 OFFCURVE",
"557 -38 CURVE SMOOTH",
"509 -38 OFFCURVE",
"480 7 OFFCURVE",
"468 53 CURVE SMOOTH",
"459 87 OFFCURVE",
"454 136 OFFCURVE",
"479 194 CURVE",
"583 204 OFFCURVE",
"680 274 OFFCURVE",
"708 350 CURVE SMOOTH",
"713 365 OFFCURVE",
"716 379 OFFCURVE",
"716 391 CURVE SMOOTH",
"716 428 OFFCURVE",
"694 446 OFFCURVE",
"650 446 CURVE SMOOTH",
"630 446 OFFCURVE",
"603 441 OFFCURVE",
"569 430 CURVE SMOOTH",
"497 403 OFFCURVE",
"415 333 OFFCURVE",
"324 220 CURVE",
"350 298 OFFCURVE",
"425 455 OFFCURVE",
"555 656 CURVE SMOOTH",
"620 756 OFFCURVE",
"671 820 OFFCURVE",
"708 848 CURVE",
"700 846 OFFCURVE",
"688 848 OFFCURVE",
"672 850 CURVE SMOOTH",
"636 854 LINE SMOOTH",
"604 854 OFFCURVE",
"571 830 OFFCURVE",
"537 781 CURVE SMOOTH",
"495 718 OFFCURVE",
"422 584 OFFCURVE",
"318 380 CURVE SMOOTH",
"213 176 OFFCURVE",
"112 6 OFFCURVE",
"105 -5 CURVE SMOOTH",
"97 -18 OFFCURVE",
"110 -23 OFFCURVE",
"120 -14 CURVE SMOOTH",
"144 9 OFFCURVE",
"197 98 OFFCURVE",
"279 253 CURVE",
"241 172 OFFCURVE",
"138 -73 OFFCURVE",
"168 -73 CURVE SMOOTH",
"263 -73 LINE",
"234 -49 OFFCURVE",
"259 73 OFFCURVE",
"305 161 CURVE",
"375 261 OFFCURVE",
"495 373 OFFCURVE",
"575 373 CURVE SMOOTH",
"602 373 OFFCURVE",
"615 359 OFFCURVE",
"615 332 CURVE SMOOTH",
"615 288 OFFCURVE",
"532 218 OFFCURVE",
"462 218 CURVE SMOOTH",
"453 218 LINE SMOOTH",
"413 218 OFFCURVE",
"378 142 OFFCURVE",
"378 86 CURVE SMOOTH",
"378 31 OFFCURVE",
"395 -13 OFFCURVE",
"428 -47 CURVE SMOOTH",
"451 -71 OFFCURVE",
"483 -83 OFFCURVE",
"525 -83 CURVE SMOOTH"
);
}
);
width = 613;
}
);
leftMetricsKey = l;
note = k;
rightMetricsKey = r;
unicode = 006B;
},
{
glyphname = l;
lastChange = "2020-12-23 23:22:06 +0000";
layers = (
{
layerId = "1691882E-B915-4755-A5B2-757873D945FF";
paths = (
{
closed = 1;
nodes = (
"286 -79 OFFCURVE",
"339 -27 OFFCURVE",
"386 31 CURVE",
"414 65 OFFCURVE",
"463 166 OFFCURVE",
"477 210 CURVE SMOOTH",
"482 226 OFFCURVE",
"464 232 OFFCURVE",
"454 210 CURVE SMOOTH",
"385 58 OFFCURVE",
"313 -48 OFFCURVE",
"241 -48 CURVE SMOOTH",
"197 -48 OFFCURVE",
"178 -3 OFFCURVE",
"178 40 CURVE SMOOTH",
"178 101 OFFCURVE",
"200 149 OFFCURVE",
"220 213 CURVE",
"339 322 OFFCURVE",
"442 472 OFFCURVE",
"528 663 CURVE SMOOTH",
"552 715 OFFCURVE",
"564 758 OFFCURVE",
"564 792 CURVE SMOOTH",
"564 822 OFFCURVE",
"553 864 OFFCURVE",
"516 864 CURVE SMOOTH",
"483 864 OFFCURVE",
"449 846 OFFCURVE",
"415 810 CURVE SMOOTH",
"374 767 OFFCURVE",
"310 656 OFFCURVE",
"237 488 CURVE SMOOTH",
"195 390 OFFCURVE",
"165 298 OFFCURVE",
"123 165 CURVE SMOOTH",
"102 99 OFFCURVE",
"91 27 OFFCURVE",
"112 -22 CURVE SMOOTH",
"127 -56 OFFCURVE",
"157 -79 OFFCURVE",
"211 -79 CURVE SMOOTH"
);
},
{
closed = 1;
nodes = (
"319 485 OFFCURVE",
"437 803 OFFCURVE",
"519 803 CURVE SMOOTH",
"540 803 OFFCURVE",
"530 745 OFFCURVE",
"494 660 CURVE SMOOTH",
"447 549 OFFCURVE",
"334 365 OFFCURVE",
"232 261 CURVE"
);
}
);
width = 339;
}
);
note = l;
unicode = 006C;
},
{
glyphname = m;
lastChange = "2020-12-23 23:24:01 +0000";
layers = (
{
layerId = "1691882E-B915-4755-A5B2-757873D945FF";
paths = (
{
closed = 1;
nodes = (
"-149 14 OFFCURVE",
"-105 -20 OFFCURVE",
"-85 23 CURVE SMOOTH",
"-17 154 OFFCURVE",
"52 251 OFFCURVE",
"122 315 CURVE SMOOTH",
"159 350 OFFCURVE",
"186 372 OFFCURVE",
"204 381 CURVE SMOOTH",
"238 398 OFFCURVE",
"239 367 OFFCURVE",
"200 288 CURVE SMOOTH",
"145 173 OFFCURVE",
"117 95 OFFCURVE",
"117 54 CURVE SMOOTH",
"117 34 OFFCURVE",
"133 -3 OFFCURVE",
"167 -3 CURVE",
"201 155 OFFCURVE",
"396 383 OFFCURVE",
"477 383 CURVE SMOOTH",
"493 383 OFFCURVE",
"501 378 OFFCURVE",
"501 367 CURVE SMOOTH",
"501 357 OFFCURVE",
"496 342 OFFCURVE",
"485 324 CURVE SMOOTH",
"410 205 OFFCURVE",
"387 144 OFFCURVE",
"387 87 CURVE SMOOTH",
"387 64 OFFCURVE",
"392 46 OFFCURVE",
"401 33 CURVE SMOOTH",
"438 -19 OFFCURVE",
"500 -20 OFFCURVE",
"550 15 CURVE SMOOTH",
"616 60 OFFCURVE",
"664 133 OFFCURVE",
"698 206 CURVE SMOOTH",
"726 266 OFFCURVE",
"735 286 OFFCURVE",
"737 291 CURVE SMOOTH",
"741 301 OFFCURVE",
"722 315 OFFCURVE",
"710 287 CURVE SMOOTH",
"675 207 OFFCURVE",
"634 138 OFFCURVE",
"587 81 CURVE SMOOTH",
"556 45 OFFCURVE",
"528 27 OFFCURVE",
"504 27 CURVE SMOOTH",
"485 27 OFFCURVE",
"476 41 OFFCURVE",
"476 69 CURVE SMOOTH",
"476 132 OFFCURVE",
"537 272 OFFCURVE",
"659 489 CURVE",
"655 491 OFFCURVE",
"650 492 OFFCURVE",
"644 492 CURVE SMOOTH",
"594 492 OFFCURVE",
"463 420 OFFCURVE",
"383 349 CURVE SMOOTH",
"343 313 OFFCURVE",
"301 268 OFFCURVE",
"257 213 CURVE",
"267 233 OFFCURVE",
"289 274 OFFCURVE",
"323 336 CURVE SMOOTH",
"357 398 OFFCURVE",
"374 437 OFFCURVE",
"374 452 CURVE SMOOTH",
"374 469 OFFCURVE",
"366 487 OFFCURVE",
"344 489 CURVE SMOOTH",
"287 495 OFFCURVE",
"129 351 OFFCURVE",
"102 327 CURVE SMOOTH",
"81 309 OFFCURVE",
"47 271 OFFCURVE",
"0 213 CURVE",
"84 381 OFFCURVE",
"145 475 OFFCURVE",
"182 495 CURVE",
"166 491 OFFCURVE",
"123 501 OFFCURVE",
"114 501 CURVE SMOOTH",
"93 501 OFFCURVE",
"77 495 OFFCURVE",
"65 483 CURVE SMOOTH",
"38 457 OFFCURVE",
"-16 358 OFFCURVE",
"-97 186 CURVE SMOOTH",
"-142 90 OFFCURVE",
"-174 25 OFFCURVE",
"-192 -10 CURVE"
);
}
);
width = 507;
}
);
note = m;
unicode = 006D;
},
{
glyphname = n;
lastChange = "2020-12-23 23:24:35 +0000";
layers = (
{
layerId = "1691882E-B915-4755-A5B2-757873D945FF";
paths = (
{
closed = 1;
nodes = (
"61 11 OFFCURVE",
"103 -21 OFFCURVE",
"127 19 CURVE",
"194 151 OFFCURVE",
"263 250 OFFCURVE",
"335 316 CURVE SMOOTH",
"438 413 OFFCURVE",
"486 397 OFFCURVE",
"442 325 CURVE SMOOTH",
"367 205 OFFCURVE",
"344 145 OFFCURVE",
"344 87 CURVE SMOOTH",
"344 65 OFFCURVE",
"349 47 OFFCURVE",
"359 34 CURVE SMOOTH",
"401 -28 OFFCURVE",
"482 -25 OFFCURVE",
"552 53 CURVE SMOOTH",
"588 93 OFFCURVE",
"635 163 OFFCURVE",
"686 274 CURVE SMOOTH",
"705 315 OFFCURVE",
"682 321 OFFCURVE",
"665 287 CURVE SMOOTH",
"579 114 OFFCURVE",
"511 28 OFFCURVE",
"460 28 CURVE SMOOTH",
"441 28 OFFCURVE",
"431 41 OFFCURVE",
"431 67 CURVE SMOOTH",
"431 133 OFFCURVE",
"493 274 OFFCURVE",
"616 490 CURVE",
"611 492 OFFCURVE",
"605 493 OFFCURVE",
"599 493 CURVE SMOOTH",
"549 493 OFFCURVE",
"419 422 OFFCURVE",
"342 353 CURVE SMOOTH",
"303 318 OFFCURVE",
"261 272 OFFCURVE",
"214 214 CURVE",
"298 382 OFFCURVE",
"358 476 OFFCURVE",
"395 496 CURVE",
"373 490 OFFCURVE",
"348 502 OFFCURVE",
"328 502 CURVE SMOOTH",
"307 502 OFFCURVE",
"290 496 OFFCURVE",
"278 484 CURVE SMOOTH",
"252 459 OFFCURVE",
"197 359 OFFCURVE",
"113 184 CURVE SMOOTH",
"66 85 OFFCURVE",
"35 19 OFFCURVE",
"19 -13 CURVE"
);
}
);
width = 507;
}
);
note = n;
unicode = 006E;
},
{
glyphname = ntilde;
lastChange = "2020-12-23 11:07:07 +0000";
layers = (
{
layerId = "1691882E-B915-4755-A5B2-757873D945FF";
paths = (
{
closed = 1;
nodes = (
"-116 -28 OFFCURVE",
"-74 -61 OFFCURVE",
"-50 -21 CURVE",
"17 111 OFFCURVE",
"87 210 OFFCURVE",
"159 276 CURVE SMOOTH",
"262 373 OFFCURVE",
"309 358 OFFCURVE",
"265 285 CURVE SMOOTH",
"190 166 OFFCURVE",
"168 105 OFFCURVE",
"168 48 CURVE SMOOTH",
"168 25 OFFCURVE",
"172 7 OFFCURVE",
"183 -6 CURVE SMOOTH",
"224 -67 OFFCURVE",
"306 -64 OFFCURVE",
"375 13 CURVE SMOOTH",
"412 54 OFFCURVE",
"457 127 OFFCURVE",
"510 234 CURVE SMOOTH",
"523 264 OFFCURVE",
"501 276 OFFCURVE",
"489 248 CURVE SMOOTH",
"403 75 OFFCURVE",
"334 -12 OFFCURVE",
"283 -12 CURVE SMOOTH",
"264 -12 OFFCURVE",
"255 1 OFFCURVE",
"255 27 CURVE SMOOTH",
"255 93 OFFCURVE",
"316 234 OFFCURVE",
"439 450 CURVE",
"434 452 OFFCURVE",
"429 453 OFFCURVE",
"423 453 CURVE SMOOTH",
"373 453 OFFCURVE",
"242 382 OFFCURVE",
"165 313 CURVE SMOOTH",
"127 279 OFFCURVE",
"84 232 OFFCURVE",
"37 174 CURVE",
"121 342 OFFCURVE",
"181 436 OFFCURVE",
"219 456 CURVE",
"211 454 OFFCURVE",
"198 455 OFFCURVE",
"182 458 CURVE SMOOTH",
"165 461 OFFCURVE",
"155 462 OFFCURVE",
"151 462 CURVE SMOOTH",
"130 462 OFFCURVE",
"114 456 OFFCURVE",
"102 444 CURVE SMOOTH",
"76 419 OFFCURVE",
"21 319 OFFCURVE",
"-64 144 CURVE SMOOTH",
"-110 45 OFFCURVE",
"-142 -20 OFFCURVE",
"-158 -52 CURVE"
);
},
{
closed = 1;
nodes = (
"471 572 OFFCURVE",
"517 612 OFFCURVE",
"556 692 CURVE",
"554 697 OFFCURVE",
"547 699 OFFCURVE",
"534 699 CURVE SMOOTH",
"529 699 OFFCURVE",
"526 698 OFFCURVE",
"525 695 CURVE SMOOTH",
"508 660 OFFCURVE",
"484 642 OFFCURVE",
"453 642 CURVE SMOOTH",
"408 642 OFFCURVE",
"342 696 OFFCURVE",
"252 696 CURVE SMOOTH",
"202 696 OFFCURVE",
"156 659 OFFCURVE",
"114 584 CURVE",
"114 582 OFFCURVE",
"116 580 OFFCURVE",
"121 578 CURVE SMOOTH",
"137 573 OFFCURVE",
"146 574 OFFCURVE",
"148 581 CURVE",
"166 614 OFFCURVE",
"187 630 OFFCURVE",
"213 630 CURVE SMOOTH",
"238 630 OFFCURVE",
"274 620 OFFCURVE",
"321 599 CURVE SMOOTH",
"363 581 OFFCURVE",
"394 572 OFFCURVE",
"417 572 CURVE SMOOTH"
);
}
);
width = 335;
}
);
note = ntilde;
unicode = 00F1;
},
{
glyphname = o;
lastChange = "2020-12-23 23:26:36 +0000";
layers = (
{
layerId = "1691882E-B915-4755-A5B2-757873D945FF";
paths = (
{
closed = 1;
nodes = (
"82 -8 OFFCURVE",
"125 9 OFFCURVE",
"171 44 CURVE",
"194 18 OFFCURVE",
"226 5 OFFCURVE",
"267 5 CURVE SMOOTH",
"325 5 OFFCURVE",
"371 45 OFFCURVE",
"408 98 CURVE SMOOTH",
"449 157 OFFCURVE",
"479 231 OFFCURVE",
"505 285 CURVE SMOOTH",
"511 297 OFFCURVE",
"495 314 OFFCURVE",
"486 296 CURVE SMOOTH",
"478 280 OFFCURVE",
"466 253 OFFCURVE",
"439 204 CURVE SMOOTH",
"398 129 OFFCURVE",
"376 102 OFFCURVE",
"346 71 CURVE SMOOTH",
"322 44 OFFCURVE",
"297 30 OFFCURVE",
"270 30 CURVE SMOOTH",
"236 30 OFFCURVE",
"212 42 OFFCURVE",
"199 68 CURVE",
"255 120 OFFCURVE",
"297 180 OFFCURVE",
"325 245 CURVE SMOOTH",
"347 293 OFFCURVE",
"358 338 OFFCURVE",
"358 380 CURVE SMOOTH",
"358 471 OFFCURVE",
"322 518 OFFCURVE",
"249 518 CURVE SMOOTH",
"151 518 OFFCURVE",
"27 405 OFFCURVE",
"-33 266 CURVE SMOOTH",
"-55 218 OFFCURVE",
"-66 173 OFFCURVE",
"-66 131 CURVE SMOOTH",
"-66 39 OFFCURVE",
"-30 -8 OFFCURVE",
"43 -8 CURVE SMOOTH"
);
},
{
closed = 1;
nodes = (
"35 24 OFFCURVE",
"18 47 OFFCURVE",
"18 93 CURVE SMOOTH",
"18 139 OFFCURVE",
"35 198 OFFCURVE",
"70 270 CURVE SMOOTH",
"128 394 OFFCURVE",
"211 471 OFFCURVE",
"265 471 CURVE SMOOTH",
"302 471 OFFCURVE",
"321 447 OFFCURVE",
"321 398 CURVE SMOOTH",
"321 348 OFFCURVE",
"308 299 OFFCURVE",
"283 248 CURVE SMOOTH",
"261 201 OFFCURVE",
"242 166 OFFCURVE",
"225 141 CURVE",
"236 187 OFFCURVE",
"203 203 OFFCURVE",
"183 203 CURVE SMOOTH",
"150 203 OFFCURVE",
"132 181 OFFCURVE",
"130 138 CURVE SMOOTH",
"130 112 OFFCURVE",
"138 87 OFFCURVE",
"154 65 CURVE",
"123 38 OFFCURVE",
"95 24 OFFCURVE",
"70 24 CURVE SMOOTH"
);
}
);
width = 335;
}
);
note = o;
unicode = 006F;
},
{
glyphname = oacute;
lastChange = "2020-12-23 11:07:07 +0000";
layers = (
{
layerId = "1691882E-B915-4755-A5B2-757873D945FF";
paths = (
{
closed = 1;
nodes = (
"74 -55 OFFCURVE",
"116 -38 OFFCURVE",
"162 -4 CURVE",
"185 -29 OFFCURVE",
"217 -43 OFFCURVE",
"258 -43 CURVE SMOOTH",
"280 -43 OFFCURVE",
"304 -35 OFFCURVE",
"329 -20 CURVE SMOOTH",
"349 -8 OFFCURVE",
"373 18 OFFCURVE",
"388 36 CURVE SMOOTH",
"403 54 OFFCURVE",
"425 90 OFFCURVE",
"436 108 CURVE SMOOTH",
"447 127 OFFCURVE",
"463 159 OFFCURVE",
"485 207 CURVE SMOOTH",
"494 228 LINE SMOOTH",
"510 265 OFFCURVE",
"478 258 OFFCURVE",
"454 204 CURVE SMOOTH",
"435 163 OFFCURVE",
"428 152 OFFCURVE",
"402 105 CURVE SMOOTH",
"389 82 OFFCURVE",
"368 55 OFFCURVE",
"338 24 CURVE SMOOTH",
"314 -4 OFFCURVE",
"288 -17 OFFCURVE",
"261 -17 CURVE SMOOTH",
"227 -17 OFFCURVE",
"204 -5 OFFCURVE",
"191 21 CURVE",
"247 73 OFFCURVE",
"289 133 OFFCURVE",
"317 198 CURVE SMOOTH",
"339 246 OFFCURVE",
"350 291 OFFCURVE",
"350 333 CURVE SMOOTH",
"350 424 OFFCURVE",
"313 471 OFFCURVE",
"240 471 CURVE SMOOTH",
"142 471 OFFCURVE",
"18 358 OFFCURVE",
"-42 219 CURVE SMOOTH",
"-64 171 OFFCURVE",
"-75 126 OFFCURVE",
"-75 84 CURVE SMOOTH",
"-75 -8 OFFCURVE",
"-38 -55 OFFCURVE",
"35 -55 CURVE SMOOTH"
);
},
{
closed = 1;
nodes = (
"27 -23 OFFCURVE",
"9 0 OFFCURVE",
"9 46 CURVE SMOOTH",
"9 92 OFFCURVE",
"27 151 OFFCURVE",
"62 223 CURVE SMOOTH",
"120 347 OFFCURVE",
"203 424 OFFCURVE",
"257 424 CURVE SMOOTH",
"294 424 OFFCURVE",
"312 400 OFFCURVE",
"312 351 CURVE SMOOTH",
"312 301 OFFCURVE",
"300 252 OFFCURVE",
"275 201 CURVE SMOOTH",
"253 154 OFFCURVE",
"233 119 OFFCURVE",
"216 94 CURVE",
"228 140 OFFCURVE",
"194 156 OFFCURVE",
"174 156 CURVE SMOOTH",
"141 156 OFFCURVE",
"124 134 OFFCURVE",
"122 91 CURVE SMOOTH",
"122 65 OFFCURVE",
"130 40 OFFCURVE",
"146 18 CURVE",
"115 -10 OFFCURVE",
"87 -23 OFFCURVE",
"62 -23 CURVE SMOOTH"
);
},
{
closed = 1;
nodes = (
"267 599 OFFCURVE",
"267 599 OFFCURVE",
"276 606 CURVE SMOOTH",
"302 627 LINE",
"291 619 OFFCURVE",
"282 612 OFFCURVE",
"276 606 CURVE SMOOTH",
"274 605 LINE SMOOTH"
);
},
{
closed = 1;
nodes = (
"288 573 OFFCURVE",
"535 682 OFFCURVE",
"545 706 CURVE SMOOTH",
"558 733 OFFCURVE",
"540 751 OFFCURVE",
"497 753 CURVE SMOOTH",
"468 753 OFFCURVE",
"443 726 OFFCURVE",
"389 689 CURVE SMOOTH",
"340 654 OFFCURVE",
"290 617 OFFCURVE",
"274 605 CURVE SMOOTH",
"246 579 OFFCURVE",
"260 572 OFFCURVE",
"266 573 CURVE SMOOTH"
);
}
);
width = 335;
}
);
note = oacute;
unicode = 00F3;
},
{
glyphname = ocircumflex;
lastChange = "2020-12-23 11:07:07 +0000";
layers = (
{
layerId = "1691882E-B915-4755-A5B2-757873D945FF";
paths = (
{
closed = 1;
nodes = (
"82 -50 OFFCURVE",
"125 -33 OFFCURVE",
"171 2 CURVE",
"194 -24 OFFCURVE",
"226 -38 OFFCURVE",
"267 -38 CURVE SMOOTH",
"289 -38 OFFCURVE",
"312 -30 OFFCURVE",
"337 -15 CURVE SMOOTH",
"357 -3 OFFCURVE",
"382 23 OFFCURVE",
"397 41 CURVE SMOOTH",
"412 59 OFFCURVE",
"434 95 OFFCURVE",
"445 113 CURVE SMOOTH",
"456 132 OFFCURVE",
"471 164 OFFCURVE",
"493 212 CURVE SMOOTH",
"502 233 LINE SMOOTH",
"504 237 OFFCURVE",
"505 240 OFFCURVE",
"505 243 CURVE SMOOTH",
"505 251 OFFCURVE",
"500 255 OFFCURVE",
"490 254 CURVE SMOOTH",
"475 254 OFFCURVE",
"466 211 OFFCURVE",
"439 162 CURVE SMOOTH",
"411 110 LINE SMOOTH",
"398 87 OFFCURVE",
"376 60 OFFCURVE",
"346 29 CURVE SMOOTH",
"322 2 OFFCURVE",
"297 -12 OFFCURVE",
"270 -12 CURVE SMOOTH",
"236 -12 OFFCURVE",
"212 0 OFFCURVE",
"199 26 CURVE",
"255 78 OFFCURVE",
"297 138 OFFCURVE",
"325 203 CURVE SMOOTH",
"347 251 OFFCURVE",
"358 296 OFFCURVE",
"358 338 CURVE SMOOTH",
"358 429 OFFCURVE",
"322 476 OFFCURVE",
"249 476 CURVE SMOOTH",
"151 476 OFFCURVE",
"27 363 OFFCURVE",
"-33 224 CURVE SMOOTH",
"-55 176 OFFCURVE",
"-66 131 OFFCURVE",
"-66 89 CURVE SMOOTH",
"-66 -3 OFFCURVE",
"-30 -50 OFFCURVE",
"43 -50 CURVE SMOOTH"
);
},
{
closed = 1;
nodes = (
"35 -18 OFFCURVE",
"18 5 OFFCURVE",
"18 51 CURVE SMOOTH",
"18 97 OFFCURVE",
"35 156 OFFCURVE",
"70 228 CURVE SMOOTH",
"128 352 OFFCURVE",
"211 429 OFFCURVE",
"265 429 CURVE SMOOTH",
"302 429 OFFCURVE",
"321 405 OFFCURVE",
"321 356 CURVE SMOOTH",
"321 306 OFFCURVE",
"308 257 OFFCURVE",
"283 206 CURVE SMOOTH",
"261 159 OFFCURVE",
"242 124 OFFCURVE",
"225 99 CURVE",
"236 145 OFFCURVE",
"203 161 OFFCURVE",
"183 161 CURVE SMOOTH",
"150 161 OFFCURVE",
"132 139 OFFCURVE",
"130 96 CURVE SMOOTH",
"130 70 OFFCURVE",
"138 45 OFFCURVE",
"154 23 CURVE",
"123 -5 OFFCURVE",
"95 -18 OFFCURVE",
"70 -18 CURVE SMOOTH"
);
},
{
closed = 1;
nodes = (
"147 542 OFFCURVE",
"200 560 OFFCURVE",
"168 566 CURVE",
"366 672 LINE",
"435 566 LINE SMOOTH",
"442 555 OFFCURVE",
"473 552 OFFCURVE",
"465 566 CURVE",
"411 725 LINE SMOOTH",
"410 726 OFFCURVE",
"405 728 OFFCURVE",
"396 728 CURVE SMOOTH",
"387 728 OFFCURVE",
"373 726 OFFCURVE",
"354 725 CURVE",
"130 566 LINE"
);
}
);
width = 335;
}
);
note = ocircumflex;
unicode = 00F4;
},
{
glyphname = odieresis;
lastChange = "2020-12-23 11:07:07 +0000";
layers = (
{
layerId = "1691882E-B915-4755-A5B2-757873D945FF";
paths = (
{
closed = 1;
nodes = (
"82 -43 OFFCURVE",
"125 -26 OFFCURVE",
"171 9 CURVE",
"194 -17 OFFCURVE",
"226 -31 OFFCURVE",
"267 -31 CURVE SMOOTH",
"289 -31 OFFCURVE",
"312 -23 OFFCURVE",
"337 -8 CURVE SMOOTH",
"357 4 OFFCURVE",
"382 30 OFFCURVE",
"397 48 CURVE SMOOTH",
"412 66 OFFCURVE",
"434 102 OFFCURVE",
"445 120 CURVE SMOOTH",
"456 139 OFFCURVE",
"471 171 OFFCURVE",
"493 219 CURVE SMOOTH",
"502 240 LINE SMOOTH",
"504 244 OFFCURVE",
"505 247 OFFCURVE",
"505 250 CURVE SMOOTH",
"505 258 OFFCURVE",
"500 262 OFFCURVE",
"490 261 CURVE SMOOTH",
"475 261 OFFCURVE",
"466 218 OFFCURVE",
"439 169 CURVE SMOOTH",
"411 117 LINE SMOOTH",
"398 94 OFFCURVE",
"376 67 OFFCURVE",
"346 36 CURVE SMOOTH",
"322 9 OFFCURVE",
"297 -5 OFFCURVE",
"270 -5 CURVE SMOOTH",
"236 -5 OFFCURVE",
"212 7 OFFCURVE",
"199 33 CURVE",
"255 85 OFFCURVE",
"297 145 OFFCURVE",
"325 210 CURVE SMOOTH",
"347 258 OFFCURVE",
"358 303 OFFCURVE",
"358 345 CURVE SMOOTH",
"358 436 OFFCURVE",
"322 483 OFFCURVE",
"249 483 CURVE SMOOTH",
"151 483 OFFCURVE",
"27 370 OFFCURVE",
"-33 231 CURVE SMOOTH",
"-55 183 OFFCURVE",
"-66 138 OFFCURVE",
"-66 96 CURVE SMOOTH",
"-66 4 OFFCURVE",
"-30 -43 OFFCURVE",
"43 -43 CURVE SMOOTH"
);
},
{
closed = 1;
nodes = (
"35 -11 OFFCURVE",
"18 12 OFFCURVE",
"18 58 CURVE SMOOTH",
"18 104 OFFCURVE",
"35 163 OFFCURVE",
"70 235 CURVE SMOOTH",
"128 359 OFFCURVE",
"211 436 OFFCURVE",
"265 436 CURVE SMOOTH",
"302 436 OFFCURVE",
"321 412 OFFCURVE",
"321 363 CURVE SMOOTH",
"321 313 OFFCURVE",
"308 264 OFFCURVE",
"283 213 CURVE SMOOTH",
"261 166 OFFCURVE",
"242 131 OFFCURVE",
"225 106 CURVE",
"236 152 OFFCURVE",
"203 168 OFFCURVE",
"183 168 CURVE SMOOTH",
"150 168 OFFCURVE",
"132 146 OFFCURVE",
"130 103 CURVE SMOOTH",
"130 77 OFFCURVE",
"138 52 OFFCURVE",
"154 30 CURVE",
"123 3 OFFCURVE",
"95 -11 OFFCURVE",
"70 -11 CURVE SMOOTH"
);
},
{
closed = 1;
nodes = (
"262 594 OFFCURVE",
"282 615 OFFCURVE",
"282 644 CURVE SMOOTH",
"282 673 OFFCURVE",
"260 693 OFFCURVE",
"232 693 CURVE SMOOTH",
"203 693 OFFCURVE",
"183 671 OFFCURVE",
"183 642 CURVE SMOOTH",
"183 613 OFFCURVE",
"204 594 OFFCURVE",
"233 594 CURVE SMOOTH"
);
},
{
closed = 1;
nodes = (
"455 594 OFFCURVE",
"475 615 OFFCURVE",
"475 644 CURVE SMOOTH",
"475 673 OFFCURVE",
"454 693 OFFCURVE",
"425 693 CURVE SMOOTH",
"396 693 OFFCURVE",
"376 671 OFFCURVE",
"376 642 CURVE SMOOTH",
"376 613 OFFCURVE",
"398 594 OFFCURVE",
"427 594 CURVE SMOOTH"
);
}
);
width = 335;
}
);
note = odieresis;
unicode = 00F6;
},
{
glyphname = ograve;
lastChange = "2020-12-23 11:07:07 +0000";
layers = (
{
layerId = "1691882E-B915-4755-A5B2-757873D945FF";
paths = (
{
closed = 1;
nodes = (
"82 -54 OFFCURVE",
"125 -37 OFFCURVE",
"171 -3 CURVE",
"194 -28 OFFCURVE",
"226 -42 OFFCURVE",
"267 -42 CURVE SMOOTH",
"289 -42 OFFCURVE",
"312 -34 OFFCURVE",
"337 -19 CURVE SMOOTH",
"357 -7 OFFCURVE",
"382 19 OFFCURVE",
"397 37 CURVE SMOOTH",
"412 55 OFFCURVE",
"434 91 OFFCURVE",
"445 109 CURVE SMOOTH",
"456 128 OFFCURVE",
"471 160 OFFCURVE",
"493 208 CURVE SMOOTH",
"502 229 LINE SMOOTH",
"504 233 OFFCURVE",
"505 236 OFFCURVE",
"505 239 CURVE SMOOTH",
"505 247 OFFCURVE",
"500 251 OFFCURVE",
"490 250 CURVE SMOOTH",
"475 250 OFFCURVE",
"466 207 OFFCURVE",
"439 158 CURVE SMOOTH",
"411 106 LINE SMOOTH",
"398 83 OFFCURVE",
"376 56 OFFCURVE",
"346 25 CURVE SMOOTH",
"322 -3 OFFCURVE",
"297 -16 OFFCURVE",
"270 -16 CURVE SMOOTH",
"236 -16 OFFCURVE",
"212 -4 OFFCURVE",
"199 22 CURVE",
"255 74 OFFCURVE",
"297 134 OFFCURVE",
"325 199 CURVE SMOOTH",
"347 247 OFFCURVE",
"358 292 OFFCURVE",
"358 334 CURVE SMOOTH",
"358 425 OFFCURVE",
"322 472 OFFCURVE",
"249 472 CURVE SMOOTH",
"151 472 OFFCURVE",
"27 359 OFFCURVE",
"-33 220 CURVE SMOOTH",
"-55 172 OFFCURVE",
"-66 127 OFFCURVE",
"-66 85 CURVE SMOOTH",
"-66 -7 OFFCURVE",
"-30 -54 OFFCURVE",
"43 -54 CURVE SMOOTH"
);
},
{
closed = 1;
nodes = (
"35 -22 OFFCURVE",
"18 1 OFFCURVE",
"18 47 CURVE SMOOTH",
"18 93 OFFCURVE",
"35 152 OFFCURVE",
"70 224 CURVE SMOOTH",
"128 348 OFFCURVE",
"211 425 OFFCURVE",
"265 425 CURVE SMOOTH",
"302 425 OFFCURVE",
"321 401 OFFCURVE",
"321 352 CURVE SMOOTH",
"321 302 OFFCURVE",
"308 253 OFFCURVE",
"283 202 CURVE SMOOTH",
"261 155 OFFCURVE",
"242 120 OFFCURVE",
"225 95 CURVE",
"236 141 OFFCURVE",
"203 157 OFFCURVE",
"183 157 CURVE SMOOTH",
"150 157 OFFCURVE",
"132 135 OFFCURVE",
"130 92 CURVE SMOOTH",
"130 66 OFFCURVE",
"138 41 OFFCURVE",
"154 19 CURVE",
"123 -9 OFFCURVE",
"95 -22 OFFCURVE",
"70 -22 CURVE SMOOTH"
);
},
{
closed = 1;
nodes = (
"349 545 OFFCURVE",
"354 550 OFFCURVE",
"354 559 CURVE SMOOTH",
"354 571 OFFCURVE",
"132 748 OFFCURVE",
"106 748 CURVE SMOOTH",
"87 748 OFFCURVE",
"78 736 OFFCURVE",
"78 712 CURVE SMOOTH",
"78 688 OFFCURVE",
"96 667 OFFCURVE",
"133 649 CURVE SMOOTH",
"236 595 LINE SMOOTH",
"299 562 OFFCURVE",
"333 545 OFFCURVE",
"339 545 CURVE SMOOTH"
);
}
);
width = 335;
}
);
note = ograve;
unicode = 00F2;
},
{
glyphname = oslash;
lastChange = "2020-12-23 11:07:07 +0000";
layers = (
{
layerId = "1691882E-B915-4755-A5B2-757873D945FF";
paths = (
{
closed = 1;
nodes = (
"39 -3 LINE",
"43 -3 LINE SMOOTH",
"82 -3 OFFCURVE",
"125 14 OFFCURVE",
"171 48 CURVE",
"194 22 OFFCURVE",
"226 9 OFFCURVE",
"267 9 CURVE SMOOTH",
"289 9 OFFCURVE",
"312 16 OFFCURVE",
"337 31 CURVE SMOOTH",
"357 43 OFFCURVE",
"382 69 OFFCURVE",
"397 87 CURVE SMOOTH",
"412 105 OFFCURVE",
"434 141 OFFCURVE",
"445 159 CURVE SMOOTH",
"456 178 OFFCURVE",
"471 211 OFFCURVE",
"493 258 CURVE SMOOTH",
"502 279 LINE SMOOTH",
"504 283 OFFCURVE",
"505 286 OFFCURVE",
"505 289 CURVE SMOOTH",
"505 297 OFFCURVE",
"500 301 OFFCURVE",
"490 300 CURVE SMOOTH",
"475 300 OFFCURVE",
"466 257 OFFCURVE",
"439 208 CURVE SMOOTH",
"411 157 LINE SMOOTH",
"398 133 OFFCURVE",
"376 106 OFFCURVE",
"346 75 CURVE SMOOTH",
"322 48 OFFCURVE",
"297 34 OFFCURVE",
"270 34 CURVE SMOOTH",
"236 34 OFFCURVE",
"212 47 OFFCURVE",
"199 72 CURVE",
"351 215 OFFCURVE",
"399 420 OFFCURVE",
"321 495 CURVE",
"361 564 LINE",
"333 577 LINE",
"295 511 LINE",
"281 518 OFFCURVE",
"266 522 OFFCURVE",
"249 522 CURVE SMOOTH",
"151 522 OFFCURVE",
"27 410 OFFCURVE",
"-33 270 CURVE SMOOTH",
"-55 222 OFFCURVE",
"-66 176 OFFCURVE",
"-66 132 CURVE SMOOTH",
"-66 60 OFFCURVE",
"-42 16 OFFCURVE",
"7 1 CURVE",
"-35 -72 LINE",
"-8 -84 LINE"
);
},
{
closed = 1;
nodes = (
"130 159 LINE",
"130 142 LINE SMOOTH",
"130 116 OFFCURVE",
"138 92 OFFCURVE",
"154 69 CURVE",
"121 43 OFFCURVE",
"92 30 OFFCURVE",
"67 30 CURVE SMOOTH",
"57 30 LINE"
);
},
{
closed = 1;
nodes = (
"5 79 OFFCURVE",
"12 150 OFFCURVE",
"64 262 CURVE SMOOTH",
"127 397 OFFCURVE",
"207 474 OFFCURVE",
"265 474 CURVE SMOOTH",
"274 474 LINE",
"31 45 LINE"
);
},
{
closed = 1;
nodes = (
"235 187 OFFCURVE",
"204 228 OFFCURVE",
"153 198 CURVE",
"301 460 LINE",
"313 447 OFFCURVE",
"319 431 OFFCURVE",
"319 412 CURVE SMOOTH",
"319 327 OFFCURVE",
"288 238 OFFCURVE",
"225 145 CURVE"
);
}
);
width = 335;
}
);
note = oslash;
unicode = 00F8;
},
{
glyphname = otilde;
lastChange = "2020-12-23 11:07:07 +0000";
layers = (
{
layerId = "1691882E-B915-4755-A5B2-757873D945FF";
paths = (
{
closed = 1;
nodes = (
"77 -49 OFFCURVE",
"119 -32 OFFCURVE",
"165 2 CURVE",
"188 -24 OFFCURVE",
"220 -37 OFFCURVE",
"261 -37 CURVE SMOOTH",
"283 -37 OFFCURVE",
"306 -30 OFFCURVE",
"332 -15 CURVE SMOOTH",
"351 -3 OFFCURVE",
"376 23 OFFCURVE",
"391 41 CURVE SMOOTH",
"406 59 OFFCURVE",
"428 95 OFFCURVE",
"439 113 CURVE SMOOTH",
"450 132 OFFCURVE",
"466 165 OFFCURVE",
"488 212 CURVE SMOOTH",
"497 233 LINE SMOOTH",
"513 271 OFFCURVE",
"481 263 OFFCURVE",
"457 210 CURVE SMOOTH",
"438 169 OFFCURVE",
"431 158 OFFCURVE",
"405 111 CURVE SMOOTH",
"392 87 OFFCURVE",
"371 60 OFFCURVE",
"341 29 CURVE SMOOTH",
"317 2 OFFCURVE",
"291 -12 OFFCURVE",
"264 -12 CURVE SMOOTH",
"230 -12 OFFCURVE",
"207 1 OFFCURVE",
"194 26 CURVE",
"249 79 OFFCURVE",
"291 138 OFFCURVE",
"320 203 CURVE SMOOTH",
"342 251 OFFCURVE",
"353 296 OFFCURVE",
"353 338 CURVE SMOOTH",
"353 430 OFFCURVE",
"316 476 OFFCURVE",
"243 476 CURVE SMOOTH",
"145 476 OFFCURVE",
"21 364 OFFCURVE",
"-39 224 CURVE SMOOTH",
"-61 176 OFFCURVE",
"-72 131 OFFCURVE",
"-72 89 CURVE SMOOTH",
"-72 -3 OFFCURVE",
"-36 -49 OFFCURVE",
"38 -49 CURVE SMOOTH"
);
},
{
closed = 1;
nodes = (
"30 -18 OFFCURVE",
"12 5 OFFCURVE",
"12 52 CURVE SMOOTH",
"12 98 OFFCURVE",
"30 157 OFFCURVE",
"65 229 CURVE SMOOTH",
"123 353 OFFCURVE",
"206 430 OFFCURVE",
"260 430 CURVE SMOOTH",
"297 430 OFFCURVE",
"315 405 OFFCURVE",
"315 356 CURVE SMOOTH",
"315 307 OFFCURVE",
"303 257 OFFCURVE",
"278 206 CURVE SMOOTH",
"255 160 OFFCURVE",
"236 125 OFFCURVE",
"219 100 CURVE",
"231 146 OFFCURVE",
"197 161 OFFCURVE",
"177 161 CURVE SMOOTH",
"144 161 OFFCURVE",
"126 140 OFFCURVE",
"125 97 CURVE SMOOTH",
"125 71 OFFCURVE",
"132 46 OFFCURVE",
"149 23 CURVE",
"117 -4 OFFCURVE",
"90 -18 OFFCURVE",
"65 -18 CURVE SMOOTH"
);
},
{
closed = 1;
nodes = (
"449 598 OFFCURVE",
"495 638 OFFCURVE",
"534 718 CURVE",
"532 722 OFFCURVE",
"525 725 OFFCURVE",
"512 725 CURVE SMOOTH",
"507 725 OFFCURVE",
"504 724 OFFCURVE",
"503 721 CURVE SMOOTH",
"486 686 OFFCURVE",
"462 668 OFFCURVE",
"431 668 CURVE SMOOTH",
"386 668 OFFCURVE",
"320 722 OFFCURVE",
"230 722 CURVE SMOOTH",
"180 722 OFFCURVE",
"134 685 OFFCURVE",
"92 610 CURVE",
"92 608 OFFCURVE",
"94 605 OFFCURVE",
"99 604 CURVE SMOOTH",
"115 599 OFFCURVE",
"124 599 OFFCURVE",
"126 607 CURVE",
"144 640 OFFCURVE",
"165 656 OFFCURVE",
"191 656 CURVE SMOOTH",
"216 656 OFFCURVE",
"252 646 OFFCURVE",
"299 625 CURVE SMOOTH",
"341 607 OFFCURVE",
"372 598 OFFCURVE",
"395 598 CURVE SMOOTH"
);
}
);
width = 335;
}
);
note = otilde;
unicode = 00F5;
},
{
glyphname = oe;
lastChange = "2020-12-23 11:07:07 +0000";
layers = (
{
layerId = "1691882E-B915-4755-A5B2-757873D945FF";
paths = (
{
closed = 1;
nodes = (
"434 -14 OFFCURVE",
"498 21 OFFCURVE",
"550 90 CURVE SMOOTH",
"573 120 OFFCURVE",
"605 181 OFFCURVE",
"647 273 CURVE SMOOTH",
"649 279 OFFCURVE",
"650 283 OFFCURVE",
"650 288 CURVE SMOOTH",
"650 292 OFFCURVE",
"649 294 OFFCURVE",
"646 295 CURVE SMOOTH",
"636 297 OFFCURVE",
"627 290 OFFCURVE",
"620 274 CURVE SMOOTH",
"546 103 OFFCURVE",
"464 18 OFFCURVE",
"373 18 CURVE SMOOTH",
"327 18 OFFCURVE",
"301 53 OFFCURVE",
"301 109 CURVE SMOOTH",
"301 151 OFFCURVE",
"308 189 OFFCURVE",
"322 223 CURVE",
"364 223 OFFCURVE",
"461 255 OFFCURVE",
"505 289 CURVE SMOOTH",
"578 344 OFFCURVE",
"614 402 OFFCURVE",
"614 462 CURVE SMOOTH",
"614 478 OFFCURVE",
"606 494 OFFCURVE",
"589 508 CURVE SMOOTH",
"570 520 OFFCURVE",
"550 526 OFFCURVE",
"529 526 CURVE SMOOTH",
"508 526 OFFCURVE",
"486 522 OFFCURVE",
"464 513 CURVE SMOOTH",
"411 490 OFFCURVE",
"366 454 OFFCURVE",
"328 405 CURVE",
"322 472 OFFCURVE",
"286 517 OFFCURVE",
"220 517 CURVE SMOOTH",
"122 517 OFFCURVE",
"-2 405 OFFCURVE",
"-62 265 CURVE SMOOTH",
"-84 217 OFFCURVE",
"-95 172 OFFCURVE",
"-95 130 CURVE SMOOTH",
"-95 38 OFFCURVE",
"-59 -8 OFFCURVE",
"13 -8 CURVE SMOOTH",
"76 -8 OFFCURVE",
"144 35 OFFCURVE",
"217 121 CURVE",
"221 37 OFFCURVE",
"283 -14 OFFCURVE",
"359 -14 CURVE SMOOTH"
);
},
{
closed = 1;
nodes = (
"6 24 OFFCURVE",
"-11 46 OFFCURVE",
"-11 93 CURVE SMOOTH",
"-11 139 OFFCURVE",
"6 198 OFFCURVE",
"41 270 CURVE SMOOTH",
"99 394 OFFCURVE",
"182 471 OFFCURVE",
"236 471 CURVE SMOOTH",
"272 471 OFFCURVE",
"290 447 OFFCURVE",
"290 400 CURVE SMOOTH",
"290 384 OFFCURVE",
"288 365 OFFCURVE",
"284 343 CURVE",
"253 292 OFFCURVE",
"232 239 OFFCURVE",
"221 184 CURVE",
"165 94 OFFCURVE",
"90 24 OFFCURVE",
"40 24 CURVE SMOOTH"
);
},
{
closed = 1;
nodes = (
"366 313 OFFCURVE",
"396 360 OFFCURVE",
"422 390 CURVE SMOOTH",
"479 459 OFFCURVE",
"522 493 OFFCURVE",
"550 493 CURVE SMOOTH",
"566 493 OFFCURVE",
"574 483 OFFCURVE",
"574 463 CURVE SMOOTH",
"574 411 OFFCURVE",
"546 361 OFFCURVE",
"491 315 CURVE SMOOTH",
"443 274 OFFCURVE",
"367 249 OFFCURVE",
"331 249 CURVE"
);
}
);
width = 452;
}
);
note = oe;
unicode = 0153;
},
{
glyphname = p;
lastChange = "2020-12-23 23:30:11 +0000";
layers = (
{
layerId = "1691882E-B915-4755-A5B2-757873D945FF";
paths = (
{
closed = 1;
nodes = (
"-195 -407 OFFCURVE",
"-174 -411 OFFCURVE",
"-149 -392 CURVE SMOOTH",
"-136 -382 OFFCURVE",
"-122 -361 OFFCURVE",
"-107 -329 CURVE",
"36 27 LINE",
"70 9 OFFCURVE",
"101 0 OFFCURVE",
"129 0 CURVE SMOOTH",
"158 0 OFFCURVE",
"183 3 OFFCURVE",
"205 9 CURVE SMOOTH",
"378 63 OFFCURVE",
"483 264 OFFCURVE",
"483 408 CURVE SMOOTH",
"483 473 OFFCURVE",
"457 512 OFFCURVE",
"408 525 CURVE SMOOTH",
"400 527 OFFCURVE",
"393 528 OFFCURVE",
"385 528 CURVE SMOOTH",
"358 528 OFFCURVE",
"330 514 OFFCURVE",
"301 486 CURVE SMOOTH",
"282 468 OFFCURVE",
"264 450 OFFCURVE",
"248 433 CURVE SMOOTH",
"231 416 OFFCURVE",
"205 379 OFFCURVE",
"169 321 CURVE SMOOTH",
"139 273 LINE",
"167 348 OFFCURVE",
"181 416 OFFCURVE",
"181 477 CURVE SMOOTH",
"181 529 OFFCURVE",
"163 521 OFFCURVE",
"54 502 CURVE",
"67 496 OFFCURVE",
"75 475 OFFCURVE",
"75 439 CURVE SMOOTH",
"75 402 OFFCURVE",
"66 362 OFFCURVE",
"48 319 CURVE SMOOTH",
"34 286 OFFCURVE",
"24 264 OFFCURVE",
"18 253 CURVE SMOOTH",
"12 241 OFFCURVE",
"12 235 OFFCURVE",
"18 235 CURVE SMOOTH",
"28 236 OFFCURVE",
"38 245 OFFCURVE",
"49 261 CURVE",
"25 137 OFFCURVE",
"-227 -357 OFFCURVE",
"-271 -399 CURVE",
"-263 -398 OFFCURVE",
"-251 -399 OFFCURVE",
"-235 -402 CURVE SMOOTH",
"-208 -407 LINE"
);
},
{
closed = 1;
nodes = (
"79 30 OFFCURVE",
"61 36 OFFCURVE",
"48 49 CURVE",
"135 211 OFFCURVE",
"201 325 OFFCURVE",
"248 390 CURVE SMOOTH",
"294 455 OFFCURVE",
"335 487 OFFCURVE",
"370 487 CURVE SMOOTH",
"398 487 OFFCURVE",
"411 455 OFFCURVE",
"411 423 CURVE SMOOTH",
"411 389 OFFCURVE",
"396 345 OFFCURVE",
"367 291 CURVE SMOOTH",
"322 208 OFFCURVE",
"266 138 OFFCURVE",
"199 82 CURVE SMOOTH",
"157 47 OFFCURVE",
"124 30 OFFCURVE",
"102 30 CURVE SMOOTH"
);
}
);
width = 336;
}
);
note = p;
unicode = 0070;
},
{
glyphname = thorn;
lastChange = "2020-12-23 11:07:07 +0000";
layers = (
{
layerId = "1691882E-B915-4755-A5B2-757873D945FF";
paths = (
{
closed = 1;
nodes = (
"-200 -418 OFFCURVE",
"-182 -422 OFFCURVE",
"-156 -403 CURVE SMOOTH",
"-143 -393 OFFCURVE",
"-128 -372 OFFCURVE",
"-112 -340 CURVE SMOOTH",
"62 17 LINE",
"96 -1 OFFCURVE",
"128 -10 OFFCURVE",
"156 -10 CURVE SMOOTH",
"185 -10 OFFCURVE",
"210 -7 OFFCURVE",
"232 -1 CURVE SMOOTH",
"405 53 OFFCURVE",
"509 255 OFFCURVE",
"509 398 CURVE SMOOTH",
"509 463 OFFCURVE",
"484 502 OFFCURVE",
"434 515 CURVE SMOOTH",
"428 517 OFFCURVE",
"422 518 OFFCURVE",
"415 518 CURVE SMOOTH",
"387 518 OFFCURVE",
"355 502 OFFCURVE",
"319 470 CURVE SMOOTH",
"283 437 OFFCURVE",
"233 369 OFFCURVE",
"170 266 CURVE",
"359 775 LINE SMOOTH",
"368 803 OFFCURVE",
"373 826 OFFCURVE",
"373 845 CURVE SMOOTH",
"373 864 OFFCURVE",
"362 883 OFFCURVE",
"341 902 CURVE SMOOTH",
"337 906 OFFCURVE",
"327 910 OFFCURVE",
"311 912 CURVE SMOOTH",
"295 915 OFFCURVE",
"285 919 OFFCURVE",
"281 925 CURVE",
"283 847 OFFCURVE",
"162 410 OFFCURVE",
"14 98 CURVE SMOOTH",
"-52 -40 OFFCURVE",
"-242 -376 OFFCURVE",
"-278 -410 CURVE",
"-270 -409 OFFCURVE",
"-258 -410 OFFCURVE",
"-243 -413 CURVE SMOOTH",
"-228 -416 OFFCURVE",
"-218 -418 OFFCURVE",
"-215 -418 CURVE SMOOTH"
);
},
{
closed = 1;
nodes = (
"105 20 OFFCURVE",
"87 27 OFFCURVE",
"74 40 CURVE",
"161 202 OFFCURVE",
"228 315 OFFCURVE",
"275 380 CURVE SMOOTH",
"321 445 OFFCURVE",
"362 478 OFFCURVE",
"397 478 CURVE SMOOTH",
"425 478 OFFCURVE",
"437 445 OFFCURVE",
"437 413 CURVE SMOOTH",
"437 379 OFFCURVE",
"423 335 OFFCURVE",
"394 281 CURVE SMOOTH",
"349 198 OFFCURVE",
"293 129 OFFCURVE",
"226 73 CURVE SMOOTH",
"184 38 OFFCURVE",
"151 20 OFFCURVE",
"128 20 CURVE SMOOTH"
);
}
);
width = 385;
}
);
note = thorn;
unicode = 00FE;
},
{
glyphname = q;
lastChange = "2020-12-23 23:30:25 +0000";
layers = (
{
layerId = "1691882E-B915-4755-A5B2-757873D945FF";
paths = (
{
closed = 1;
nodes = (
"112 -346 OFFCURVE",
"343 196 OFFCURVE",
"451 363 CURVE",
"443 361 OFFCURVE",
"431 362 OFFCURVE",
"416 365 CURVE SMOOTH",
"389 369 LINE",
"377 369 OFFCURVE",
"362 372 OFFCURVE",
"342 356 CURVE SMOOTH",
"332 347 OFFCURVE",
"312 321 OFFCURVE",
"284 276 CURVE SMOOTH",
"185 112 OFFCURVE",
"111 30 OFFCURVE",
"62 30 CURVE SMOOTH",
"56 30 OFFCURVE",
"51 31 OFFCURVE",
"46 33 CURVE SMOOTH",
"26 42 OFFCURVE",
"16 61 OFFCURVE",
"16 90 CURVE SMOOTH",
"16 166 OFFCURVE",
"118 356 OFFCURVE",
"250 448 CURVE SMOOTH",
"284 472 OFFCURVE",
"314 484 OFFCURVE",
"341 484 CURVE SMOOTH",
"368 484 OFFCURVE",
"389 465 OFFCURVE",
"403 427 CURVE SMOOTH",
"405 421 OFFCURVE",
"407 417 OFFCURVE",
"410 414 CURVE SMOOTH",
"420 403 OFFCURVE",
"429 405 OFFCURVE",
"437 417 CURVE SMOOTH",
"441 421 OFFCURVE",
"443 429 OFFCURVE",
"443 438 CURVE SMOOTH",
"443 447 OFFCURVE",
"435 457 OFFCURVE",
"418 471 CURVE SMOOTH",
"376 501 OFFCURVE",
"332 516 OFFCURVE",
"287 516 CURVE SMOOTH",
"270 516 OFFCURVE",
"253 513 OFFCURVE",
"236 508 CURVE SMOOTH",
"173 493 OFFCURVE",
"118 457 OFFCURVE",
"71 402 CURVE SMOOTH",
"-15 298 OFFCURVE",
"-58 204 OFFCURVE",
"-58 118 CURVE SMOOTH",
"-58 54 OFFCURVE",
"-32 11 OFFCURVE",
"19 -11 CURVE",
"29 -14 OFFCURVE",
"39 -15 OFFCURVE",
"49 -15 CURVE SMOOTH",
"93 -15 OFFCURVE",
"138 12 OFFCURVE",
"185 67 CURVE",
"240 142 OFFCURVE",
"275 193 OFFCURVE",
"290 220 CURVE",
"168 -53 OFFCURVE",
"-44 -258 OFFCURVE",
"55 -403 CURVE",
"75 -421 LINE SMOOTH",
"87 -432 OFFCURVE",
"94 -440 OFFCURVE",
"98 -448 CURVE"
);
}
);
width = 342;
}
);
note = q;
unicode = 0071;
},
{
glyphname = r;
lastChange = "2020-12-23 23:31:14 +0000";
layers = (
{
layerId = "1691882E-B915-4755-A5B2-757873D945FF";
paths = (
{
closed = 1;
nodes = (
"353 -34 OFFCURVE",
"390 -11 OFFCURVE",
"428 35 CURVE SMOOTH",
"492 109 OFFCURVE",
"514 162 OFFCURVE",
"540 215 CURVE SMOOTH",
"553 241 OFFCURVE",
"558 257 OFFCURVE",
"560 261 CURVE SMOOTH",
"563 269 OFFCURVE",
"551 285 OFFCURVE",
"536 257 CURVE SMOOTH",
"453 90 OFFCURVE",
"392 7 OFFCURVE",
"350 7 CURVE SMOOTH",
"317 7 OFFCURVE",
"312 45 OFFCURVE",
"338 121 CURVE SMOOTH",
"355 172 OFFCURVE",
"388 241 OFFCURVE",
"419 300 CURVE SMOOTH",
"449 358 OFFCURVE",
"481 426 OFFCURVE",
"467 448 CURVE",
"416 443 OFFCURVE",
"373 440 OFFCURVE",
"340 440 CURVE SMOOTH",
"306 440 OFFCURVE",
"279 441 OFFCURVE",
"260 442 CURVE",
"317 482 OFFCURVE",
"345 524 OFFCURVE",
"345 569 CURVE SMOOTH",
"345 581 OFFCURVE",
"344 592 OFFCURVE",
"341 601 CURVE SMOOTH",
"330 629 OFFCURVE",
"315 643 OFFCURVE",
"293 643 CURVE SMOOTH",
"270 643 OFFCURVE",
"257 627 OFFCURVE",
"251 596 CURVE SMOOTH",
"219 414 OFFCURVE",
"132 194 OFFCURVE",
"20 46 CURVE",
"18 42 OFFCURVE",
"17 38 OFFCURVE",
"17 35 CURVE SMOOTH",
"17 20 OFFCURVE",
"21 17 OFFCURVE",
"32 26 CURVE SMOOTH",
"90 82 OFFCURVE",
"151 193 OFFCURVE",
"213 358 CURVE SMOOTH",
"231 406 LINE",
"369 403 OFFCURVE",
"374 379 OFFCURVE",
"305 259 CURVE SMOOTH",
"271 203 OFFCURVE",
"216 99 OFFCURVE",
"237 37 CURVE SMOOTH",
"252 -10 OFFCURVE",
"279 -34 OFFCURVE",
"318 -34 CURVE SMOOTH"
);
}
);
width = 373;
}
);
leftMetricsKey = r;
note = r;
rightMetricsKey = r;
unicode = 0072;
},
{
glyphname = s;
lastChange = "2020-12-23 23:32:02 +0000";
layers = (
{
layerId = "1691882E-B915-4755-A5B2-757873D945FF";
paths = (
{
closed = 1;
nodes = (
"56 -24 OFFCURVE",
"77 -19 OFFCURVE",
"100 -9 CURVE",
"135 -19 OFFCURVE",
"171 -18 OFFCURVE",
"208 -6 CURVE SMOOTH",
"231 1 OFFCURVE",
"252 12 OFFCURVE",
"299 63 CURVE SMOOTH",
"327 93 OFFCURVE",
"358 147 OFFCURVE",
"377 184 CURVE SMOOTH",
"396 222 OFFCURVE",
"411 257 OFFCURVE",
"416 271 CURVE SMOOTH",
"420 282 OFFCURVE",
"400 290 OFFCURVE",
"392 274 CURVE SMOOTH",
"339 168 OFFCURVE",
"301 104 OFFCURVE",
"280 78 CURVE SMOOTH",
"238 27 OFFCURVE",
"200 0 OFFCURVE",
"134 10 CURVE",
"192 50 OFFCURVE",
"241 120 OFFCURVE",
"241 186 CURVE SMOOTH",
"241 219 OFFCURVE",
"229 261 OFFCURVE",
"206 313 CURVE SMOOTH",
"186 355 OFFCURVE",
"167 385 OFFCURVE",
"167 441 CURVE SMOOTH",
"167 494 OFFCURVE",
"184 528 OFFCURVE",
"218 544 CURVE SMOOTH",
"240 555 OFFCURVE",
"279 523 OFFCURVE",
"289 546 CURVE SMOOTH",
"296 562 OFFCURVE",
"261 577 OFFCURVE",
"233 577 CURVE SMOOTH",
"180 577 OFFCURVE",
"134 535 OFFCURVE",
"94 450 CURVE SMOOTH",
"58 372 OFFCURVE",
"14 284 OFFCURVE",
"-37 187 CURVE",
"-84 184 OFFCURVE",
"-103 114 OFFCURVE",
"-91 60 CURVE SMOOTH",
"-76 4 OFFCURVE",
"-33 -24 OFFCURVE",
"38 -24 CURVE SMOOTH"
);
},
{
closed = 1;
nodes = (
"-1 1 OFFCURVE",
"-21 15 OFFCURVE",
"-28 42 CURVE SMOOTH",
"-32 61 OFFCURVE",
"-32 90 OFFCURVE",
"-2 120 CURVE",
"1 68 OFFCURVE",
"21 30 OFFCURVE",
"58 7 CURVE",
"50 3 OFFCURVE",
"40 1 OFFCURVE",
"28 1 CURVE SMOOTH"
);
},
{
closed = 1;
nodes = (
"41 41 OFFCURVE",
"20 80 OFFCURVE",
"20 139 CURVE SMOOTH",
"20 169 OFFCURVE",
"10 184 OFFCURVE",
"-11 184 CURVE",
"7 217 OFFCURVE",
"54 310 OFFCURVE",
"130 462 CURVE",
"122 408 OFFCURVE",
"149 298 OFFCURVE",
"149 186 CURVE SMOOTH",
"149 110 OFFCURVE",
"127 55 OFFCURVE",
"83 21 CURVE"
);
}
);
width = 256;
}
);
note = s;
unicode = 0073;
},
{
glyphname = germandbls;
lastChange = "2020-12-23 11:07:07 +0000";
layers = (
{
layerId = "1691882E-B915-4755-A5B2-757873D945FF";
paths = (
{
closed = 1;
nodes = (
"-427 -502 OFFCURVE",
"-358 -478 OFFCURVE",
"-287 -430 CURVE SMOOTH",
"-161 -342 OFFCURVE",
"-74 -246 OFFCURVE",
"8 -70 CURVE SMOOTH",
"89 106 OFFCURVE",
"130 234 OFFCURVE",
"220 506 CURVE SMOOTH",
"265 642 OFFCURVE",
"298 741 OFFCURVE",
"320 803 CURVE SMOOTH",
"364 927 OFFCURVE",
"446 992 OFFCURVE",
"512 992 CURVE SMOOTH",
"528 992 OFFCURVE",
"545 989 OFFCURVE",
"562 983 CURVE SMOOTH",
"618 964 OFFCURVE",
"646 919 OFFCURVE",
"646 847 CURVE SMOOTH",
"646 807 OFFCURVE",
"628 732 OFFCURVE",
"586 682 CURVE SMOOTH",
"542 630 OFFCURVE",
"490 588 OFFCURVE",
"457 554 CURVE SMOOTH",
"429 526 OFFCURVE",
"415 485 OFFCURVE",
"415 451 CURVE SMOOTH",
"415 434 OFFCURVE",
"425 388 OFFCURVE",
"446 314 CURVE SMOOTH",
"463 254 OFFCURVE",
"472 212 OFFCURVE",
"472 187 CURVE SMOOTH",
"472 114 OFFCURVE",
"450 60 OFFCURVE",
"406 26 CURVE",
"368 44 OFFCURVE",
"343 86 OFFCURVE",
"343 136 CURVE SMOOTH",
"343 146 LINE SMOOTH",
"343 198 OFFCURVE",
"281 214 OFFCURVE",
"246 166 CURVE SMOOTH",
"234 149 OFFCURVE",
"227 131 OFFCURVE",
"227 113 CURVE SMOOTH",
"227 94 OFFCURVE",
"229 78 OFFCURVE",
"232 65 CURVE SMOOTH",
"247 9 OFFCURVE",
"290 -19 OFFCURVE",
"361 -19 CURVE SMOOTH",
"379 -19 OFFCURVE",
"399 -14 OFFCURVE",
"422 -4 CURVE",
"457 -14 OFFCURVE",
"493 -13 OFFCURVE",
"530 -1 CURVE SMOOTH",
"553 6 OFFCURVE",
"573 18 OFFCURVE",
"590 35 CURVE SMOOTH",
"622 68 LINE SMOOTH",
"642 86 OFFCURVE",
"663 124 OFFCURVE",
"677 146 CURVE SMOOTH",
"683 157 OFFCURVE",
"691 172 OFFCURVE",
"700 190 CURVE SMOOTH",
"719 228 OFFCURVE",
"736 263 OFFCURVE",
"739 277 CURVE",
"739 285 OFFCURVE",
"734 288 OFFCURVE",
"725 287 CURVE SMOOTH",
"720 287 OFFCURVE",
"717 285 OFFCURVE",
"715 280 CURVE SMOOTH",
"661 175 OFFCURVE",
"623 109 OFFCURVE",
"602 83 CURVE SMOOTH",
"563 36 OFFCURVE",
"524 13 OFFCURVE",
"484 13 CURVE SMOOTH",
"479 13 OFFCURVE",
"470 14 OFFCURVE",
"457 16 CURVE",
"515 56 OFFCURVE",
"563 127 OFFCURVE",
"563 187 CURVE SMOOTH",
"563 238 OFFCURVE",
"530 316 OFFCURVE",
"464 421 CURVE SMOOTH",
"437 463 OFFCURVE",
"442 510 OFFCURVE",
"490 557 CURVE SMOOTH",
"504 571 OFFCURVE",
"517 583 OFFCURVE",
"530 591 CURVE SMOOTH",
"574 620 LINE SMOOTH",
"665 683 OFFCURVE",
"710 758 OFFCURVE",
"710 845 CURVE SMOOTH",
"710 925 OFFCURVE",
"682 982 OFFCURVE",
"602 1010 CURVE SMOOTH",
"523 1038 OFFCURVE",
"461 1040 OFFCURVE",
"409 1006 CURVE SMOOTH",
"363 975 OFFCURVE",
"320 920 OFFCURVE",
"280 842 CURVE",
"185 612 OFFCURVE",
"114 435 OFFCURVE",
"67 310 CURVE SMOOTH",
"45 250 OFFCURVE",
"17 177 OFFCURVE",
"-17 91 CURVE SMOOTH",
"-151 -245 OFFCURVE",
"-287 -411 OFFCURVE",
"-467 -457 CURVE SMOOTH",
"-478 -460 OFFCURVE",
"-489 -461 OFFCURVE",
"-500 -461 CURVE SMOOTH",
"-547 -461 OFFCURVE",
"-576 -447 OFFCURVE",
"-587 -418 CURVE",
"-450 -459 OFFCURVE",
"-445 -354 OFFCURVE",
"-461 -344 CURVE",
"-461 -264 OFFCURVE",
"-628 -264 OFFCURVE",
"-628 -395 CURVE SMOOTH",
"-628 -403 LINE SMOOTH",
"-623 -469 OFFCURVE",
"-578 -502 OFFCURVE",
"-493 -502 CURVE SMOOTH"
);
},
{
closed = 1;
nodes = (
"321 7 OFFCURVE",
"303 20 OFFCURVE",
"295 47 CURVE",
"294 54 OFFCURVE",
"293 61 OFFCURVE",
"293 67 CURVE SMOOTH",
"293 88 OFFCURVE",
"302 107 OFFCURVE",
"320 125 CURVE",
"323 73 OFFCURVE",
"343 36 OFFCURVE",
"380 13 CURVE",
"372 9 OFFCURVE",
"362 7 OFFCURVE",
"350 7 CURVE SMOOTH"
);
}
);
width = 437;
}
);
note = germandbls;
unicode = 00DF;
},
{
glyphname = t;
lastChange = "2020-12-23 23:32:29 +0000";
layers = (
{
layerId = "1691882E-B915-4755-A5B2-757873D945FF";
paths = (
{
closed = 1;
nodes = (
"127 -72 OFFCURVE",
"184 -28 OFFCURVE",
"238 59 CURVE SMOOTH",
"257 88 OFFCURVE",
"283 137 OFFCURVE",
"316 206 CURVE SMOOTH",
"334 244 OFFCURVE",
"313 245 OFFCURVE",
"297 215 CURVE SMOOTH",
"237 102 OFFCURVE",
"186 24 OFFCURVE",
"138 -12 CURVE",
"117 -24 OFFCURVE",
"98 -30 OFFCURVE",
"81 -30 CURVE SMOOTH",
"44 -30 OFFCURVE",
"30 11 OFFCURVE",
"42 66 CURVE SMOOTH",
"76 219 LINE",
"154 291 OFFCURVE",
"221 374 OFFCURVE",
"276 467 CURVE",
"363 467 LINE",
"385 471 OFFCURVE",
"375 512 OFFCURVE",
"366 500 CURVE",
"294 500 LINE",
"338 584 OFFCURVE",
"396 692 OFFCURVE",
"396 761 CURVE SMOOTH",
"396 796 OFFCURVE",
"384 819 OFFCURVE",
"361 830 CURVE SMOOTH",
"344 837 OFFCURVE",
"322 834 OFFCURVE",
"280 805 CURVE SMOOTH",
"228 768 OFFCURVE",
"166 658 OFFCURVE",
"94 500 CURVE",
"4 500 LINE",
"-18 496 OFFCURVE",
"-8 455 OFFCURVE",
"1 467 CURVE",
"79 467 LINE",
"-1 272 OFFCURVE",
"-41 133 OFFCURVE",
"-41 50 CURVE SMOOTH",
"-41 -20 OFFCURVE",
"4 -72 OFFCURVE",
"66 -72 CURVE SMOOTH"
);
},
{
closed = 1;
nodes = (
"132 372 OFFCURVE",
"159 439 OFFCURVE",
"171 467 CURVE",
"241 467 LINE",
"194 390 OFFCURVE",
"144 323 OFFCURVE",
"90 267 CURVE"
);
},
{
closed = 1;
nodes = (
"239 620 OFFCURVE",
"277 696 OFFCURVE",
"299 728 CURVE SMOOTH",
"322 760 OFFCURVE",
"338 776 OFFCURVE",
"349 776 CURVE SMOOTH",
"356 776 OFFCURVE",
"360 766 OFFCURVE",
"360 746 CURVE SMOOTH",
"360 700 OFFCURVE",
"327 618 OFFCURVE",
"261 500 CURVE",
"186 500 LINE"
);
}
);
width = 200;
}
);
note = t;
unicode = 0074;
},
{
glyphname = u;
lastChange = "2020-12-23 23:32:54 +0000";
layers = (
{
layerId = "1691882E-B915-4755-A5B2-757873D945FF";
paths = (
{
closed = 1;
nodes = (
"81 -5 OFFCURVE",
"148 59 OFFCURVE",
"221 187 CURVE",
"207 141 OFFCURVE",
"199 86 OFFCURVE",
"215 45 CURVE SMOOTH",
"229 12 OFFCURVE",
"255 -5 OFFCURVE",
"293 -5 CURVE SMOOTH",
"330 -5 OFFCURVE",
"368 17 OFFCURVE",
"407 61 CURVE SMOOTH",
"447 106 OFFCURVE",
"485 182 OFFCURVE",
"521 253 CURVE SMOOTH",
"547 304 OFFCURVE",
"521 314 OFFCURVE",
"508 283 CURVE SMOOTH",
"429 116 OFFCURVE",
"362 33 OFFCURVE",
"308 33 CURVE SMOOTH",
"286 35 OFFCURVE",
"275 52 OFFCURVE",
"275 84 CURVE SMOOTH",
"275 96 OFFCURVE",
"277 109 OFFCURVE",
"280 123 CURVE SMOOTH",
"287 162 OFFCURVE",
"320 241 OFFCURVE",
"380 361 CURVE SMOOTH",
"424 453 OFFCURVE",
"440 476 OFFCURVE",
"484 510 CURVE",
"403 510 LINE SMOOTH",
"375 510 OFFCURVE",
"355 499 OFFCURVE",
"344 478 CURVE SMOOTH",
"248 279 OFFCURVE",
"174 149 OFFCURVE",
"121 87 CURVE SMOOTH",
"87 47 OFFCURVE",
"60 27 OFFCURVE",
"41 27 CURVE SMOOTH",
"15 27 OFFCURVE",
"-1 43 OFFCURVE",
"-1 87 CURVE SMOOTH",
"-1 179 OFFCURVE",
"95 417 OFFCURVE",
"223 510 CURVE",
"131 510 LINE SMOOTH",
"102 510 OFFCURVE",
"83 499 OFFCURVE",
"73 478 CURVE SMOOTH",
"51 433 OFFCURVE",
"23 378 OFFCURVE",
"-11 313 CURVE SMOOTH",
"-38 261 LINE SMOOTH",
"-45 245 OFFCURVE",
"-41 237 OFFCURVE",
"-25 237 CURVE",
"-62 176 OFFCURVE",
"-80 124 OFFCURVE",
"-80 81 CURVE SMOOTH",
"-80 57 OFFCURVE",
"-62 -5 OFFCURVE",
"19 -5 CURVE SMOOTH"
);
}
);
width = 357;
}
);
note = u;
unicode = 0075;
},
{
glyphname = uacute;
lastChange = "2020-12-23 11:07:07 +0000";
layers = (
{
layerId = "1691882E-B915-4755-A5B2-757873D945FF";
paths = (
{
closed = 1;
nodes = (
"79 -50 OFFCURVE",
"147 14 OFFCURVE",
"220 142 CURVE",
"210 108 OFFCURVE",
"205 79 OFFCURVE",
"205 56 CURVE SMOOTH",
"205 33 OFFCURVE",
"208 14 OFFCURVE",
"214 -1 CURVE SMOOTH",
"228 -34 OFFCURVE",
"254 -50 OFFCURVE",
"291 -50 CURVE SMOOTH",
"329 -50 OFFCURVE",
"367 -28 OFFCURVE",
"406 16 CURVE SMOOTH",
"436 50 OFFCURVE",
"477 121 OFFCURVE",
"494 155 CURVE SMOOTH",
"522 214 LINE SMOOTH",
"543 258 OFFCURVE",
"518 266 OFFCURVE",
"506 238 CURVE SMOOTH",
"427 71 OFFCURVE",
"361 -13 OFFCURVE",
"307 -13 CURVE SMOOTH",
"285 -11 OFFCURVE",
"274 6 OFFCURVE",
"274 38 CURVE SMOOTH",
"274 50 OFFCURVE",
"275 63 OFFCURVE",
"278 77 CURVE SMOOTH",
"285 116 OFFCURVE",
"319 196 OFFCURVE",
"379 316 CURVE SMOOTH",
"423 408 OFFCURVE",
"438 430 OFFCURVE",
"482 464 CURVE",
"401 464 LINE SMOOTH",
"373 464 OFFCURVE",
"354 454 OFFCURVE",
"343 433 CURVE SMOOTH",
"247 234 OFFCURVE",
"172 103 OFFCURVE",
"119 41 CURVE SMOOTH",
"85 1 OFFCURVE",
"59 -19 OFFCURVE",
"40 -19 CURVE SMOOTH",
"14 -19 OFFCURVE",
"-2 -3 OFFCURVE",
"-2 41 CURVE SMOOTH",
"-2 133 OFFCURVE",
"93 372 OFFCURVE",
"221 464 CURVE",
"130 464 LINE SMOOTH",
"101 464 OFFCURVE",
"81 454 OFFCURVE",
"71 433 CURVE SMOOTH",
"49 388 OFFCURVE",
"21 333 OFFCURVE",
"-13 268 CURVE SMOOTH",
"-40 215 LINE SMOOTH",
"-47 199 OFFCURVE",
"-42 191 OFFCURVE",
"-26 191 CURVE",
"-63 130 OFFCURVE",
"-82 78 OFFCURVE",
"-82 35 CURVE SMOOTH",
"-82 28 OFFCURVE",
"-80 22 OFFCURVE",
"-77 17 CURVE",
"-68 -28 OFFCURVE",
"-37 -50 OFFCURVE",
"17 -50 CURVE SMOOTH"
);
},
{
closed = 1;
nodes = (
"259 584 OFFCURVE",
"259 584 OFFCURVE",
"267 591 CURVE SMOOTH",
"294 611 LINE",
"283 603 OFFCURVE",
"274 596 OFFCURVE",
"267 591 CURVE SMOOTH",
"266 589 LINE SMOOTH"
);
},
{
closed = 1;
nodes = (
"279 557 OFFCURVE",
"526 667 OFFCURVE",
"536 691 CURVE SMOOTH",
"550 718 OFFCURVE",
"532 736 OFFCURVE",
"489 737 CURVE SMOOTH",
"460 737 OFFCURVE",
"434 711 OFFCURVE",
"380 674 CURVE SMOOTH",
"332 639 OFFCURVE",
"282 601 OFFCURVE",
"266 589 CURVE SMOOTH",
"238 564 OFFCURVE",
"252 557 OFFCURVE",
"257 557 CURVE SMOOTH"
);
}
);
width = 357;
}
);
note = uacute;
unicode = 00FA;
},
{
glyphname = ucircumflex;
lastChange = "2020-12-23 11:07:07 +0000";
layers = (
{
layerId = "1691882E-B915-4755-A5B2-757873D945FF";
paths = (
{
closed = 1;
nodes = (
"81 -51 OFFCURVE",
"148 13 OFFCURVE",
"221 141 CURVE",
"211 107 OFFCURVE",
"206 78 OFFCURVE",
"206 55 CURVE SMOOTH",
"206 32 OFFCURVE",
"209 13 OFFCURVE",
"215 -2 CURVE SMOOTH",
"229 -35 OFFCURVE",
"255 -51 OFFCURVE",
"293 -51 CURVE SMOOTH",
"330 -51 OFFCURVE",
"368 -29 OFFCURVE",
"407 15 CURVE SMOOTH",
"447 59 OFFCURVE",
"485 136 OFFCURVE",
"521 207 CURVE SMOOTH",
"547 258 OFFCURVE",
"521 268 OFFCURVE",
"508 237 CURVE SMOOTH",
"429 70 OFFCURVE",
"362 -14 OFFCURVE",
"308 -14 CURVE SMOOTH",
"286 -12 OFFCURVE",
"275 5 OFFCURVE",
"275 37 CURVE SMOOTH",
"275 49 OFFCURVE",
"277 62 OFFCURVE",
"280 76 CURVE SMOOTH",
"287 115 OFFCURVE",
"320 195 OFFCURVE",
"380 315 CURVE SMOOTH",
"424 407 OFFCURVE",
"440 429 OFFCURVE",
"484 463 CURVE",
"403 463 LINE SMOOTH",
"375 463 OFFCURVE",
"355 453 OFFCURVE",
"344 432 CURVE SMOOTH",
"248 233 OFFCURVE",
"174 102 OFFCURVE",
"121 40 CURVE SMOOTH",
"87 0 OFFCURVE",
"60 -20 OFFCURVE",
"41 -20 CURVE SMOOTH",
"15 -20 OFFCURVE",
"-1 -4 OFFCURVE",
"-1 40 CURVE SMOOTH",
"-1 132 OFFCURVE",
"95 371 OFFCURVE",
"223 463 CURVE",
"131 463 LINE SMOOTH",
"102 463 OFFCURVE",
"83 453 OFFCURVE",
"73 432 CURVE SMOOTH",
"51 387 OFFCURVE",
"23 332 OFFCURVE",
"-11 267 CURVE SMOOTH",
"-38 214 LINE SMOOTH",
"-45 198 OFFCURVE",
"-41 190 OFFCURVE",
"-25 190 CURVE",
"-62 129 OFFCURVE",
"-80 77 OFFCURVE",
"-80 34 CURVE SMOOTH",
"-80 27 OFFCURVE",
"-79 21 OFFCURVE",
"-76 16 CURVE",
"-67 -29 OFFCURVE",
"-35 -51 OFFCURVE",
"19 -51 CURVE SMOOTH"
);
},
{
closed = 1;
nodes = (
"180 555 OFFCURVE",
"233 573 OFFCURVE",
"200 579 CURVE",
"398 685 LINE",
"467 579 LINE SMOOTH",
"475 568 OFFCURVE",
"506 565 OFFCURVE",
"497 579 CURVE",
"443 738 LINE SMOOTH",
"442 741 OFFCURVE",
"437 742 OFFCURVE",
"428 742 CURVE SMOOTH",
"419 742 OFFCURVE",
"405 741 OFFCURVE",
"386 738 CURVE",
"163 579 LINE"
);
}
);
width = 357;
}
);
note = ucircumflex;
unicode = 00FB;
},
{
glyphname = udieresis;
lastChange = "2020-12-23 11:07:07 +0000";
layers = (
{
layerId = "1691882E-B915-4755-A5B2-757873D945FF";
paths = (
{
closed = 1;
nodes = (
"81 -46 OFFCURVE",
"148 18 OFFCURVE",
"221 146 CURVE",
"211 112 OFFCURVE",
"206 83 OFFCURVE",
"206 60 CURVE SMOOTH",
"206 37 OFFCURVE",
"209 18 OFFCURVE",
"215 3 CURVE SMOOTH",
"229 -30 OFFCURVE",
"255 -46 OFFCURVE",
"293 -46 CURVE SMOOTH",
"330 -46 OFFCURVE",
"368 -24 OFFCURVE",
"407 20 CURVE SMOOTH",
"447 64 OFFCURVE",
"485 141 OFFCURVE",
"521 212 CURVE SMOOTH",
"547 263 OFFCURVE",
"521 273 OFFCURVE",
"508 242 CURVE SMOOTH",
"429 75 OFFCURVE",
"362 -9 OFFCURVE",
"308 -9 CURVE SMOOTH",
"286 -7 OFFCURVE",
"275 10 OFFCURVE",
"275 42 CURVE SMOOTH",
"275 54 OFFCURVE",
"277 67 OFFCURVE",
"280 81 CURVE SMOOTH",
"287 120 OFFCURVE",
"320 200 OFFCURVE",
"380 320 CURVE SMOOTH",
"424 412 OFFCURVE",
"440 434 OFFCURVE",
"484 468 CURVE",
"403 468 LINE SMOOTH",
"375 468 OFFCURVE",
"355 458 OFFCURVE",
"344 437 CURVE SMOOTH",
"248 238 OFFCURVE",
"174 107 OFFCURVE",
"121 45 CURVE SMOOTH",
"87 5 OFFCURVE",
"60 -15 OFFCURVE",
"41 -15 CURVE SMOOTH",
"15 -15 OFFCURVE",
"-1 1 OFFCURVE",
"-1 45 CURVE SMOOTH",
"-1 137 OFFCURVE",
"95 376 OFFCURVE",
"223 468 CURVE",
"131 468 LINE SMOOTH",
"102 468 OFFCURVE",
"83 458 OFFCURVE",
"73 437 CURVE SMOOTH",
"51 392 OFFCURVE",
"23 337 OFFCURVE",
"-11 272 CURVE SMOOTH",
"-38 219 LINE SMOOTH",
"-45 203 OFFCURVE",
"-41 195 OFFCURVE",
"-25 195 CURVE",
"-62 134 OFFCURVE",
"-80 82 OFFCURVE",
"-80 39 CURVE SMOOTH",
"-80 32 OFFCURVE",
"-79 26 OFFCURVE",
"-76 21 CURVE",
"-67 -24 OFFCURVE",
"-35 -46 OFFCURVE",
"19 -46 CURVE SMOOTH"
);
},
{
closed = 1;
nodes = (
"271 618 OFFCURVE",
"290 640 OFFCURVE",
"290 669 CURVE SMOOTH",
"290 697 OFFCURVE",
"269 717 OFFCURVE",
"240 717 CURVE SMOOTH",
"211 717 OFFCURVE",
"191 696 OFFCURVE",
"191 667 CURVE SMOOTH",
"191 638 OFFCURVE",
"213 618 OFFCURVE",
"242 618 CURVE SMOOTH"
);
},
{
closed = 1;
nodes = (
"464 618 OFFCURVE",
"484 640 OFFCURVE",
"484 669 CURVE SMOOTH",
"484 697 OFFCURVE",
"463 717 OFFCURVE",
"434 717 CURVE SMOOTH",
"405 717 OFFCURVE",
"385 696 OFFCURVE",
"385 667 CURVE SMOOTH",
"385 638 OFFCURVE",
"406 618 OFFCURVE",
"435 618 CURVE SMOOTH"
);
}
);
width = 357;
}
);
note = udieresis;
unicode = 00FC;
},
{
glyphname = ugrave;
lastChange = "2020-12-23 11:07:07 +0000";
layers = (
{
layerId = "1691882E-B915-4755-A5B2-757873D945FF";
paths = (
{
closed = 1;
nodes = (
"81 -53 OFFCURVE",
"148 11 OFFCURVE",
"221 139 CURVE",
"211 105 OFFCURVE",
"206 76 OFFCURVE",
"206 54 CURVE SMOOTH",
"206 31 OFFCURVE",
"209 12 OFFCURVE",
"215 -4 CURVE SMOOTH",
"229 -37 OFFCURVE",
"255 -53 OFFCURVE",
"293 -53 CURVE SMOOTH",
"330 -53 OFFCURVE",
"368 -31 OFFCURVE",
"407 13 CURVE SMOOTH",
"447 57 OFFCURVE",
"485 134 OFFCURVE",
"521 205 CURVE SMOOTH",
"547 256 OFFCURVE",
"521 266 OFFCURVE",
"508 235 CURVE SMOOTH",
"429 68 OFFCURVE",
"362 -16 OFFCURVE",
"308 -16 CURVE SMOOTH",
"286 -14 OFFCURVE",
"275 4 OFFCURVE",
"275 36 CURVE SMOOTH",
"275 48 OFFCURVE",
"277 61 OFFCURVE",
"280 75 CURVE SMOOTH",
"287 114 OFFCURVE",
"320 193 OFFCURVE",
"380 313 CURVE SMOOTH",
"424 405 OFFCURVE",
"440 427 OFFCURVE",
"484 462 CURVE",
"403 462 LINE SMOOTH",
"375 462 OFFCURVE",
"355 451 OFFCURVE",
"344 430 CURVE SMOOTH",
"248 231 OFFCURVE",
"174 100 OFFCURVE",
"121 39 CURVE SMOOTH",
"87 -2 OFFCURVE",
"60 -22 OFFCURVE",
"41 -22 CURVE SMOOTH",
"15 -22 OFFCURVE",
"-1 -5 OFFCURVE",
"-1 39 CURVE SMOOTH",
"-1 130 OFFCURVE",
"95 369 OFFCURVE",
"223 462 CURVE",
"131 462 LINE SMOOTH",
"102 462 OFFCURVE",
"83 451 OFFCURVE",
"73 430 CURVE SMOOTH",
"51 385 OFFCURVE",
"23 330 OFFCURVE",
"-11 265 CURVE SMOOTH",
"-38 213 LINE SMOOTH",
"-45 196 OFFCURVE",
"-41 189 OFFCURVE",
"-25 189 CURVE",
"-62 127 OFFCURVE",
"-80 76 OFFCURVE",
"-80 33 CURVE SMOOTH",
"-80 25 OFFCURVE",
"-79 19 OFFCURVE",
"-76 15 CURVE",
"-67 -31 OFFCURVE",
"-35 -53 OFFCURVE",
"19 -53 CURVE SMOOTH"
);
},
{
closed = 1;
nodes = (
"371 549 OFFCURVE",
"376 553 OFFCURVE",
"376 562 CURVE SMOOTH",
"376 574 OFFCURVE",
"154 751 OFFCURVE",
"128 751 CURVE SMOOTH",
"109 751 OFFCURVE",
"100 739 OFFCURVE",
"100 716 CURVE SMOOTH",
"100 692 OFFCURVE",
"118 671 OFFCURVE",
"155 652 CURVE SMOOTH",
"258 598 LINE SMOOTH",
"321 565 OFFCURVE",
"355 549 OFFCURVE",
"361 549 CURVE SMOOTH"
);
}
);
width = 357;
}
);
note = ugrave;
unicode = 00F9;
},
